SplineFontDB: 3.0
FontName: Prompt-Regular
FullName: Prompt-Regular
FamilyName: Prompt
Weight: Book
Copyright: Copyright (c) 2015, Cadson Demak (info@cadsondemak.com)
Version: 1.000
ItalicAngle: 0
UnderlinePosition: -100
UnderlineWidth: 50
Ascent: 750
Descent: 250
InvalidEm: 0
sfntRevision: 0x00010000
LayerCount: 2
Layer: 0 1 "Back" 1
Layer: 1 1 "Fore" 0
XUID: [1021 318 -2145553614 24882]
StyleMap: 0x0040
FSType: 0
OS2Version: 3
OS2_WeightWidthSlopeOnly: 0
OS2_UseTypoMetrics: 0
CreationTime: 1446022100
ModificationTime: 1564191576
PfmFamily: 81
TTFWeight: 400
TTFWidth: 5
LineGap: 0
VLineGap: 0
Panose: 0 0 5 0 0 0 0 0 0 0
OS2TypoAscent: 750
OS2TypoAOffset: 0
OS2TypoDescent: -250
OS2TypoDOffset: 0
OS2TypoLinegap: 200
OS2WinAscent: 1090
OS2WinAOffset: 0
OS2WinDescent: 422
OS2WinDOffset: 0
HheadAscent: 1090
HheadAOffset: 0
HheadDescent: -422
HheadDOffset: 0
OS2SubXSize: 650
OS2SubYSize: 600
OS2SubXOff: 0
OS2SubYOff: 75
OS2SupXSize: 650
OS2SupYSize: 600
OS2SupXOff: 0
OS2SupYOff: 350
OS2StrikeYSize: 50
OS2StrikeYPos: 321
OS2CapHeight: 714
OS2XHeight: 536
OS2Vendor: 'CDK '
OS2CodePages: 20010193.00000000
OS2UnicodeRanges: 21000007.00000001.00000000.00000000
Lookup: 1 0 0 "'aalt' Access All Alternates lookup 0" { "'aalt' Access All Alternates lookup 0 subtable"  } ['aalt' ('DFLT' <'dflt' > 'latn' <'CAT ' 'MOL ' 'ROM ' 'dflt' > 'thai' <'dflt' > ) ]
Lookup: 3 0 0 "'aalt' Access All Alternates lookup 1" { "'aalt' Access All Alternates lookup 1 subtable"  } ['aalt' ('DFLT' <'dflt' > 'latn' <'CAT ' 'MOL ' 'ROM ' 'dflt' > 'thai' <'dflt' > ) ]
Lookup: 6 0 0 "'ccmp' Glyph Composition/Decomposition in Latin lookup 2" { "'ccmp' Glyph Composition/Decomposition in Latin lookup 2 contextual 0"  "'ccmp' Glyph Composition/Decomposition in Latin lookup 2 contextual 1"  } ['ccmp' ('latn' <'dflt' > ) ]
Lookup: 2 0 0 "'ccmp' Glyph Composition/Decomposition in Thai lookup 3" { "'ccmp' Glyph Composition/Decomposition in Thai lookup 3 subtable"  } ['ccmp' ('thai' <'dflt' > ) ]

StartChar: .notdef
Encoding: 65536 -1 0
Width: 408
VWidth: 949
Flags: W
LayerCount: 2
Fore
SplineSet
36.55078125 678.299804688 m 1,0,-1
 372.822265625 678.299804688 l 1,1,-1
 372.822265625 0 l 1,2,-1
 36.55078125 0 l 1,3,-1
 36.55078125 678.299804688 l 1,0,-1
327.336914062 50.349609375 m 1,4,-1
 327.336914062 627 l 1,5,-1
 82.0380859375 627 l 1,6,-1
 82.0380859375 50.349609375 l 1,7,-1
 327.336914062 50.349609375 l 1,4,-1
EndSplineSet
EndChar

StartChar: A
Encoding: 65 65 4
Width: 605
VWidth: 949
GlyphClass: 2
Flags: W
LayerCount: 2
Fore
SplineSet
263.168945312 664.049804688 m 1,0,-1
 342.76953125 664.049804688 l 1,1,-1
 569.387695312 0 l 1,2,-1
 484.913085938 0 l 1,3,-1
 428.055664062 165.299804688 l 1,4,-1
 177.071289062 165.299804688 l 1,5,-1
 121.837890625 0 l 1,6,-1
 36.55078125 0 l 1,7,-1
 263.168945312 664.049804688 l 1,0,-1
405.3125 246.049804688 m 1,8,-1
 302.969726562 556.700195312 l 1,9,-1
 200.625 246.049804688 l 1,10,-1
 405.3125 246.049804688 l 1,8,-1
EndSplineSet
Substitution2: "Single Substitution lookup 19 subtable" ordfeminine
Substitution2: "'aalt' Access All Alternates lookup 0 subtable" ordfeminine
EndChar

StartChar: Aacute
Encoding: 193 193 5
Width: 605
VWidth: 949
GlyphClass: 2
Flags: W
LayerCount: 2
Fore
SplineSet
324.900390625 867.349609375 m 1,0,-1
 411.810546875 867.349609375 l 1,1,-1
 344.393554688 703.950195312 l 1,2,-1
 269.666015625 703.950195312 l 1,3,-1
 324.900390625 867.349609375 l 1,0,-1
263.168945312 664.049804688 m 1,4,-1
 342.76953125 664.049804688 l 1,5,-1
 569.387695312 0 l 1,6,-1
 484.913085938 0 l 1,7,-1
 428.055664062 165.299804688 l 1,8,-1
 177.071289062 165.299804688 l 1,9,-1
 121.837890625 0 l 1,10,-1
 36.55078125 0 l 1,11,-1
 263.168945312 664.049804688 l 1,4,-1
405.3125 246.049804688 m 1,12,-1
 302.969726562 556.700195312 l 1,13,-1
 200.625 246.049804688 l 1,14,-1
 405.3125 246.049804688 l 1,12,-1
EndSplineSet
EndChar

StartChar: Abreve
Encoding: 258 258 6
Width: 605
VWidth: 949
GlyphClass: 2
Flags: W
LayerCount: 2
Fore
SplineSet
213.215820312 741.950195312 m 128,-1,1
 180.319335938 779 180.319335938 779 180.319335938 837.900390625 c 1,2,-1
 243.674804688 837.900390625 l 1,3,4
 243.674804688 805.599609375 243.674804688 805.599609375 259.107421875 788.025390625 c 128,-1,5
 274.541015625 770.450195312 274.541015625 770.450195312 302.969726562 770.450195312 c 256,6,7
 331.397460938 770.450195312 331.397460938 770.450195312 346.831054688 788.025390625 c 128,-1,8
 362.263671875 805.599609375 362.263671875 805.599609375 362.263671875 837.900390625 c 1,9,-1
 424.806640625 837.900390625 l 1,10,11
 424.806640625 779 424.806640625 779 391.91015625 741.950195312 c 128,-1,12
 359.014648438 704.900390625 359.014648438 704.900390625 302.969726562 704.900390625 c 0,13,0
 246.112304688 704.900390625 246.112304688 704.900390625 213.215820312 741.950195312 c 128,-1,1
263.168945312 664.049804688 m 1,14,-1
 342.76953125 664.049804688 l 1,15,-1
 569.387695312 0 l 1,16,-1
 484.913085938 0 l 1,17,-1
 428.055664062 165.299804688 l 1,18,-1
 177.071289062 165.299804688 l 1,19,-1
 121.837890625 0 l 1,20,-1
 36.55078125 0 l 1,21,-1
 263.168945312 664.049804688 l 1,14,-1
405.3125 246.049804688 m 1,22,-1
 302.969726562 556.700195312 l 1,23,-1
 200.625 246.049804688 l 1,24,-1
 405.3125 246.049804688 l 1,22,-1
EndSplineSet
EndChar

StartChar: uni1EAE
Encoding: 7854 7854 7
Width: 605
VWidth: 949
GlyphClass: 2
Flags: W
LayerCount: 2
Fore
SplineSet
312.715820312 948.099609375 m 1,0,-1
 380.133789062 948.099609375 l 1,1,-1
 327.336914062 830.299804688 l 1,2,-1
 270.479492188 830.299804688 l 1,3,-1
 312.715820312 948.099609375 l 1,0,-1
215.65234375 740.525390625 m 128,-1,5
 183.569335938 776.150390625 183.569335938 776.150390625 183.569335938 835.049804688 c 1,6,-1
 244.487304688 835.049804688 l 1,7,8
 244.487304688 803.700195312 244.487304688 803.700195312 259.513671875 786.125 c 128,-1,9
 274.541015625 768.549804688 274.541015625 768.549804688 302.15625 768.549804688 c 256,10,11
 329.774414062 768.549804688 329.774414062 768.549804688 345.206054688 786.125 c 128,-1,12
 360.638671875 803.700195312 360.638671875 803.700195312 360.638671875 835.049804688 c 1,13,-1
 421.556640625 835.049804688 l 1,14,15
 421.556640625 777.099609375 421.556640625 777.099609375 389.473632812 741 c 128,-1,16
 357.390625 704.900390625 357.390625 704.900390625 302.15625 704.900390625 c 0,17,4
 247.736328125 704.900390625 247.736328125 704.900390625 215.65234375 740.525390625 c 128,-1,5
263.168945312 664.049804688 m 1,18,-1
 342.76953125 664.049804688 l 1,19,-1
 569.387695312 0 l 1,20,-1
 484.913085938 0 l 1,21,-1
 428.055664062 165.299804688 l 1,22,-1
 177.071289062 165.299804688 l 1,23,-1
 121.837890625 0 l 1,24,-1
 36.55078125 0 l 1,25,-1
 263.168945312 664.049804688 l 1,18,-1
405.3125 246.049804688 m 1,26,-1
 302.969726562 556.700195312 l 1,27,-1
 200.625 246.049804688 l 1,28,-1
 405.3125 246.049804688 l 1,26,-1
EndSplineSet
EndChar

StartChar: uni1EB6
Encoding: 7862 7862 8
Width: 605
VWidth: 949
GlyphClass: 2
Flags: W
LayerCount: 2
Fore
SplineSet
213.215820312 741.950195312 m 128,-1,1
 180.319335938 779 180.319335938 779 180.319335938 837.900390625 c 1,2,-1
 243.674804688 837.900390625 l 1,3,4
 243.674804688 805.599609375 243.674804688 805.599609375 259.107421875 788.025390625 c 128,-1,5
 274.541015625 770.450195312 274.541015625 770.450195312 302.969726562 770.450195312 c 256,6,7
 331.397460938 770.450195312 331.397460938 770.450195312 346.831054688 788.025390625 c 128,-1,8
 362.263671875 805.599609375 362.263671875 805.599609375 362.263671875 837.900390625 c 1,9,-1
 424.806640625 837.900390625 l 1,10,11
 424.806640625 779 424.806640625 779 391.91015625 741.950195312 c 128,-1,12
 359.014648438 704.900390625 359.014648438 704.900390625 302.969726562 704.900390625 c 0,13,0
 246.112304688 704.900390625 246.112304688 704.900390625 213.215820312 741.950195312 c 128,-1,1
263.168945312 664.049804688 m 1,14,-1
 342.76953125 664.049804688 l 1,15,-1
 569.387695312 0 l 1,16,-1
 484.913085938 0 l 1,17,-1
 428.055664062 165.299804688 l 1,18,-1
 177.071289062 165.299804688 l 1,19,-1
 121.837890625 0 l 1,20,-1
 36.55078125 0 l 1,21,-1
 263.168945312 664.049804688 l 1,14,-1
405.3125 246.049804688 m 1,22,-1
 302.969726562 556.700195312 l 1,23,-1
 200.625 246.049804688 l 1,24,-1
 405.3125 246.049804688 l 1,22,-1
270.072265625 -141.549804688 m 128,-1,26
 255.859375 -125.400390625 255.859375 -125.400390625 255.859375 -102.599609375 c 256,27,28
 255.859375 -79.7998046875 255.859375 -79.7998046875 270.072265625 -63.650390625 c 128,-1,29
 284.287109375 -47.5 284.287109375 -47.5 303.78125 -47.5 c 0,30,31
 322.462890625 -47.5 322.462890625 -47.5 336.271484375 -63.650390625 c 128,-1,32
 350.080078125 -79.7998046875 350.080078125 -79.7998046875 350.080078125 -102.599609375 c 256,33,34
 350.080078125 -125.400390625 350.080078125 -125.400390625 336.271484375 -141.549804688 c 128,-1,35
 322.462890625 -157.700195312 322.462890625 -157.700195312 303.78125 -157.700195312 c 0,36,25
 284.287109375 -157.700195312 284.287109375 -157.700195312 270.072265625 -141.549804688 c 128,-1,26
EndSplineSet
EndChar

StartChar: uni1EB0
Encoding: 7856 7856 9
Width: 605
VWidth: 949
GlyphClass: 2
Flags: W
LayerCount: 2
Fore
SplineSet
224.993164062 948.099609375 m 1,0,-1
 292.41015625 948.099609375 l 1,1,-1
 334.646484375 830.299804688 l 1,2,-1
 277.790039062 830.299804688 l 1,3,-1
 224.993164062 948.099609375 l 1,0,-1
215.65234375 740.525390625 m 128,-1,5
 183.569335938 776.150390625 183.569335938 776.150390625 183.569335938 835.049804688 c 1,6,-1
 244.487304688 835.049804688 l 1,7,8
 244.487304688 803.700195312 244.487304688 803.700195312 259.513671875 786.125 c 128,-1,9
 274.541015625 768.549804688 274.541015625 768.549804688 302.15625 768.549804688 c 256,10,11
 329.774414062 768.549804688 329.774414062 768.549804688 345.206054688 786.125 c 128,-1,12
 360.638671875 803.700195312 360.638671875 803.700195312 360.638671875 835.049804688 c 1,13,-1
 421.556640625 835.049804688 l 1,14,15
 421.556640625 777.099609375 421.556640625 777.099609375 389.473632812 741 c 128,-1,16
 357.390625 704.900390625 357.390625 704.900390625 302.15625 704.900390625 c 0,17,4
 247.736328125 704.900390625 247.736328125 704.900390625 215.65234375 740.525390625 c 128,-1,5
263.168945312 664.049804688 m 1,18,-1
 342.76953125 664.049804688 l 1,19,-1
 569.387695312 0 l 1,20,-1
 484.913085938 0 l 1,21,-1
 428.055664062 165.299804688 l 1,22,-1
 177.071289062 165.299804688 l 1,23,-1
 121.837890625 0 l 1,24,-1
 36.55078125 0 l 1,25,-1
 263.168945312 664.049804688 l 1,18,-1
405.3125 246.049804688 m 1,26,-1
 302.969726562 556.700195312 l 1,27,-1
 200.625 246.049804688 l 1,28,-1
 405.3125 246.049804688 l 1,26,-1
EndSplineSet
EndChar

StartChar: uni1EB2
Encoding: 7858 7858 10
Width: 605
VWidth: 949
GlyphClass: 2
Flags: W
LayerCount: 2
Fore
SplineSet
276.165039062 866.400390625 m 1,0,1
 301.344726562 866.400390625 301.344726562 866.400390625 312.715820312 873.525390625 c 128,-1,2
 324.086914062 880.650390625 324.086914062 880.650390625 324.086914062 897.75 c 0,3,4
 324.086914062 912.950195312 324.086914062 912.950195312 315.559570312 919.599609375 c 128,-1,5
 307.03125 926.25 307.03125 926.25 289.162109375 926.25 c 0,6,7
 267.23046875 926.25 267.23046875 926.25 254.234375 918.650390625 c 1,8,-1
 254.234375 958.549804688 l 1,9,10
 263.981445312 962.349609375 263.981445312 962.349609375 279.008789062 965.200195312 c 128,-1,11
 294.034179688 968.049804688 294.034179688 968.049804688 307.842773438 968.049804688 c 0,12,13
 342.76953125 968.049804688 342.76953125 968.049804688 362.263671875 950.474609375 c 128,-1,14
 381.756835938 932.900390625 381.756835938 932.900390625 381.756835938 903.450195312 c 0,15,16
 381.756835938 879.700195312 381.756835938 879.700195312 367.54296875 863.075195312 c 128,-1,17
 353.328125 846.450195312 353.328125 846.450195312 328.1484375 841.700195312 c 1,18,-1
 328.1484375 818.900390625 l 1,19,-1
 276.165039062 818.900390625 l 1,20,-1
 276.165039062 866.400390625 l 1,0,1
215.65234375 741 m 128,-1,22
 183.569335938 777.099609375 183.569335938 777.099609375 183.569335938 835.049804688 c 1,23,-1
 243.674804688 835.049804688 l 1,24,25
 243.674804688 803.700195312 243.674804688 803.700195312 259.513671875 785.650390625 c 128,-1,26
 275.352539062 767.599609375 275.352539062 767.599609375 302.969726562 767.599609375 c 256,27,28
 330.584960938 767.599609375 330.584960938 767.599609375 346.424804688 785.650390625 c 128,-1,29
 362.263671875 803.700195312 362.263671875 803.700195312 362.263671875 835.049804688 c 1,30,-1
 421.556640625 835.049804688 l 1,31,32
 421.556640625 776.150390625 421.556640625 776.150390625 389.473632812 740.525390625 c 128,-1,33
 357.390625 704.900390625 357.390625 704.900390625 302.969726562 704.900390625 c 0,34,21
 247.736328125 704.900390625 247.736328125 704.900390625 215.65234375 741 c 128,-1,22
263.168945312 664.049804688 m 1,35,-1
 342.76953125 664.049804688 l 1,36,-1
 569.387695312 0 l 1,37,-1
 484.913085938 0 l 1,38,-1
 428.055664062 165.299804688 l 1,39,-1
 177.071289062 165.299804688 l 1,40,-1
 121.837890625 0 l 1,41,-1
 36.55078125 0 l 1,42,-1
 263.168945312 664.049804688 l 1,35,-1
405.3125 246.049804688 m 1,43,-1
 302.969726562 556.700195312 l 1,44,-1
 200.625 246.049804688 l 1,45,-1
 405.3125 246.049804688 l 1,43,-1
EndSplineSet
EndChar

StartChar: uni1EB4
Encoding: 7860 7860 11
Width: 605
VWidth: 949
GlyphClass: 2
Flags: W
LayerCount: 2
Fore
SplineSet
173.821289062 931.950195312 m 1,0,1
 194.127929688 966.150390625 194.127929688 966.150390625 239.61328125 966.150390625 c 0,2,3
 255.045898438 966.150390625 255.045898438 966.150390625 269.259765625 960.924804688 c 128,-1,4
 283.474609375 955.700195312 283.474609375 955.700195312 304.59375 945.25 c 0,5,6
 324.900390625 934.799804688 324.900390625 934.799804688 338.708007812 929.575195312 c 128,-1,7
 352.515625 924.349609375 352.515625 924.349609375 366.325195312 924.349609375 c 0,8,9
 406.9375 924.349609375 406.9375 924.349609375 432.116210938 966.150390625 c 1,10,-1
 432.116210938 894.900390625 l 1,11,12
 412.623046875 861.650390625 412.623046875 861.650390625 366.325195312 861.650390625 c 0,13,14
 350.080078125 861.650390625 350.080078125 861.650390625 335.458984375 866.875 c 128,-1,15
 320.837890625 872.099609375 320.837890625 872.099609375 298.095703125 883.5 c 0,16,17
 277.790039062 893 277.790039062 893 265.60546875 897.75 c 128,-1,18
 253.421875 902.5 253.421875 902.5 239.61328125 902.5 c 0,19,20
 220.120117188 902.5 220.120117188 902.5 204.280273438 893 c 128,-1,21
 188.44140625 883.5 188.44140625 883.5 173.821289062 860.700195312 c 1,22,-1
 173.821289062 931.950195312 l 1,0,1
218.08984375 740.525390625 m 128,-1,24
 186.004882812 776.150390625 186.004882812 776.150390625 186.004882812 835.049804688 c 1,25,-1
 246.112304688 835.049804688 l 1,26,27
 246.112304688 803.700195312 246.112304688 803.700195312 261.543945312 786.125 c 128,-1,28
 276.977539062 768.549804688 276.977539062 768.549804688 304.59375 768.549804688 c 256,29,30
 332.209960938 768.549804688 332.209960938 768.549804688 347.643554688 786.125 c 128,-1,31
 363.075195312 803.700195312 363.075195312 803.700195312 363.075195312 835.049804688 c 1,32,-1
 423.994140625 835.049804688 l 1,33,34
 423.994140625 777.099609375 423.994140625 777.099609375 391.91015625 741 c 128,-1,35
 359.827148438 704.900390625 359.827148438 704.900390625 304.59375 704.900390625 c 0,36,23
 250.172851562 704.900390625 250.172851562 704.900390625 218.08984375 740.525390625 c 128,-1,24
263.168945312 664.049804688 m 1,37,-1
 342.76953125 664.049804688 l 1,38,-1
 569.387695312 0 l 1,39,-1
 484.913085938 0 l 1,40,-1
 428.055664062 165.299804688 l 1,41,-1
 177.071289062 165.299804688 l 1,42,-1
 121.837890625 0 l 1,43,-1
 36.55078125 0 l 1,44,-1
 263.168945312 664.049804688 l 1,37,-1
405.3125 246.049804688 m 1,45,-1
 302.969726562 556.700195312 l 1,46,-1
 200.625 246.049804688 l 1,47,-1
 405.3125 246.049804688 l 1,45,-1
EndSplineSet
EndChar

StartChar: uni01CD
Encoding: 461 461 12
Width: 605
VWidth: 949
GlyphClass: 2
Flags: W
LayerCount: 2
Fore
SplineSet
151.890625 862.599609375 m 1,0,-1
 235.552734375 862.599609375 l 1,1,-1
 303.78125 760.950195312 l 1,2,-1
 372.010742188 862.599609375 l 1,3,-1
 454.859375 862.599609375 l 1,4,-1
 339.521484375 704.900390625 l 1,5,-1
 267.23046875 704.900390625 l 1,6,-1
 151.890625 862.599609375 l 1,0,-1
263.168945312 664.049804688 m 1,7,-1
 342.76953125 664.049804688 l 1,8,-1
 569.387695312 0 l 1,9,-1
 484.913085938 0 l 1,10,-1
 428.055664062 165.299804688 l 1,11,-1
 177.071289062 165.299804688 l 1,12,-1
 121.837890625 0 l 1,13,-1
 36.55078125 0 l 1,14,-1
 263.168945312 664.049804688 l 1,7,-1
405.3125 246.049804688 m 1,15,-1
 302.969726562 556.700195312 l 1,16,-1
 200.625 246.049804688 l 1,17,-1
 405.3125 246.049804688 l 1,15,-1
EndSplineSet
EndChar

StartChar: Acircumflex
Encoding: 194 194 13
Width: 605
VWidth: 949
GlyphClass: 2
Flags: W
LayerCount: 2
Fore
SplineSet
267.23046875 861.650390625 m 1,0,-1
 339.521484375 861.650390625 l 1,1,-1
 454.859375 703.950195312 l 1,2,-1
 372.010742188 703.950195312 l 1,3,-1
 303.78125 805.599609375 l 1,4,-1
 235.552734375 703.950195312 l 1,5,-1
 151.890625 703.950195312 l 1,6,-1
 267.23046875 861.650390625 l 1,0,-1
263.168945312 664.049804688 m 1,7,-1
 342.76953125 664.049804688 l 1,8,-1
 569.387695312 0 l 1,9,-1
 484.913085938 0 l 1,10,-1
 428.055664062 165.299804688 l 1,11,-1
 177.071289062 165.299804688 l 1,12,-1
 121.837890625 0 l 1,13,-1
 36.55078125 0 l 1,14,-1
 263.168945312 664.049804688 l 1,7,-1
405.3125 246.049804688 m 1,15,-1
 302.969726562 556.700195312 l 1,16,-1
 200.625 246.049804688 l 1,17,-1
 405.3125 246.049804688 l 1,15,-1
EndSplineSet
EndChar

StartChar: uni1EA4
Encoding: 7844 7844 14
Width: 605
VWidth: 949
GlyphClass: 2
Flags: W
LayerCount: 2
Fore
SplineSet
444.30078125 923.400390625 m 1,0,-1
 518.215820312 923.400390625 l 1,1,-1
 454.046875 805.599609375 l 1,2,-1
 390.693359375 805.599609375 l 1,3,-1
 444.30078125 923.400390625 l 1,0,-1
265.60546875 847.400390625 m 1,4,-1
 335.458984375 847.400390625 l 1,5,-1
 447.549804688 709.650390625 l 1,6,-1
 367.13671875 709.650390625 l 1,7,-1
 300.532226562 795.150390625 l 1,8,-1
 233.927734375 709.650390625 l 1,9,-1
 153.514648438 709.650390625 l 1,10,-1
 265.60546875 847.400390625 l 1,4,-1
263.168945312 664.049804688 m 1,11,-1
 342.76953125 664.049804688 l 1,12,-1
 569.387695312 0 l 1,13,-1
 484.913085938 0 l 1,14,-1
 428.055664062 165.299804688 l 1,15,-1
 177.071289062 165.299804688 l 1,16,-1
 121.837890625 0 l 1,17,-1
 36.55078125 0 l 1,18,-1
 263.168945312 664.049804688 l 1,11,-1
405.3125 246.049804688 m 1,19,-1
 302.969726562 556.700195312 l 1,20,-1
 200.625 246.049804688 l 1,21,-1
 405.3125 246.049804688 l 1,19,-1
EndSplineSet
EndChar

StartChar: uni1EAC
Encoding: 7852 7852 15
Width: 605
VWidth: 949
GlyphClass: 2
Flags: W
LayerCount: 2
Fore
SplineSet
267.23046875 861.650390625 m 1,0,-1
 339.521484375 861.650390625 l 1,1,-1
 454.859375 703.950195312 l 1,2,-1
 372.010742188 703.950195312 l 1,3,-1
 303.78125 805.599609375 l 1,4,-1
 235.552734375 703.950195312 l 1,5,-1
 151.890625 703.950195312 l 1,6,-1
 267.23046875 861.650390625 l 1,0,-1
263.168945312 664.049804688 m 1,7,-1
 342.76953125 664.049804688 l 1,8,-1
 569.387695312 0 l 1,9,-1
 484.913085938 0 l 1,10,-1
 428.055664062 165.299804688 l 1,11,-1
 177.071289062 165.299804688 l 1,12,-1
 121.837890625 0 l 1,13,-1
 36.55078125 0 l 1,14,-1
 263.168945312 664.049804688 l 1,7,-1
405.3125 246.049804688 m 1,15,-1
 302.969726562 556.700195312 l 1,16,-1
 200.625 246.049804688 l 1,17,-1
 405.3125 246.049804688 l 1,15,-1
270.072265625 -141.549804688 m 128,-1,19
 255.859375 -125.400390625 255.859375 -125.400390625 255.859375 -102.599609375 c 256,20,21
 255.859375 -79.7998046875 255.859375 -79.7998046875 270.072265625 -63.650390625 c 128,-1,22
 284.287109375 -47.5 284.287109375 -47.5 303.78125 -47.5 c 0,23,24
 322.462890625 -47.5 322.462890625 -47.5 336.271484375 -63.650390625 c 128,-1,25
 350.080078125 -79.7998046875 350.080078125 -79.7998046875 350.080078125 -102.599609375 c 256,26,27
 350.080078125 -125.400390625 350.080078125 -125.400390625 336.271484375 -141.549804688 c 128,-1,28
 322.462890625 -157.700195312 322.462890625 -157.700195312 303.78125 -157.700195312 c 0,29,18
 284.287109375 -157.700195312 284.287109375 -157.700195312 270.072265625 -141.549804688 c 128,-1,19
EndSplineSet
EndChar

StartChar: uni1EA6
Encoding: 7846 7846 16
Width: 605
VWidth: 949
GlyphClass: 2
Flags: W
LayerCount: 2
Fore
SplineSet
90.16015625 917.700195312 m 1,0,-1
 164.07421875 917.700195312 l 1,1,-1
 217.68359375 799.900390625 l 1,2,-1
 154.328125 799.900390625 l 1,3,-1
 90.16015625 917.700195312 l 1,0,-1
272.916015625 841.700195312 m 1,4,-1
 342.76953125 841.700195312 l 1,5,-1
 454.859375 703.950195312 l 1,6,-1
 374.447265625 703.950195312 l 1,7,-1
 307.842773438 789.450195312 l 1,8,-1
 241.23828125 703.950195312 l 1,9,-1
 160.825195312 703.950195312 l 1,10,-1
 272.916015625 841.700195312 l 1,4,-1
263.168945312 664.049804688 m 1,11,-1
 342.76953125 664.049804688 l 1,12,-1
 569.387695312 0 l 1,13,-1
 484.913085938 0 l 1,14,-1
 428.055664062 165.299804688 l 1,15,-1
 177.071289062 165.299804688 l 1,16,-1
 121.837890625 0 l 1,17,-1
 36.55078125 0 l 1,18,-1
 263.168945312 664.049804688 l 1,11,-1
405.3125 246.049804688 m 1,19,-1
 302.969726562 556.700195312 l 1,20,-1
 200.625 246.049804688 l 1,21,-1
 405.3125 246.049804688 l 1,19,-1
EndSplineSet
EndChar

StartChar: uni1EA8
Encoding: 7848 7848 17
Width: 605
VWidth: 949
GlyphClass: 2
Flags: W
LayerCount: 2
Fore
SplineSet
395.565429688 844.549804688 m 1,0,1
 419.93359375 844.549804688 419.93359375 844.549804688 431.709960938 852.150390625 c 128,-1,2
 443.48828125 859.75 443.48828125 859.75 443.48828125 876.849609375 c 0,3,4
 443.48828125 891.099609375 443.48828125 891.099609375 434.959960938 897.75 c 128,-1,5
 426.431640625 904.400390625 426.431640625 904.400390625 408.5625 904.400390625 c 0,6,7
 386.631835938 904.400390625 386.631835938 904.400390625 373.634765625 896.799804688 c 1,8,-1
 373.634765625 937.650390625 l 1,9,10
 399.626953125 947.150390625 399.626953125 947.150390625 427.244140625 947.150390625 c 0,11,12
 462.169921875 947.150390625 462.169921875 947.150390625 481.665039062 929.575195312 c 128,-1,13
 501.158203125 912 501.158203125 912 501.158203125 882.549804688 c 0,14,15
 501.158203125 858.799804688 501.158203125 858.799804688 486.943359375 841.700195312 c 128,-1,16
 472.728515625 824.599609375 472.728515625 824.599609375 447.549804688 820.799804688 c 1,17,-1
 447.549804688 797.049804688 l 1,18,-1
 395.565429688 797.049804688 l 1,19,-1
 395.565429688 844.549804688 l 1,0,1
268.04296875 847.400390625 m 1,20,-1
 337.896484375 847.400390625 l 1,21,-1
 449.986328125 709.650390625 l 1,22,-1
 369.57421875 709.650390625 l 1,23,-1
 302.969726562 795.150390625 l 1,24,-1
 236.365234375 709.650390625 l 1,25,-1
 155.952148438 709.650390625 l 1,26,-1
 268.04296875 847.400390625 l 1,20,-1
263.168945312 664.049804688 m 1,27,-1
 342.76953125 664.049804688 l 1,28,-1
 569.387695312 0 l 1,29,-1
 484.913085938 0 l 1,30,-1
 428.055664062 165.299804688 l 1,31,-1
 177.071289062 165.299804688 l 1,32,-1
 121.837890625 0 l 1,33,-1
 36.55078125 0 l 1,34,-1
 263.168945312 664.049804688 l 1,27,-1
405.3125 246.049804688 m 1,35,-1
 302.969726562 556.700195312 l 1,36,-1
 200.625 246.049804688 l 1,37,-1
 405.3125 246.049804688 l 1,35,-1
EndSplineSet
EndChar

StartChar: uni1EAA
Encoding: 7850 7850 18
Width: 605
VWidth: 949
GlyphClass: 2
Flags: W
LayerCount: 2
Fore
SplineSet
168.134765625 920.549804688 m 1,0,1
 188.44140625 954.75 188.44140625 954.75 233.927734375 954.75 c 0,2,3
 249.360351562 954.75 249.360351562 954.75 263.575195312 949.525390625 c 128,-1,4
 277.790039062 944.299804688 277.790039062 944.299804688 298.908203125 933.849609375 c 0,5,6
 319.21484375 923.400390625 319.21484375 923.400390625 333.022460938 918.174804688 c 128,-1,7
 346.831054688 912.950195312 346.831054688 912.950195312 360.638671875 912.950195312 c 0,8,9
 401.250976562 912.950195312 401.250976562 912.950195312 426.431640625 954.75 c 1,10,-1
 426.431640625 883.5 l 1,11,12
 406.9375 850.25 406.9375 850.25 360.638671875 850.25 c 0,13,14
 344.393554688 850.25 344.393554688 850.25 329.774414062 855.474609375 c 128,-1,15
 315.153320312 860.700195312 315.153320312 860.700195312 292.41015625 872.099609375 c 0,16,17
 272.103515625 881.599609375 272.103515625 881.599609375 259.919921875 886.349609375 c 128,-1,18
 247.736328125 891.099609375 247.736328125 891.099609375 233.927734375 891.099609375 c 0,19,20
 214.43359375 891.099609375 214.43359375 891.099609375 198.594726562 881.599609375 c 128,-1,21
 182.755859375 872.099609375 182.755859375 872.099609375 168.134765625 849.299804688 c 1,22,-1
 168.134765625 920.549804688 l 1,0,1
259.107421875 841.700195312 m 1,23,-1
 328.961914062 841.700195312 l 1,24,-1
 441.052734375 703.950195312 l 1,25,-1
 360.638671875 703.950195312 l 1,26,-1
 294.034179688 789.450195312 l 1,27,-1
 227.430664062 703.950195312 l 1,28,-1
 147.017578125 703.950195312 l 1,29,-1
 259.107421875 841.700195312 l 1,23,-1
263.168945312 664.049804688 m 1,30,-1
 342.76953125 664.049804688 l 1,31,-1
 569.387695312 0 l 1,32,-1
 484.913085938 0 l 1,33,-1
 428.055664062 165.299804688 l 1,34,-1
 177.071289062 165.299804688 l 1,35,-1
 121.837890625 0 l 1,36,-1
 36.55078125 0 l 1,37,-1
 263.168945312 664.049804688 l 1,30,-1
405.3125 246.049804688 m 1,38,-1
 302.969726562 556.700195312 l 1,39,-1
 200.625 246.049804688 l 1,40,-1
 405.3125 246.049804688 l 1,38,-1
EndSplineSet
EndChar

StartChar: Adieresis
Encoding: 196 196 19
Width: 605
VWidth: 949
GlyphClass: 2
Flags: W
LayerCount: 2
Fore
SplineSet
177.477539062 720.099609375 m 128,-1,1
 163.262695312 736.25 163.262695312 736.25 163.262695312 759.049804688 c 256,2,3
 163.262695312 781.849609375 163.262695312 781.849609375 177.477539062 798 c 128,-1,4
 191.69140625 814.150390625 191.69140625 814.150390625 211.184570312 814.150390625 c 0,5,6
 229.866210938 814.150390625 229.866210938 814.150390625 243.674804688 798 c 128,-1,7
 257.483398438 781.849609375 257.483398438 781.849609375 257.483398438 759.049804688 c 256,8,9
 257.483398438 736.25 257.483398438 736.25 243.674804688 720.099609375 c 128,-1,10
 229.866210938 703.950195312 229.866210938 703.950195312 211.184570312 703.950195312 c 0,11,0
 191.69140625 703.950195312 191.69140625 703.950195312 177.477539062 720.099609375 c 128,-1,1
361.857421875 720.099609375 m 128,-1,13
 347.643554688 736.25 347.643554688 736.25 347.643554688 759.049804688 c 256,14,15
 347.643554688 781.849609375 347.643554688 781.849609375 361.857421875 798 c 128,-1,16
 376.072265625 814.150390625 376.072265625 814.150390625 395.565429688 814.150390625 c 0,17,18
 414.247070312 814.150390625 414.247070312 814.150390625 428.055664062 798 c 128,-1,19
 441.86328125 781.849609375 441.86328125 781.849609375 441.86328125 759.049804688 c 256,20,21
 441.86328125 736.25 441.86328125 736.25 428.055664062 720.099609375 c 128,-1,22
 414.247070312 703.950195312 414.247070312 703.950195312 395.565429688 703.950195312 c 0,23,12
 376.072265625 703.950195312 376.072265625 703.950195312 361.857421875 720.099609375 c 128,-1,13
263.168945312 664.049804688 m 1,24,-1
 342.76953125 664.049804688 l 1,25,-1
 569.387695312 0 l 1,26,-1
 484.913085938 0 l 1,27,-1
 428.055664062 165.299804688 l 1,28,-1
 177.071289062 165.299804688 l 1,29,-1
 121.837890625 0 l 1,30,-1
 36.55078125 0 l 1,31,-1
 263.168945312 664.049804688 l 1,24,-1
405.3125 246.049804688 m 1,32,-1
 302.969726562 556.700195312 l 1,33,-1
 200.625 246.049804688 l 1,34,-1
 405.3125 246.049804688 l 1,32,-1
EndSplineSet
EndChar

StartChar: uni1EA0
Encoding: 7840 7840 20
Width: 605
VWidth: 949
GlyphClass: 2
Flags: W
LayerCount: 2
Fore
SplineSet
263.168945312 664.049804688 m 1,0,-1
 342.76953125 664.049804688 l 1,1,-1
 569.387695312 0 l 1,2,-1
 484.913085938 0 l 1,3,-1
 428.055664062 165.299804688 l 1,4,-1
 177.071289062 165.299804688 l 1,5,-1
 121.837890625 0 l 1,6,-1
 36.55078125 0 l 1,7,-1
 263.168945312 664.049804688 l 1,0,-1
405.3125 246.049804688 m 1,8,-1
 302.969726562 556.700195312 l 1,9,-1
 200.625 246.049804688 l 1,10,-1
 405.3125 246.049804688 l 1,8,-1
269.259765625 -141.549804688 m 128,-1,12
 255.045898438 -125.400390625 255.045898438 -125.400390625 255.045898438 -102.599609375 c 256,13,14
 255.045898438 -79.7998046875 255.045898438 -79.7998046875 269.259765625 -63.650390625 c 128,-1,15
 283.474609375 -47.5 283.474609375 -47.5 302.969726562 -47.5 c 0,16,17
 321.651367188 -47.5 321.651367188 -47.5 335.458984375 -63.650390625 c 128,-1,18
 349.267578125 -79.7998046875 349.267578125 -79.7998046875 349.267578125 -102.599609375 c 256,19,20
 349.267578125 -125.400390625 349.267578125 -125.400390625 335.458984375 -141.549804688 c 128,-1,21
 321.651367188 -157.700195312 321.651367188 -157.700195312 302.969726562 -157.700195312 c 0,22,11
 283.474609375 -157.700195312 283.474609375 -157.700195312 269.259765625 -141.549804688 c 128,-1,12
EndSplineSet
EndChar

StartChar: Agrave
Encoding: 192 192 21
Width: 605
VWidth: 949
GlyphClass: 2
Flags: W
LayerCount: 2
Fore
SplineSet
194.940429688 867.349609375 m 1,0,-1
 281.850585938 867.349609375 l 1,1,-1
 337.896484375 703.950195312 l 1,2,-1
 262.356445312 703.950195312 l 1,3,-1
 194.940429688 867.349609375 l 1,0,-1
263.168945312 664.049804688 m 1,4,-1
 342.76953125 664.049804688 l 1,5,-1
 569.387695312 0 l 1,6,-1
 484.913085938 0 l 1,7,-1
 428.055664062 165.299804688 l 1,8,-1
 177.071289062 165.299804688 l 1,9,-1
 121.837890625 0 l 1,10,-1
 36.55078125 0 l 1,11,-1
 263.168945312 664.049804688 l 1,4,-1
405.3125 246.049804688 m 1,12,-1
 302.969726562 556.700195312 l 1,13,-1
 200.625 246.049804688 l 1,14,-1
 405.3125 246.049804688 l 1,12,-1
EndSplineSet
EndChar

StartChar: uni1EA2
Encoding: 7842 7842 22
Width: 605
VWidth: 949
GlyphClass: 2
Flags: W
LayerCount: 2
Fore
SplineSet
266.41796875 772.349609375 m 1,0,1
 304.59375 772.349609375 304.59375 772.349609375 322.869140625 784.224609375 c 128,-1,2
 341.14453125 796.099609375 341.14453125 796.099609375 341.14453125 822.700195312 c 0,3,4
 341.14453125 844.549804688 341.14453125 844.549804688 328.555664062 854.525390625 c 128,-1,5
 315.96484375 864.5 315.96484375 864.5 287.536132812 864.5 c 0,6,7
 276.977539062 864.5 276.977539062 864.5 260.326171875 861.174804688 c 128,-1,8
 243.674804688 857.849609375 243.674804688 857.849609375 236.365234375 854.049804688 c 1,9,-1
 236.365234375 906.299804688 l 1,10,11
 249.360351562 911.049804688 249.360351562 911.049804688 268.85546875 914.849609375 c 128,-1,12
 288.349609375 918.650390625 288.349609375 918.650390625 307.03125 918.650390625 c 0,13,14
 359.014648438 918.650390625 359.014648438 918.650390625 386.224609375 893.474609375 c 128,-1,15
 413.434570312 868.299804688 413.434570312 868.299804688 413.434570312 826.5 c 0,16,17
 413.434570312 791.349609375 413.434570312 791.349609375 393.94140625 767.125 c 128,-1,18
 374.447265625 742.900390625 374.447265625 742.900390625 338.708007812 737.200195312 c 1,19,-1
 338.708007812 704.900390625 l 1,20,-1
 266.41796875 704.900390625 l 1,21,-1
 266.41796875 772.349609375 l 1,0,1
263.168945312 664.049804688 m 1,22,-1
 342.76953125 664.049804688 l 1,23,-1
 569.387695312 0 l 1,24,-1
 484.913085938 0 l 1,25,-1
 428.055664062 165.299804688 l 1,26,-1
 177.071289062 165.299804688 l 1,27,-1
 121.837890625 0 l 1,28,-1
 36.55078125 0 l 1,29,-1
 263.168945312 664.049804688 l 1,22,-1
405.3125 246.049804688 m 1,30,-1
 302.969726562 556.700195312 l 1,31,-1
 200.625 246.049804688 l 1,32,-1
 405.3125 246.049804688 l 1,30,-1
EndSplineSet
EndChar

StartChar: Amacron
Encoding: 256 256 23
Width: 605
VWidth: 949
GlyphClass: 2
Flags: W
LayerCount: 2
Fore
SplineSet
176.258789062 779.950195312 m 1,0,-1
 429.6796875 779.950195312 l 1,1,-1
 429.6796875 714.400390625 l 1,2,-1
 176.258789062 714.400390625 l 1,3,-1
 176.258789062 779.950195312 l 1,0,-1
263.168945312 664.049804688 m 1,4,-1
 342.76953125 664.049804688 l 1,5,-1
 569.387695312 0 l 1,6,-1
 484.913085938 0 l 1,7,-1
 428.055664062 165.299804688 l 1,8,-1
 177.071289062 165.299804688 l 1,9,-1
 121.837890625 0 l 1,10,-1
 36.55078125 0 l 1,11,-1
 263.168945312 664.049804688 l 1,4,-1
405.3125 246.049804688 m 1,12,-1
 302.969726562 556.700195312 l 1,13,-1
 200.625 246.049804688 l 1,14,-1
 405.3125 246.049804688 l 1,12,-1
EndSplineSet
EndChar

StartChar: Aogonek
Encoding: 260 260 24
Width: 605
VWidth: 949
GlyphClass: 2
Flags: W
LayerCount: 2
Fore
SplineSet
529.586914062 -141.549804688 m 0,1,2
 549.893554688 -141.549804688 549.893554688 -141.549804688 568.575195312 -132.049804688 c 1,3,-1
 568.575195312 -190 l 1,4,5
 541.770507812 -201.400390625 541.770507812 -201.400390625 506.032226562 -201.400390625 c 0,6,7
 468.66796875 -201.400390625 468.66796875 -201.400390625 445.11328125 -179.549804688 c 128,-1,8
 421.556640625 -157.700195312 421.556640625 -157.700195312 421.556640625 -115.900390625 c 0,9,10
 421.556640625 -80.75 421.556640625 -80.75 438.208984375 -50.349609375 c 128,-1,11
 454.859375 -19.9501953125 454.859375 -19.9501953125 481.665039062 0 c 1,12,-1
 484.913085938 0 l 1,13,-1
 428.055664062 165.299804688 l 1,14,-1
 177.071289062 165.299804688 l 1,15,-1
 121.837890625 0 l 1,16,-1
 36.55078125 0 l 1,17,-1
 263.168945312 664.049804688 l 1,18,-1
 342.76953125 664.049804688 l 1,19,-1
 569.387695312 0 l 1,20,-1
 558.015625 0 l 1,21,22
 525.525390625 -24.7001953125 525.525390625 -24.7001953125 509.6875 -48.4501953125 c 128,-1,23
 493.84765625 -72.2001953125 493.84765625 -72.2001953125 493.84765625 -100.700195312 c 0,24,0
 493.84765625 -141.549804688 493.84765625 -141.549804688 529.586914062 -141.549804688 c 0,1,2
405.3125 246.049804688 m 1,25,-1
 302.969726562 556.700195312 l 1,26,-1
 200.625 246.049804688 l 1,27,-1
 405.3125 246.049804688 l 1,25,-1
EndSplineSet
EndChar

StartChar: Aring
Encoding: 197 197 25
Width: 605
VWidth: 949
GlyphClass: 2
Flags: W
LayerCount: 2
Fore
SplineSet
569.387695312 0 m 1,0,-1
 484.913085938 0 l 1,1,-1
 428.055664062 165.299804688 l 1,2,-1
 177.071289062 165.299804688 l 1,3,-1
 121.837890625 0 l 1,4,-1
 36.55078125 0 l 1,5,-1
 253.421875 636.5 l 1,6,7
 233.115234375 650.75 233.115234375 650.75 220.931640625 675.450195312 c 128,-1,8
 208.748046875 700.150390625 208.748046875 700.150390625 208.748046875 730.549804688 c 0,9,10
 208.748046875 776.150390625 208.748046875 776.150390625 235.958984375 808.450195312 c 128,-1,11
 263.168945312 840.75 263.168945312 840.75 302.969726562 840.75 c 0,12,13
 341.95703125 840.75 341.95703125 840.75 369.57421875 808.450195312 c 128,-1,14
 397.190429688 776.150390625 397.190429688 776.150390625 397.190429688 730.549804688 c 0,15,16
 397.190429688 701.099609375 397.190429688 701.099609375 385.005859375 675.924804688 c 128,-1,17
 372.822265625 650.75 372.822265625 650.75 352.515625 636.5 c 1,18,-1
 569.387695312 0 l 1,0,-1
272.103515625 766.650390625 m 128,-1,20
 259.107421875 751.450195312 259.107421875 751.450195312 259.107421875 730.549804688 c 0,21,22
 259.107421875 708.700195312 259.107421875 708.700195312 272.103515625 693.5 c 128,-1,23
 285.100585938 678.299804688 285.100585938 678.299804688 302.969726562 678.299804688 c 256,24,25
 320.837890625 678.299804688 320.837890625 678.299804688 333.834960938 693.974609375 c 128,-1,26
 346.831054688 709.650390625 346.831054688 709.650390625 346.831054688 730.549804688 c 256,27,28
 346.831054688 751.450195312 346.831054688 751.450195312 333.834960938 766.650390625 c 128,-1,29
 320.837890625 781.849609375 320.837890625 781.849609375 302.969726562 781.849609375 c 256,30,19
 285.100585938 781.849609375 285.100585938 781.849609375 272.103515625 766.650390625 c 128,-1,20
405.3125 246.049804688 m 1,31,-1
 302.969726562 556.700195312 l 1,32,-1
 200.625 246.049804688 l 1,33,-1
 405.3125 246.049804688 l 1,31,-1
EndSplineSet
EndChar

StartChar: Aringacute
Encoding: 506 506 26
Width: 605
VWidth: 949
GlyphClass: 2
Flags: W
LayerCount: 2
Fore
SplineSet
339.521484375 866.400390625 m 1,0,-1
 264.793945312 866.400390625 l 1,1,-1
 320.025390625 997.5 l 1,2,-1
 406.9375 997.5 l 1,3,-1
 339.521484375 866.400390625 l 1,0,-1
569.387695312 0 m 1,4,-1
 484.913085938 0 l 1,5,-1
 428.055664062 165.299804688 l 1,6,-1
 177.071289062 165.299804688 l 1,7,-1
 121.837890625 0 l 1,8,-1
 36.55078125 0 l 1,9,-1
 255.045898438 641.25 l 1,10,11
 233.927734375 654.549804688 233.927734375 654.549804688 221.337890625 680.200195312 c 128,-1,12
 208.748046875 705.849609375 208.748046875 705.849609375 208.748046875 736.25 c 0,13,14
 208.748046875 781.849609375 208.748046875 781.849609375 235.958984375 814.150390625 c 128,-1,15
 263.168945312 846.450195312 263.168945312 846.450195312 302.969726562 846.450195312 c 0,16,17
 341.95703125 846.450195312 341.95703125 846.450195312 369.57421875 814.150390625 c 128,-1,18
 397.190429688 781.849609375 397.190429688 781.849609375 397.190429688 736.25 c 0,19,20
 397.190429688 705.849609375 397.190429688 705.849609375 384.600585938 680.674804688 c 128,-1,21
 372.010742188 655.5 372.010742188 655.5 350.891601562 641.25 c 1,22,-1
 569.387695312 0 l 1,4,-1
272.103515625 772.349609375 m 128,-1,24
 259.107421875 757.150390625 259.107421875 757.150390625 259.107421875 736.25 c 0,25,26
 259.107421875 714.400390625 259.107421875 714.400390625 272.103515625 699.200195312 c 128,-1,27
 285.100585938 684 285.100585938 684 302.969726562 684 c 256,28,29
 320.837890625 684 320.837890625 684 333.834960938 699.674804688 c 128,-1,30
 346.831054688 715.349609375 346.831054688 715.349609375 346.831054688 736.25 c 256,31,32
 346.831054688 757.150390625 346.831054688 757.150390625 333.834960938 772.349609375 c 128,-1,33
 320.837890625 787.549804688 320.837890625 787.549804688 302.969726562 787.549804688 c 256,34,23
 285.100585938 787.549804688 285.100585938 787.549804688 272.103515625 772.349609375 c 128,-1,24
405.3125 246.049804688 m 1,35,-1
 302.969726562 556.700195312 l 1,36,-1
 200.625 246.049804688 l 1,37,-1
 405.3125 246.049804688 l 1,35,-1
EndSplineSet
EndChar

StartChar: Atilde
Encoding: 195 195 27
Width: 605
VWidth: 949
GlyphClass: 2
Flags: W
LayerCount: 2
Fore
SplineSet
148.641601562 786.599609375 m 1,0,1
 173.821289062 827.450195312 173.821289062 827.450195312 228.243164062 827.450195312 c 0,2,3
 246.112304688 827.450195312 246.112304688 827.450195312 262.762695312 821.75 c 128,-1,4
 279.413085938 816.049804688 279.413085938 816.049804688 305.40625 803.700195312 c 0,5,6
 327.336914062 792.299804688 327.336914062 792.299804688 343.98828125 786.125 c 128,-1,7
 360.638671875 779.950195312 360.638671875 779.950195312 378.508789062 779.950195312 c 0,8,9
 402.875976562 779.950195312 402.875976562 779.950195312 422.369140625 790.875 c 128,-1,10
 441.86328125 801.799804688 441.86328125 801.799804688 457.296875 828.400390625 c 1,11,-1
 457.296875 746.700195312 l 1,12,13
 432.928710938 706.799804688 432.928710938 706.799804688 378.508789062 706.799804688 c 0,14,15
 358.203125 706.799804688 358.203125 706.799804688 339.927734375 712.974609375 c 128,-1,16
 321.651367188 719.150390625 321.651367188 719.150390625 298.095703125 731.5 c 0,17,18
 274.541015625 742.900390625 274.541015625 742.900390625 259.919921875 748.599609375 c 128,-1,19
 245.299804688 754.299804688 245.299804688 754.299804688 228.243164062 754.299804688 c 0,20,21
 204.686523438 754.299804688 204.686523438 754.299804688 185.193359375 743.375 c 128,-1,22
 165.69921875 732.450195312 165.69921875 732.450195312 148.641601562 704.900390625 c 1,23,-1
 148.641601562 786.599609375 l 1,0,1
263.168945312 664.049804688 m 1,24,-1
 342.76953125 664.049804688 l 1,25,-1
 569.387695312 0 l 1,26,-1
 484.913085938 0 l 1,27,-1
 428.055664062 165.299804688 l 1,28,-1
 177.071289062 165.299804688 l 1,29,-1
 121.837890625 0 l 1,30,-1
 36.55078125 0 l 1,31,-1
 263.168945312 664.049804688 l 1,24,-1
405.3125 246.049804688 m 1,32,-1
 302.969726562 556.700195312 l 1,33,-1
 200.625 246.049804688 l 1,34,-1
 405.3125 246.049804688 l 1,32,-1
EndSplineSet
EndChar

StartChar: AE
Encoding: 198 198 28
Width: 747
VWidth: 949
GlyphClass: 2
Flags: W
LayerCount: 2
Fore
SplineSet
315.153320312 664.049804688 m 1,0,-1
 712.342773438 664.049804688 l 1,1,-1
 712.342773438 582.349609375 l 1,2,-1
 452.422851562 582.349609375 l 1,3,-1
 452.422851562 372.400390625 l 1,4,-1
 638.428710938 372.400390625 l 1,5,-1
 638.428710938 291.650390625 l 1,6,-1
 452.422851562 291.650390625 l 1,7,-1
 452.422851562 80.75 l 1,8,-1
 712.342773438 80.75 l 1,9,-1
 712.342773438 0 l 1,10,-1
 369.57421875 0 l 1,11,-1
 369.57421875 170.049804688 l 1,12,-1
 194.940429688 170.049804688 l 1,13,-1
 124.274414062 0 l 1,14,-1
 36.55078125 0 l 1,15,-1
 315.153320312 664.049804688 l 1,0,-1
369.57421875 246.049804688 m 1,16,-1
 369.57421875 576.650390625 l 1,17,-1
 363.075195312 576.650390625 l 1,18,-1
 228.243164062 246.049804688 l 1,19,-1
 369.57421875 246.049804688 l 1,16,-1
EndSplineSet
EndChar

StartChar: AEacute
Encoding: 508 508 29
Width: 747
VWidth: 949
GlyphClass: 2
Flags: W
LayerCount: 2
Fore
SplineSet
470.29296875 867.349609375 m 1,0,-1
 557.204101562 867.349609375 l 1,1,-1
 489.787109375 703.950195312 l 1,2,-1
 415.059570312 703.950195312 l 1,3,-1
 470.29296875 867.349609375 l 1,0,-1
315.153320312 664.049804688 m 1,4,-1
 712.342773438 664.049804688 l 1,5,-1
 712.342773438 582.349609375 l 1,6,-1
 452.422851562 582.349609375 l 1,7,-1
 452.422851562 372.400390625 l 1,8,-1
 638.428710938 372.400390625 l 1,9,-1
 638.428710938 291.650390625 l 1,10,-1
 452.422851562 291.650390625 l 1,11,-1
 452.422851562 80.75 l 1,12,-1
 712.342773438 80.75 l 1,13,-1
 712.342773438 0 l 1,14,-1
 369.57421875 0 l 1,15,-1
 369.57421875 170.049804688 l 1,16,-1
 194.940429688 170.049804688 l 1,17,-1
 124.274414062 0 l 1,18,-1
 36.55078125 0 l 1,19,-1
 315.153320312 664.049804688 l 1,4,-1
369.57421875 246.049804688 m 1,20,-1
 369.57421875 576.650390625 l 1,21,-1
 363.075195312 576.650390625 l 1,22,-1
 228.243164062 246.049804688 l 1,23,-1
 369.57421875 246.049804688 l 1,20,-1
EndSplineSet
EndChar

StartChar: B
Encoding: 66 66 30
Width: 526
VWidth: 949
GlyphClass: 2
Flags: W
LayerCount: 2
Fore
SplineSet
52.796875 664.049804688 m 1,0,-1
 313.528320312 664.049804688 l 2,1,2
 389.067382812 664.049804688 389.067382812 664.049804688 430.493164062 618.450195312 c 128,-1,3
 471.91796875 572.849609375 471.91796875 572.849609375 471.91796875 485.450195312 c 0,4,5
 471.91796875 436.049804688 471.91796875 436.049804688 452.016601562 398.525390625 c 128,-1,6
 432.116210938 361 432.116210938 361 399.626953125 342.950195312 c 1,7,8
 490.598632812 311.599609375 490.598632812 311.599609375 490.598632812 188.099609375 c 0,9,10
 490.598632812 130.150390625 490.598632812 130.150390625 469.07421875 87.875 c 128,-1,11
 447.549804688 45.599609375 447.549804688 45.599609375 410.186523438 22.7998046875 c 128,-1,12
 372.822265625 0 372.822265625 0 327.336914062 0 c 2,13,-1
 52.796875 0 l 1,14,-1
 52.796875 664.049804688 l 1,0,-1
302.969726562 379.049804688 m 2,15,16
 342.76953125 379.049804688 342.76953125 379.049804688 365.512695312 404.700195312 c 128,-1,17
 388.255859375 430.349609375 388.255859375 430.349609375 388.255859375 480.700195312 c 0,18,19
 388.255859375 538.650390625 388.255859375 538.650390625 365.918945312 561.924804688 c 128,-1,20
 343.58203125 585.200195312 343.58203125 585.200195312 297.284179688 585.200195312 c 2,21,-1
 135.645507812 585.200195312 l 1,22,-1
 135.645507812 379.049804688 l 1,23,-1
 302.969726562 379.049804688 l 2,15,16
308.655273438 78.849609375 m 2,24,25
 356.577148438 78.849609375 356.577148438 78.849609375 381.756835938 103.549804688 c 128,-1,26
 406.9375 128.25 406.9375 128.25 406.9375 188.099609375 c 256,27,28
 406.9375 247.950195312 406.9375 247.950195312 380.540039062 273.599609375 c 128,-1,29
 354.141601562 299.25 354.141601562 299.25 301.344726562 299.25 c 2,30,-1
 135.645507812 299.25 l 1,31,-1
 135.645507812 78.849609375 l 1,32,-1
 308.655273438 78.849609375 l 2,24,25
EndSplineSet
EndChar

StartChar: C
Encoding: 67 67 31
Width: 576
VWidth: 949
GlyphClass: 2
Flags: W
LayerCount: 2
Fore
SplineSet
181.131835938 28.5 m 128,-1,1
 112.90234375 71.25 112.90234375 71.25 74.7275390625 149.625 c 128,-1,2
 36.55078125 228 36.55078125 228 36.55078125 331.549804688 c 256,3,4
 36.55078125 435.099609375 36.55078125 435.099609375 74.7275390625 513.950195312 c 128,-1,5
 112.90234375 592.799804688 112.90234375 592.799804688 181.131835938 635.549804688 c 128,-1,6
 249.360351562 678.299804688 249.360351562 678.299804688 337.083984375 678.299804688 c 0,7,8
 454.046875 678.299804688 454.046875 678.299804688 532.836914062 608.950195312 c 1,9,-1
 532.836914062 515.849609375 l 1,10,11
 462.169921875 589 462.169921875 589 344.393554688 589 c 0,12,13
 278.602539062 589 278.602539062 589 227.836914062 557.650390625 c 128,-1,14
 177.071289062 526.299804688 177.071289062 526.299804688 148.641601562 467.875 c 128,-1,15
 120.212890625 409.450195312 120.212890625 409.450195312 120.212890625 331.549804688 c 256,16,17
 120.212890625 253.650390625 120.212890625 253.650390625 149.047851562 194.75 c 128,-1,18
 177.881835938 135.849609375 177.881835938 135.849609375 228.647460938 104.5 c 128,-1,19
 279.413085938 73.150390625 279.413085938 73.150390625 344.393554688 73.150390625 c 0,20,21
 404.500976562 73.150390625 404.500976562 73.150390625 452.016601562 91.6748046875 c 128,-1,22
 499.534179688 110.200195312 499.534179688 110.200195312 540.146484375 151.049804688 c 1,23,-1
 540.146484375 57 l 1,24,25
 467.043945312 -14.25 467.043945312 -14.25 337.083984375 -14.25 c 0,26,0
 249.360351562 -14.25 249.360351562 -14.25 181.131835938 28.5 c 128,-1,1
EndSplineSet
EndChar

StartChar: Cacute
Encoding: 262 262 32
Width: 576
VWidth: 949
GlyphClass: 2
Flags: W
LayerCount: 2
Fore
SplineSet
353.328125 867.349609375 m 1,0,-1
 440.239257812 867.349609375 l 1,1,-1
 372.822265625 703.950195312 l 1,2,-1
 298.095703125 703.950195312 l 1,3,-1
 353.328125 867.349609375 l 1,0,-1
181.131835938 28.5 m 128,-1,5
 112.90234375 71.25 112.90234375 71.25 74.7275390625 149.625 c 128,-1,6
 36.55078125 228 36.55078125 228 36.55078125 331.549804688 c 256,7,8
 36.55078125 435.099609375 36.55078125 435.099609375 74.7275390625 513.950195312 c 128,-1,9
 112.90234375 592.799804688 112.90234375 592.799804688 181.131835938 635.549804688 c 128,-1,10
 249.360351562 678.299804688 249.360351562 678.299804688 337.083984375 678.299804688 c 0,11,12
 454.046875 678.299804688 454.046875 678.299804688 532.836914062 608.950195312 c 1,13,-1
 532.836914062 515.849609375 l 1,14,15
 462.169921875 589 462.169921875 589 344.393554688 589 c 0,16,17
 278.602539062 589 278.602539062 589 227.836914062 557.650390625 c 128,-1,18
 177.071289062 526.299804688 177.071289062 526.299804688 148.641601562 467.875 c 128,-1,19
 120.212890625 409.450195312 120.212890625 409.450195312 120.212890625 331.549804688 c 256,20,21
 120.212890625 253.650390625 120.212890625 253.650390625 149.047851562 194.75 c 128,-1,22
 177.881835938 135.849609375 177.881835938 135.849609375 228.647460938 104.5 c 128,-1,23
 279.413085938 73.150390625 279.413085938 73.150390625 344.393554688 73.150390625 c 0,24,25
 404.500976562 73.150390625 404.500976562 73.150390625 452.016601562 91.6748046875 c 128,-1,26
 499.534179688 110.200195312 499.534179688 110.200195312 540.146484375 151.049804688 c 1,27,-1
 540.146484375 57 l 1,28,29
 467.043945312 -14.25 467.043945312 -14.25 337.083984375 -14.25 c 0,30,4
 249.360351562 -14.25 249.360351562 -14.25 181.131835938 28.5 c 128,-1,5
EndSplineSet
EndChar

StartChar: Ccaron
Encoding: 268 268 33
Width: 576
VWidth: 949
GlyphClass: 2
Flags: W
LayerCount: 2
Fore
SplineSet
182.755859375 862.599609375 m 1,0,-1
 266.41796875 862.599609375 l 1,1,-1
 334.646484375 760.950195312 l 1,2,-1
 402.875976562 862.599609375 l 1,3,-1
 485.725585938 862.599609375 l 1,4,-1
 370.38671875 704.900390625 l 1,5,-1
 298.095703125 704.900390625 l 1,6,-1
 182.755859375 862.599609375 l 1,0,-1
181.131835938 28.5 m 128,-1,8
 112.90234375 71.25 112.90234375 71.25 74.7275390625 149.625 c 128,-1,9
 36.55078125 228 36.55078125 228 36.55078125 331.549804688 c 256,10,11
 36.55078125 435.099609375 36.55078125 435.099609375 74.7275390625 513.950195312 c 128,-1,12
 112.90234375 592.799804688 112.90234375 592.799804688 181.131835938 635.549804688 c 128,-1,13
 249.360351562 678.299804688 249.360351562 678.299804688 337.083984375 678.299804688 c 0,14,15
 454.046875 678.299804688 454.046875 678.299804688 532.836914062 608.950195312 c 1,16,-1
 532.836914062 515.849609375 l 1,17,18
 462.169921875 589 462.169921875 589 344.393554688 589 c 0,19,20
 278.602539062 589 278.602539062 589 227.836914062 557.650390625 c 128,-1,21
 177.071289062 526.299804688 177.071289062 526.299804688 148.641601562 467.875 c 128,-1,22
 120.212890625 409.450195312 120.212890625 409.450195312 120.212890625 331.549804688 c 256,23,24
 120.212890625 253.650390625 120.212890625 253.650390625 149.047851562 194.75 c 128,-1,25
 177.881835938 135.849609375 177.881835938 135.849609375 228.647460938 104.5 c 128,-1,26
 279.413085938 73.150390625 279.413085938 73.150390625 344.393554688 73.150390625 c 0,27,28
 404.500976562 73.150390625 404.500976562 73.150390625 452.016601562 91.6748046875 c 128,-1,29
 499.534179688 110.200195312 499.534179688 110.200195312 540.146484375 151.049804688 c 1,30,-1
 540.146484375 57 l 1,31,32
 467.043945312 -14.25 467.043945312 -14.25 337.083984375 -14.25 c 0,33,7
 249.360351562 -14.25 249.360351562 -14.25 181.131835938 28.5 c 128,-1,8
EndSplineSet
EndChar

StartChar: Ccedilla
Encoding: 199 199 34
Width: 576
VWidth: 949
GlyphClass: 2
Flags: W
LayerCount: 2
Fore
SplineSet
380.944335938 -12.349609375 m 1,1,-1
 367.13671875 -53.2001953125 l 1,2,3
 403.6875 -58.900390625 403.6875 -58.900390625 422.369140625 -82.1748046875 c 128,-1,4
 441.052734375 -105.450195312 441.052734375 -105.450195312 441.052734375 -143.450195312 c 0,5,6
 441.052734375 -185.25 441.052734375 -185.25 411.810546875 -210.424804688 c 128,-1,7
 382.5703125 -235.599609375 382.5703125 -235.599609375 332.209960938 -235.599609375 c 0,8,9
 287.536132812 -235.599609375 287.536132812 -235.599609375 265.60546875 -225.150390625 c 1,10,-1
 266.41796875 -170.049804688 l 1,11,12
 274.541015625 -174.799804688 274.541015625 -174.799804688 287.942382812 -177.650390625 c 128,-1,13
 301.344726562 -180.5 301.344726562 -180.5 312.715820312 -180.5 c 0,14,15
 364.700195312 -180.5 364.700195312 -180.5 364.700195312 -136.799804688 c 0,16,17
 364.700195312 -84.5498046875 364.700195312 -84.5498046875 282.663085938 -84.5498046875 c 1,18,-1
 306.217773438 -12.349609375 l 1,19,20
 226.6171875 -5.7001953125 226.6171875 -5.7001953125 165.293945312 38.474609375 c 128,-1,21
 103.96875 82.650390625 103.96875 82.650390625 70.2587890625 158.174804688 c 128,-1,22
 36.55078125 233.700195312 36.55078125 233.700195312 36.55078125 331.549804688 c 0,23,24
 36.55078125 435.099609375 36.55078125 435.099609375 74.7275390625 513.950195312 c 128,-1,25
 112.90234375 592.799804688 112.90234375 592.799804688 181.131835938 635.549804688 c 128,-1,26
 249.360351562 678.299804688 249.360351562 678.299804688 337.083984375 678.299804688 c 0,27,28
 454.046875 678.299804688 454.046875 678.299804688 532.836914062 608.950195312 c 1,29,-1
 532.836914062 515.849609375 l 1,30,31
 462.169921875 589 462.169921875 589 344.393554688 589 c 0,32,33
 278.602539062 589 278.602539062 589 227.836914062 557.650390625 c 128,-1,34
 177.071289062 526.299804688 177.071289062 526.299804688 148.641601562 467.875 c 128,-1,35
 120.212890625 409.450195312 120.212890625 409.450195312 120.212890625 331.549804688 c 256,36,37
 120.212890625 253.650390625 120.212890625 253.650390625 149.047851562 194.75 c 128,-1,38
 177.881835938 135.849609375 177.881835938 135.849609375 228.647460938 104.5 c 128,-1,39
 279.413085938 73.150390625 279.413085938 73.150390625 344.393554688 73.150390625 c 0,40,41
 404.500976562 73.150390625 404.500976562 73.150390625 452.016601562 91.6748046875 c 128,-1,42
 499.534179688 110.200195312 499.534179688 110.200195312 540.146484375 151.049804688 c 1,43,-1
 540.146484375 57 l 1,44,0
 479.227539062 -1.900390625 479.227539062 -1.900390625 380.944335938 -12.349609375 c 1,1,-1
EndSplineSet
EndChar

StartChar: Ccircumflex
Encoding: 264 264 35
Width: 576
VWidth: 949
GlyphClass: 2
Flags: W
LayerCount: 2
Fore
SplineSet
294.034179688 861.650390625 m 1,0,-1
 366.325195312 861.650390625 l 1,1,-1
 481.665039062 703.950195312 l 1,2,-1
 398.815429688 703.950195312 l 1,3,-1
 330.584960938 805.599609375 l 1,4,-1
 262.356445312 703.950195312 l 1,5,-1
 178.694335938 703.950195312 l 1,6,-1
 294.034179688 861.650390625 l 1,0,-1
181.131835938 28.5 m 128,-1,8
 112.90234375 71.25 112.90234375 71.25 74.7275390625 149.625 c 128,-1,9
 36.55078125 228 36.55078125 228 36.55078125 331.549804688 c 256,10,11
 36.55078125 435.099609375 36.55078125 435.099609375 74.7275390625 513.950195312 c 128,-1,12
 112.90234375 592.799804688 112.90234375 592.799804688 181.131835938 635.549804688 c 128,-1,13
 249.360351562 678.299804688 249.360351562 678.299804688 337.083984375 678.299804688 c 0,14,15
 454.046875 678.299804688 454.046875 678.299804688 532.836914062 608.950195312 c 1,16,-1
 532.836914062 515.849609375 l 1,17,18
 462.169921875 589 462.169921875 589 344.393554688 589 c 0,19,20
 278.602539062 589 278.602539062 589 227.836914062 557.650390625 c 128,-1,21
 177.071289062 526.299804688 177.071289062 526.299804688 148.641601562 467.875 c 128,-1,22
 120.212890625 409.450195312 120.212890625 409.450195312 120.212890625 331.549804688 c 256,23,24
 120.212890625 253.650390625 120.212890625 253.650390625 149.047851562 194.75 c 128,-1,25
 177.881835938 135.849609375 177.881835938 135.849609375 228.647460938 104.5 c 128,-1,26
 279.413085938 73.150390625 279.413085938 73.150390625 344.393554688 73.150390625 c 0,27,28
 404.500976562 73.150390625 404.500976562 73.150390625 452.016601562 91.6748046875 c 128,-1,29
 499.534179688 110.200195312 499.534179688 110.200195312 540.146484375 151.049804688 c 1,30,-1
 540.146484375 57 l 1,31,32
 467.043945312 -14.25 467.043945312 -14.25 337.083984375 -14.25 c 0,33,7
 249.360351562 -14.25 249.360351562 -14.25 181.131835938 28.5 c 128,-1,8
EndSplineSet
EndChar

StartChar: Cdotaccent
Encoding: 266 266 36
Width: 576
VWidth: 949
GlyphClass: 2
Flags: W
LayerCount: 2
Fore
SplineSet
296.877929688 720.099609375 m 128,-1,1
 282.663085938 736.25 282.663085938 736.25 282.663085938 759.049804688 c 256,2,3
 282.663085938 781.849609375 282.663085938 781.849609375 296.877929688 798 c 128,-1,4
 311.091796875 814.150390625 311.091796875 814.150390625 330.584960938 814.150390625 c 0,5,6
 349.267578125 814.150390625 349.267578125 814.150390625 363.075195312 798 c 128,-1,7
 376.883789062 781.849609375 376.883789062 781.849609375 376.883789062 759.049804688 c 256,8,9
 376.883789062 736.25 376.883789062 736.25 363.075195312 720.099609375 c 128,-1,10
 349.267578125 703.950195312 349.267578125 703.950195312 330.584960938 703.950195312 c 0,11,0
 311.091796875 703.950195312 311.091796875 703.950195312 296.877929688 720.099609375 c 128,-1,1
181.131835938 28.5 m 128,-1,13
 112.90234375 71.25 112.90234375 71.25 74.7275390625 149.625 c 128,-1,14
 36.55078125 228 36.55078125 228 36.55078125 331.549804688 c 256,15,16
 36.55078125 435.099609375 36.55078125 435.099609375 74.7275390625 513.950195312 c 128,-1,17
 112.90234375 592.799804688 112.90234375 592.799804688 181.131835938 635.549804688 c 128,-1,18
 249.360351562 678.299804688 249.360351562 678.299804688 337.083984375 678.299804688 c 0,19,20
 454.046875 678.299804688 454.046875 678.299804688 532.836914062 608.950195312 c 1,21,-1
 532.836914062 515.849609375 l 1,22,23
 462.169921875 589 462.169921875 589 344.393554688 589 c 0,24,25
 278.602539062 589 278.602539062 589 227.836914062 557.650390625 c 128,-1,26
 177.071289062 526.299804688 177.071289062 526.299804688 148.641601562 467.875 c 128,-1,27
 120.212890625 409.450195312 120.212890625 409.450195312 120.212890625 331.549804688 c 256,28,29
 120.212890625 253.650390625 120.212890625 253.650390625 149.047851562 194.75 c 128,-1,30
 177.881835938 135.849609375 177.881835938 135.849609375 228.647460938 104.5 c 128,-1,31
 279.413085938 73.150390625 279.413085938 73.150390625 344.393554688 73.150390625 c 0,32,33
 404.500976562 73.150390625 404.500976562 73.150390625 452.016601562 91.6748046875 c 128,-1,34
 499.534179688 110.200195312 499.534179688 110.200195312 540.146484375 151.049804688 c 1,35,-1
 540.146484375 57 l 1,36,37
 467.043945312 -14.25 467.043945312 -14.25 337.083984375 -14.25 c 0,38,12
 249.360351562 -14.25 249.360351562 -14.25 181.131835938 28.5 c 128,-1,13
EndSplineSet
EndChar

StartChar: D
Encoding: 68 68 37
Width: 570
VWidth: 949
GlyphClass: 2
Flags: W
LayerCount: 2
Fore
SplineSet
52.796875 664.049804688 m 1,0,-1
 235.552734375 664.049804688 l 2,1,2
 327.336914062 664.049804688 327.336914062 664.049804688 394.75390625 624.150390625 c 128,-1,3
 462.169921875 584.25 462.169921875 584.25 498.315429688 510.150390625 c 128,-1,4
 534.459960938 436.049804688 534.459960938 436.049804688 534.459960938 335.349609375 c 0,5,6
 534.459960938 170.049804688 534.459960938 170.049804688 452.829101562 85.025390625 c 128,-1,7
 371.197265625 0 371.197265625 0 224.181640625 0 c 2,8,-1
 52.796875 0 l 1,9,-1
 52.796875 664.049804688 l 1,0,-1
223.369140625 80.75 m 2,10,11
 337.083984375 80.75 337.083984375 80.75 393.94140625 146.299804688 c 128,-1,12
 450.798828125 211.849609375 450.798828125 211.849609375 450.798828125 335.349609375 c 0,13,14
 450.798828125 449.349609375 450.798828125 449.349609375 395.159179688 515.849609375 c 128,-1,15
 339.521484375 582.349609375 339.521484375 582.349609375 236.365234375 582.349609375 c 2,16,-1
 135.645507812 582.349609375 l 1,17,-1
 135.645507812 80.75 l 1,18,-1
 223.369140625 80.75 l 2,10,11
EndSplineSet
EndChar

StartChar: Eth
Encoding: 208 208 38
Width: 589
VWidth: 949
GlyphClass: 2
Flags: W
LayerCount: 2
Fore
SplineSet
72.2900390625 294.5 m 1,0,-1
 20.306640625 294.5 l 1,1,-1
 20.306640625 368.599609375 l 1,2,-1
 72.2900390625 368.599609375 l 1,3,-1
 72.2900390625 664.049804688 l 1,4,-1
 255.045898438 664.049804688 l 2,5,6
 346.831054688 664.049804688 346.831054688 664.049804688 414.247070312 624.150390625 c 128,-1,7
 481.665039062 584.25 481.665039062 584.25 517.809570312 510.150390625 c 128,-1,8
 553.954101562 436.049804688 553.954101562 436.049804688 553.954101562 335.349609375 c 0,9,10
 553.954101562 170.049804688 553.954101562 170.049804688 472.322265625 85.025390625 c 128,-1,11
 390.693359375 0 390.693359375 0 243.674804688 0 c 2,12,-1
 72.2900390625 0 l 1,13,-1
 72.2900390625 294.5 l 1,0,-1
242.862304688 83.599609375 m 2,14,15
 354.953125 83.599609375 354.953125 83.599609375 412.623046875 148.674804688 c 128,-1,16
 470.29296875 213.75 470.29296875 213.75 470.29296875 335.349609375 c 0,17,18
 470.29296875 448.400390625 470.29296875 448.400390625 413.434570312 514.424804688 c 128,-1,19
 356.577148438 580.450195312 356.577148438 580.450195312 255.859375 580.450195312 c 2,20,-1
 155.952148438 580.450195312 l 1,21,-1
 155.952148438 368.599609375 l 1,22,-1
 305.40625 368.599609375 l 1,23,-1
 305.40625 294.5 l 1,24,-1
 155.952148438 294.5 l 1,25,-1
 155.952148438 83.599609375 l 1,26,-1
 242.862304688 83.599609375 l 2,14,15
EndSplineSet
EndChar

StartChar: Dcaron
Encoding: 270 270 39
Width: 570
VWidth: 949
GlyphClass: 2
Flags: W
LayerCount: 2
Fore
SplineSet
107.216796875 862.599609375 m 1,0,-1
 190.87890625 862.599609375 l 1,1,-1
 259.107421875 760.950195312 l 1,2,-1
 327.336914062 862.599609375 l 1,3,-1
 410.186523438 862.599609375 l 1,4,-1
 294.846679688 704.900390625 l 1,5,-1
 222.555664062 704.900390625 l 1,6,-1
 107.216796875 862.599609375 l 1,0,-1
52.796875 664.049804688 m 1,7,-1
 235.552734375 664.049804688 l 2,8,9
 327.336914062 664.049804688 327.336914062 664.049804688 394.75390625 624.150390625 c 128,-1,10
 462.169921875 584.25 462.169921875 584.25 498.315429688 510.150390625 c 128,-1,11
 534.459960938 436.049804688 534.459960938 436.049804688 534.459960938 335.349609375 c 0,12,13
 534.459960938 170.049804688 534.459960938 170.049804688 452.829101562 85.025390625 c 128,-1,14
 371.197265625 0 371.197265625 0 224.181640625 0 c 2,15,-1
 52.796875 0 l 1,16,-1
 52.796875 664.049804688 l 1,7,-1
223.369140625 80.75 m 2,17,18
 337.083984375 80.75 337.083984375 80.75 393.94140625 146.299804688 c 128,-1,19
 450.798828125 211.849609375 450.798828125 211.849609375 450.798828125 335.349609375 c 0,20,21
 450.798828125 449.349609375 450.798828125 449.349609375 395.159179688 515.849609375 c 128,-1,22
 339.521484375 582.349609375 339.521484375 582.349609375 236.365234375 582.349609375 c 2,23,-1
 135.645507812 582.349609375 l 1,24,-1
 135.645507812 80.75 l 1,25,-1
 223.369140625 80.75 l 2,17,18
EndSplineSet
EndChar

StartChar: Dcroat
Encoding: 272 272 40
Width: 589
VWidth: 949
GlyphClass: 2
Flags: W
LayerCount: 2
Fore
SplineSet
72.2900390625 294.5 m 1,0,-1
 20.306640625 294.5 l 1,1,-1
 20.306640625 368.599609375 l 1,2,-1
 72.2900390625 368.599609375 l 1,3,-1
 72.2900390625 664.049804688 l 1,4,-1
 255.045898438 664.049804688 l 2,5,6
 346.831054688 664.049804688 346.831054688 664.049804688 414.247070312 624.150390625 c 128,-1,7
 481.665039062 584.25 481.665039062 584.25 517.809570312 510.150390625 c 128,-1,8
 553.954101562 436.049804688 553.954101562 436.049804688 553.954101562 335.349609375 c 0,9,10
 553.954101562 170.049804688 553.954101562 170.049804688 472.322265625 85.025390625 c 128,-1,11
 390.693359375 0 390.693359375 0 243.674804688 0 c 2,12,-1
 72.2900390625 0 l 1,13,-1
 72.2900390625 294.5 l 1,0,-1
242.862304688 83.599609375 m 2,14,15
 354.953125 83.599609375 354.953125 83.599609375 412.623046875 148.674804688 c 128,-1,16
 470.29296875 213.75 470.29296875 213.75 470.29296875 335.349609375 c 0,17,18
 470.29296875 448.400390625 470.29296875 448.400390625 413.434570312 514.424804688 c 128,-1,19
 356.577148438 580.450195312 356.577148438 580.450195312 255.859375 580.450195312 c 2,20,-1
 155.952148438 580.450195312 l 1,21,-1
 155.952148438 368.599609375 l 1,22,-1
 305.40625 368.599609375 l 1,23,-1
 305.40625 294.5 l 1,24,-1
 155.952148438 294.5 l 1,25,-1
 155.952148438 83.599609375 l 1,26,-1
 242.862304688 83.599609375 l 2,14,15
EndSplineSet
EndChar

StartChar: uni1E0C
Encoding: 7692 7692 41
Width: 570
VWidth: 949
GlyphClass: 2
Flags: W
LayerCount: 2
Fore
SplineSet
52.796875 664.049804688 m 1,0,-1
 235.552734375 664.049804688 l 2,1,2
 327.336914062 664.049804688 327.336914062 664.049804688 394.75390625 624.150390625 c 128,-1,3
 462.169921875 584.25 462.169921875 584.25 498.315429688 510.150390625 c 128,-1,4
 534.459960938 436.049804688 534.459960938 436.049804688 534.459960938 335.349609375 c 0,5,6
 534.459960938 170.049804688 534.459960938 170.049804688 452.829101562 85.025390625 c 128,-1,7
 371.197265625 0 371.197265625 0 224.181640625 0 c 2,8,-1
 52.796875 0 l 1,9,-1
 52.796875 664.049804688 l 1,0,-1
223.369140625 80.75 m 2,10,11
 337.083984375 80.75 337.083984375 80.75 393.94140625 146.299804688 c 128,-1,12
 450.798828125 211.849609375 450.798828125 211.849609375 450.798828125 335.349609375 c 0,13,14
 450.798828125 449.349609375 450.798828125 449.349609375 395.159179688 515.849609375 c 128,-1,15
 339.521484375 582.349609375 339.521484375 582.349609375 236.365234375 582.349609375 c 2,16,-1
 135.645507812 582.349609375 l 1,17,-1
 135.645507812 80.75 l 1,18,-1
 223.369140625 80.75 l 2,10,11
190.47265625 -141.549804688 m 128,-1,20
 176.258789062 -125.400390625 176.258789062 -125.400390625 176.258789062 -102.599609375 c 256,21,22
 176.258789062 -79.7998046875 176.258789062 -79.7998046875 190.47265625 -63.650390625 c 128,-1,23
 204.686523438 -47.5 204.686523438 -47.5 224.181640625 -47.5 c 0,24,25
 242.862304688 -47.5 242.862304688 -47.5 256.671875 -63.650390625 c 128,-1,26
 270.479492188 -79.7998046875 270.479492188 -79.7998046875 270.479492188 -102.599609375 c 256,27,28
 270.479492188 -125.400390625 270.479492188 -125.400390625 256.671875 -141.549804688 c 128,-1,29
 242.862304688 -157.700195312 242.862304688 -157.700195312 224.181640625 -157.700195312 c 0,30,19
 204.686523438 -157.700195312 204.686523438 -157.700195312 190.47265625 -141.549804688 c 128,-1,20
EndSplineSet
EndChar

StartChar: uni1E0E
Encoding: 7694 7694 42
Width: 570
VWidth: 949
GlyphClass: 2
Flags: W
LayerCount: 2
Fore
SplineSet
52.796875 664.049804688 m 1,0,-1
 235.552734375 664.049804688 l 2,1,2
 327.336914062 664.049804688 327.336914062 664.049804688 394.75390625 624.150390625 c 128,-1,3
 462.169921875 584.25 462.169921875 584.25 498.315429688 510.150390625 c 128,-1,4
 534.459960938 436.049804688 534.459960938 436.049804688 534.459960938 335.349609375 c 0,5,6
 534.459960938 170.049804688 534.459960938 170.049804688 452.829101562 85.025390625 c 128,-1,7
 371.197265625 0 371.197265625 0 224.181640625 0 c 2,8,-1
 52.796875 0 l 1,9,-1
 52.796875 664.049804688 l 1,0,-1
223.369140625 80.75 m 2,10,11
 337.083984375 80.75 337.083984375 80.75 393.94140625 146.299804688 c 128,-1,12
 450.798828125 211.849609375 450.798828125 211.849609375 450.798828125 335.349609375 c 0,13,14
 450.798828125 449.349609375 450.798828125 449.349609375 395.159179688 515.849609375 c 128,-1,15
 339.521484375 582.349609375 339.521484375 582.349609375 236.365234375 582.349609375 c 2,16,-1
 135.645507812 582.349609375 l 1,17,-1
 135.645507812 80.75 l 1,18,-1
 223.369140625 80.75 l 2,10,11
102.34375 -67.4501953125 m 1,19,-1
 357.390625 -67.4501953125 l 1,20,-1
 357.390625 -133.950195312 l 1,21,-1
 102.34375 -133.950195312 l 1,22,-1
 102.34375 -67.4501953125 l 1,19,-1
EndSplineSet
EndChar

StartChar: E
Encoding: 69 69 43
Width: 458
VWidth: 949
GlyphClass: 2
Flags: W
LayerCount: 2
Fore
SplineSet
52.796875 664.049804688 m 1,0,-1
 427.244140625 664.049804688 l 1,1,-1
 427.244140625 582.349609375 l 1,2,-1
 135.645507812 582.349609375 l 1,3,-1
 135.645507812 372.400390625 l 1,4,-1
 353.328125 372.400390625 l 1,5,-1
 353.328125 291.650390625 l 1,6,-1
 135.645507812 291.650390625 l 1,7,-1
 135.645507812 80.75 l 1,8,-1
 427.244140625 80.75 l 1,9,-1
 427.244140625 0 l 1,10,-1
 52.796875 0 l 1,11,-1
 52.796875 664.049804688 l 1,0,-1
EndSplineSet
EndChar

StartChar: Eacute
Encoding: 201 201 44
Width: 458
VWidth: 949
GlyphClass: 2
Flags: W
LayerCount: 2
Fore
SplineSet
244.487304688 867.349609375 m 1,0,-1
 331.397460938 867.349609375 l 1,1,-1
 263.981445312 703.950195312 l 1,2,-1
 189.25390625 703.950195312 l 1,3,-1
 244.487304688 867.349609375 l 1,0,-1
52.796875 664.049804688 m 1,4,-1
 427.244140625 664.049804688 l 1,5,-1
 427.244140625 582.349609375 l 1,6,-1
 135.645507812 582.349609375 l 1,7,-1
 135.645507812 372.400390625 l 1,8,-1
 353.328125 372.400390625 l 1,9,-1
 353.328125 291.650390625 l 1,10,-1
 135.645507812 291.650390625 l 1,11,-1
 135.645507812 80.75 l 1,12,-1
 427.244140625 80.75 l 1,13,-1
 427.244140625 0 l 1,14,-1
 52.796875 0 l 1,15,-1
 52.796875 664.049804688 l 1,4,-1
EndSplineSet
EndChar

StartChar: Ebreve
Encoding: 276 276 45
Width: 462
VWidth: 949
GlyphClass: 2
Flags: W
LayerCount: 2
Fore
SplineSet
156.358398438 741.950195312 m 128,-1,1
 123.461914062 779 123.461914062 779 123.461914062 837.900390625 c 1,2,-1
 186.818359375 837.900390625 l 1,3,4
 186.818359375 805.599609375 186.818359375 805.599609375 202.25 788.025390625 c 128,-1,5
 217.68359375 770.450195312 217.68359375 770.450195312 246.112304688 770.450195312 c 256,6,7
 274.541015625 770.450195312 274.541015625 770.450195312 289.97265625 788.025390625 c 128,-1,8
 305.40625 805.599609375 305.40625 805.599609375 305.40625 837.900390625 c 1,9,-1
 367.94921875 837.900390625 l 1,10,11
 367.94921875 779 367.94921875 779 335.052734375 741.950195312 c 128,-1,12
 302.15625 704.900390625 302.15625 704.900390625 246.112304688 704.900390625 c 0,13,0
 189.25390625 704.900390625 189.25390625 704.900390625 156.358398438 741.950195312 c 128,-1,1
52.796875 664.049804688 m 1,14,-1
 427.244140625 664.049804688 l 1,15,-1
 427.244140625 582.349609375 l 1,16,-1
 135.645507812 582.349609375 l 1,17,-1
 135.645507812 372.400390625 l 1,18,-1
 353.328125 372.400390625 l 1,19,-1
 353.328125 291.650390625 l 1,20,-1
 135.645507812 291.650390625 l 1,21,-1
 135.645507812 80.75 l 1,22,-1
 427.244140625 80.75 l 1,23,-1
 427.244140625 0 l 1,24,-1
 52.796875 0 l 1,25,-1
 52.796875 664.049804688 l 1,14,-1
EndSplineSet
EndChar

StartChar: Ecaron
Encoding: 282 282 46
Width: 462
VWidth: 949
GlyphClass: 2
Flags: W
LayerCount: 2
Fore
SplineSet
95.033203125 862.599609375 m 1,0,-1
 178.694335938 862.599609375 l 1,1,-1
 246.923828125 760.950195312 l 1,2,-1
 315.153320312 862.599609375 l 1,3,-1
 398.002929688 862.599609375 l 1,4,-1
 282.663085938 704.900390625 l 1,5,-1
 210.372070312 704.900390625 l 1,6,-1
 95.033203125 862.599609375 l 1,0,-1
52.796875 664.049804688 m 1,7,-1
 427.244140625 664.049804688 l 1,8,-1
 427.244140625 582.349609375 l 1,9,-1
 135.645507812 582.349609375 l 1,10,-1
 135.645507812 372.400390625 l 1,11,-1
 353.328125 372.400390625 l 1,12,-1
 353.328125 291.650390625 l 1,13,-1
 135.645507812 291.650390625 l 1,14,-1
 135.645507812 80.75 l 1,15,-1
 427.244140625 80.75 l 1,16,-1
 427.244140625 0 l 1,17,-1
 52.796875 0 l 1,18,-1
 52.796875 664.049804688 l 1,7,-1
EndSplineSet
EndChar

StartChar: Ecircumflex
Encoding: 202 202 47
Width: 462
VWidth: 949
GlyphClass: 2
Flags: W
LayerCount: 2
Fore
SplineSet
191.69140625 867.349609375 m 1,0,-1
 263.981445312 867.349609375 l 1,1,-1
 379.321289062 709.650390625 l 1,2,-1
 296.471679688 709.650390625 l 1,3,-1
 228.243164062 811.299804688 l 1,4,-1
 160.012695312 709.650390625 l 1,5,-1
 76.3505859375 709.650390625 l 1,6,-1
 191.69140625 867.349609375 l 1,0,-1
52.796875 664.049804688 m 1,7,-1
 427.244140625 664.049804688 l 1,8,-1
 427.244140625 582.349609375 l 1,9,-1
 135.645507812 582.349609375 l 1,10,-1
 135.645507812 372.400390625 l 1,11,-1
 353.328125 372.400390625 l 1,12,-1
 353.328125 291.650390625 l 1,13,-1
 135.645507812 291.650390625 l 1,14,-1
 135.645507812 80.75 l 1,15,-1
 427.244140625 80.75 l 1,16,-1
 427.244140625 0 l 1,17,-1
 52.796875 0 l 1,18,-1
 52.796875 664.049804688 l 1,7,-1
EndSplineSet
EndChar

StartChar: uni1EBE
Encoding: 7870 7870 48
Width: 460
VWidth: 949
GlyphClass: 2
Flags: W
LayerCount: 2
Fore
SplineSet
367.13671875 917.700195312 m 1,0,-1
 441.052734375 917.700195312 l 1,1,-1
 376.883789062 799.900390625 l 1,2,-1
 313.528320312 799.900390625 l 1,3,-1
 367.13671875 917.700195312 l 1,0,-1
188.44140625 841.700195312 m 1,4,-1
 258.295898438 841.700195312 l 1,5,-1
 370.38671875 703.950195312 l 1,6,-1
 289.97265625 703.950195312 l 1,7,-1
 223.369140625 789.450195312 l 1,8,-1
 156.764648438 703.950195312 l 1,9,-1
 76.3505859375 703.950195312 l 1,10,-1
 188.44140625 841.700195312 l 1,4,-1
52.796875 664.049804688 m 1,11,-1
 427.244140625 664.049804688 l 1,12,-1
 427.244140625 582.349609375 l 1,13,-1
 135.645507812 582.349609375 l 1,14,-1
 135.645507812 372.400390625 l 1,15,-1
 353.328125 372.400390625 l 1,16,-1
 353.328125 291.650390625 l 1,17,-1
 135.645507812 291.650390625 l 1,18,-1
 135.645507812 80.75 l 1,19,-1
 427.244140625 80.75 l 1,20,-1
 427.244140625 0 l 1,21,-1
 52.796875 0 l 1,22,-1
 52.796875 664.049804688 l 1,11,-1
EndSplineSet
EndChar

StartChar: uni1EC6
Encoding: 7878 7878 49
Width: 462
VWidth: 949
GlyphClass: 2
Flags: W
LayerCount: 2
Fore
SplineSet
194.127929688 872.099609375 m 1,0,-1
 266.41796875 872.099609375 l 1,1,-1
 381.756835938 714.400390625 l 1,2,-1
 298.908203125 714.400390625 l 1,3,-1
 230.678710938 816.049804688 l 1,4,-1
 162.450195312 714.400390625 l 1,5,-1
 78.7880859375 714.400390625 l 1,6,-1
 194.127929688 872.099609375 l 1,0,-1
52.796875 664.049804688 m 1,7,-1
 427.244140625 664.049804688 l 1,8,-1
 427.244140625 582.349609375 l 1,9,-1
 135.645507812 582.349609375 l 1,10,-1
 135.645507812 372.400390625 l 1,11,-1
 353.328125 372.400390625 l 1,12,-1
 353.328125 291.650390625 l 1,13,-1
 135.645507812 291.650390625 l 1,14,-1
 135.645507812 80.75 l 1,15,-1
 427.244140625 80.75 l 1,16,-1
 427.244140625 0 l 1,17,-1
 52.796875 0 l 1,18,-1
 52.796875 664.049804688 l 1,7,-1
196.970703125 -141.549804688 m 128,-1,20
 182.755859375 -125.400390625 182.755859375 -125.400390625 182.755859375 -102.599609375 c 256,21,22
 182.755859375 -79.7998046875 182.755859375 -79.7998046875 196.970703125 -63.650390625 c 128,-1,23
 211.184570312 -47.5 211.184570312 -47.5 230.678710938 -47.5 c 0,24,25
 249.360351562 -47.5 249.360351562 -47.5 263.168945312 -63.650390625 c 128,-1,26
 276.977539062 -79.7998046875 276.977539062 -79.7998046875 276.977539062 -102.599609375 c 256,27,28
 276.977539062 -125.400390625 276.977539062 -125.400390625 263.168945312 -141.549804688 c 128,-1,29
 249.360351562 -157.700195312 249.360351562 -157.700195312 230.678710938 -157.700195312 c 0,30,19
 211.184570312 -157.700195312 211.184570312 -157.700195312 196.970703125 -141.549804688 c 128,-1,20
EndSplineSet
EndChar

StartChar: uni1EC0
Encoding: 7872 7872 50
Width: 470
VWidth: 949
GlyphClass: 2
Flags: W
LayerCount: 2
Fore
SplineSet
24.3681640625 917.700195312 m 1,0,-1
 98.2822265625 917.700195312 l 1,1,-1
 151.890625 799.900390625 l 1,2,-1
 88.5341796875 799.900390625 l 1,3,-1
 24.3681640625 917.700195312 l 1,0,-1
207.124023438 841.700195312 m 1,4,-1
 276.977539062 841.700195312 l 1,5,-1
 389.067382812 703.950195312 l 1,6,-1
 308.655273438 703.950195312 l 1,7,-1
 242.05078125 789.450195312 l 1,8,-1
 175.446289062 703.950195312 l 1,9,-1
 95.033203125 703.950195312 l 1,10,-1
 207.124023438 841.700195312 l 1,4,-1
64.98046875 664.049804688 m 1,11,-1
 439.427734375 664.049804688 l 1,12,-1
 439.427734375 582.349609375 l 1,13,-1
 147.829101562 582.349609375 l 1,14,-1
 147.829101562 372.400390625 l 1,15,-1
 365.512695312 372.400390625 l 1,16,-1
 365.512695312 291.650390625 l 1,17,-1
 147.829101562 291.650390625 l 1,18,-1
 147.829101562 80.75 l 1,19,-1
 439.427734375 80.75 l 1,20,-1
 439.427734375 0 l 1,21,-1
 64.98046875 0 l 1,22,-1
 64.98046875 664.049804688 l 1,11,-1
EndSplineSet
EndChar

StartChar: uni1EC2
Encoding: 7874 7874 51
Width: 465
VWidth: 949
GlyphClass: 2
Flags: W
LayerCount: 2
Fore
SplineSet
340.33203125 838.849609375 m 1,0,1
 364.700195312 838.849609375 364.700195312 838.849609375 376.478515625 846.450195312 c 128,-1,2
 388.255859375 854.049804688 388.255859375 854.049804688 388.255859375 871.150390625 c 0,3,4
 388.255859375 885.400390625 388.255859375 885.400390625 379.727539062 892.049804688 c 128,-1,5
 371.197265625 898.700195312 371.197265625 898.700195312 353.328125 898.700195312 c 0,6,7
 331.397460938 898.700195312 331.397460938 898.700195312 318.40234375 891.099609375 c 1,8,-1
 318.40234375 931.950195312 l 1,9,10
 344.393554688 941.450195312 344.393554688 941.450195312 372.010742188 941.450195312 c 0,11,12
 406.9375 941.450195312 406.9375 941.450195312 426.431640625 923.875 c 128,-1,13
 445.924804688 906.299804688 445.924804688 906.299804688 445.924804688 876.849609375 c 0,14,15
 445.924804688 853.099609375 445.924804688 853.099609375 431.709960938 836 c 128,-1,16
 417.49609375 818.900390625 417.49609375 818.900390625 392.31640625 815.099609375 c 1,17,-1
 392.31640625 791.349609375 l 1,18,-1
 340.33203125 791.349609375 l 1,19,-1
 340.33203125 838.849609375 l 1,0,1
212.809570312 841.700195312 m 1,20,-1
 282.663085938 841.700195312 l 1,21,-1
 394.75390625 703.950195312 l 1,22,-1
 314.340820312 703.950195312 l 1,23,-1
 247.736328125 789.450195312 l 1,24,-1
 181.131835938 703.950195312 l 1,25,-1
 100.71875 703.950195312 l 1,26,-1
 212.809570312 841.700195312 l 1,20,-1
52.796875 664.049804688 m 1,27,-1
 427.244140625 664.049804688 l 1,28,-1
 427.244140625 582.349609375 l 1,29,-1
 135.645507812 582.349609375 l 1,30,-1
 135.645507812 372.400390625 l 1,31,-1
 353.328125 372.400390625 l 1,32,-1
 353.328125 291.650390625 l 1,33,-1
 135.645507812 291.650390625 l 1,34,-1
 135.645507812 80.75 l 1,35,-1
 427.244140625 80.75 l 1,36,-1
 427.244140625 0 l 1,37,-1
 52.796875 0 l 1,38,-1
 52.796875 664.049804688 l 1,27,-1
EndSplineSet
EndChar

StartChar: uni1EC4
Encoding: 7876 7876 52
Width: 462
VWidth: 949
GlyphClass: 2
Flags: W
LayerCount: 2
Fore
SplineSet
123.461914062 920.549804688 m 1,0,1
 143.768554688 954.75 143.768554688 954.75 189.25390625 954.75 c 0,2,3
 204.686523438 954.75 204.686523438 954.75 218.900390625 949.525390625 c 128,-1,4
 233.115234375 944.299804688 233.115234375 944.299804688 254.234375 933.849609375 c 0,5,6
 274.541015625 923.400390625 274.541015625 923.400390625 288.349609375 918.174804688 c 128,-1,7
 302.15625 912.950195312 302.15625 912.950195312 315.96484375 912.950195312 c 0,8,9
 356.577148438 912.950195312 356.577148438 912.950195312 381.756835938 954.75 c 1,10,-1
 381.756835938 883.5 l 1,11,12
 362.263671875 850.25 362.263671875 850.25 315.96484375 850.25 c 0,13,14
 299.719726562 850.25 299.719726562 850.25 285.100585938 855.474609375 c 128,-1,15
 270.479492188 860.700195312 270.479492188 860.700195312 247.736328125 872.099609375 c 0,16,17
 227.430664062 881.599609375 227.430664062 881.599609375 215.24609375 886.349609375 c 128,-1,18
 203.0625 891.099609375 203.0625 891.099609375 189.25390625 891.099609375 c 0,19,20
 169.759765625 891.099609375 169.759765625 891.099609375 153.920898438 881.599609375 c 128,-1,21
 138.08203125 872.099609375 138.08203125 872.099609375 123.461914062 849.299804688 c 1,22,-1
 123.461914062 920.549804688 l 1,0,1
214.43359375 841.700195312 m 1,23,-1
 284.287109375 841.700195312 l 1,24,-1
 396.377929688 703.950195312 l 1,25,-1
 315.96484375 703.950195312 l 1,26,-1
 249.360351562 789.450195312 l 1,27,-1
 182.755859375 703.950195312 l 1,28,-1
 102.34375 703.950195312 l 1,29,-1
 214.43359375 841.700195312 l 1,23,-1
52.796875 664.049804688 m 1,30,-1
 427.244140625 664.049804688 l 1,31,-1
 427.244140625 582.349609375 l 1,32,-1
 135.645507812 582.349609375 l 1,33,-1
 135.645507812 372.400390625 l 1,34,-1
 353.328125 372.400390625 l 1,35,-1
 353.328125 291.650390625 l 1,36,-1
 135.645507812 291.650390625 l 1,37,-1
 135.645507812 80.75 l 1,38,-1
 427.244140625 80.75 l 1,39,-1
 427.244140625 0 l 1,40,-1
 52.796875 0 l 1,41,-1
 52.796875 664.049804688 l 1,30,-1
EndSplineSet
EndChar

StartChar: Edieresis
Encoding: 203 203 53
Width: 462
VWidth: 949
GlyphClass: 2
Flags: W
LayerCount: 2
Fore
SplineSet
105.999023438 729.599609375 m 128,-1,1
 91.7841796875 745.75 91.7841796875 745.75 91.7841796875 768.549804688 c 256,2,3
 91.7841796875 791.349609375 91.7841796875 791.349609375 105.999023438 807.5 c 128,-1,4
 120.212890625 823.650390625 120.212890625 823.650390625 139.70703125 823.650390625 c 0,5,6
 158.388671875 823.650390625 158.388671875 823.650390625 172.197265625 807.5 c 128,-1,7
 186.004882812 791.349609375 186.004882812 791.349609375 186.004882812 768.549804688 c 256,8,9
 186.004882812 745.75 186.004882812 745.75 172.197265625 729.599609375 c 128,-1,10
 158.388671875 713.450195312 158.388671875 713.450195312 139.70703125 713.450195312 c 0,11,0
 120.212890625 713.450195312 120.212890625 713.450195312 105.999023438 729.599609375 c 128,-1,1
290.37890625 729.599609375 m 128,-1,13
 276.165039062 745.75 276.165039062 745.75 276.165039062 768.549804688 c 256,14,15
 276.165039062 791.349609375 276.165039062 791.349609375 290.37890625 807.5 c 128,-1,16
 304.59375 823.650390625 304.59375 823.650390625 324.086914062 823.650390625 c 0,17,18
 342.76953125 823.650390625 342.76953125 823.650390625 356.577148438 807.5 c 128,-1,19
 370.38671875 791.349609375 370.38671875 791.349609375 370.38671875 768.549804688 c 256,20,21
 370.38671875 745.75 370.38671875 745.75 356.577148438 729.599609375 c 128,-1,22
 342.76953125 713.450195312 342.76953125 713.450195312 324.086914062 713.450195312 c 0,23,12
 304.59375 713.450195312 304.59375 713.450195312 290.37890625 729.599609375 c 128,-1,13
52.796875 664.049804688 m 1,24,-1
 427.244140625 664.049804688 l 1,25,-1
 427.244140625 582.349609375 l 1,26,-1
 135.645507812 582.349609375 l 1,27,-1
 135.645507812 372.400390625 l 1,28,-1
 353.328125 372.400390625 l 1,29,-1
 353.328125 291.650390625 l 1,30,-1
 135.645507812 291.650390625 l 1,31,-1
 135.645507812 80.75 l 1,32,-1
 427.244140625 80.75 l 1,33,-1
 427.244140625 0 l 1,34,-1
 52.796875 0 l 1,35,-1
 52.796875 664.049804688 l 1,24,-1
EndSplineSet
EndChar

StartChar: Edotaccent
Encoding: 278 278 54
Width: 462
VWidth: 949
GlyphClass: 2
Flags: W
LayerCount: 2
Fore
SplineSet
209.154296875 719.150390625 m 128,-1,1
 194.940429688 735.299804688 194.940429688 735.299804688 194.940429688 758.099609375 c 256,2,3
 194.940429688 780.900390625 194.940429688 780.900390625 209.154296875 797.049804688 c 128,-1,4
 223.369140625 813.200195312 223.369140625 813.200195312 242.862304688 813.200195312 c 0,5,6
 261.543945312 813.200195312 261.543945312 813.200195312 275.352539062 797.049804688 c 128,-1,7
 289.162109375 780.900390625 289.162109375 780.900390625 289.162109375 758.099609375 c 256,8,9
 289.162109375 735.299804688 289.162109375 735.299804688 275.352539062 719.150390625 c 128,-1,10
 261.543945312 703 261.543945312 703 242.862304688 703 c 0,11,0
 223.369140625 703 223.369140625 703 209.154296875 719.150390625 c 128,-1,1
52.796875 664.049804688 m 1,12,-1
 427.244140625 664.049804688 l 1,13,-1
 427.244140625 582.349609375 l 1,14,-1
 135.645507812 582.349609375 l 1,15,-1
 135.645507812 372.400390625 l 1,16,-1
 353.328125 372.400390625 l 1,17,-1
 353.328125 291.650390625 l 1,18,-1
 135.645507812 291.650390625 l 1,19,-1
 135.645507812 80.75 l 1,20,-1
 427.244140625 80.75 l 1,21,-1
 427.244140625 0 l 1,22,-1
 52.796875 0 l 1,23,-1
 52.796875 664.049804688 l 1,12,-1
EndSplineSet
EndChar

StartChar: uni1EB8
Encoding: 7864 7864 55
Width: 462
VWidth: 949
GlyphClass: 2
Flags: W
LayerCount: 2
Fore
SplineSet
52.796875 664.049804688 m 1,0,-1
 427.244140625 664.049804688 l 1,1,-1
 427.244140625 582.349609375 l 1,2,-1
 135.645507812 582.349609375 l 1,3,-1
 135.645507812 372.400390625 l 1,4,-1
 353.328125 372.400390625 l 1,5,-1
 353.328125 291.650390625 l 1,6,-1
 135.645507812 291.650390625 l 1,7,-1
 135.645507812 80.75 l 1,8,-1
 427.244140625 80.75 l 1,9,-1
 427.244140625 0 l 1,10,-1
 52.796875 0 l 1,11,-1
 52.796875 664.049804688 l 1,0,-1
198.594726562 -141.549804688 m 128,-1,13
 184.380859375 -125.400390625 184.380859375 -125.400390625 184.380859375 -102.599609375 c 256,14,15
 184.380859375 -79.7998046875 184.380859375 -79.7998046875 198.594726562 -63.650390625 c 128,-1,16
 212.809570312 -47.5 212.809570312 -47.5 232.303710938 -47.5 c 0,17,18
 250.984375 -47.5 250.984375 -47.5 264.793945312 -63.650390625 c 128,-1,19
 278.602539062 -79.7998046875 278.602539062 -79.7998046875 278.602539062 -102.599609375 c 256,20,21
 278.602539062 -125.400390625 278.602539062 -125.400390625 264.793945312 -141.549804688 c 128,-1,22
 250.984375 -157.700195312 250.984375 -157.700195312 232.303710938 -157.700195312 c 0,23,12
 212.809570312 -157.700195312 212.809570312 -157.700195312 198.594726562 -141.549804688 c 128,-1,13
EndSplineSet
EndChar

StartChar: Egrave
Encoding: 200 200 56
Width: 462
VWidth: 949
GlyphClass: 2
Flags: W
LayerCount: 2
Fore
SplineSet
133.208984375 879.700195312 m 1,0,-1
 220.120117188 879.700195312 l 1,1,-1
 276.165039062 716.299804688 l 1,2,-1
 200.625 716.299804688 l 1,3,-1
 133.208984375 879.700195312 l 1,0,-1
52.796875 664.049804688 m 1,4,-1
 427.244140625 664.049804688 l 1,5,-1
 427.244140625 582.349609375 l 1,6,-1
 135.645507812 582.349609375 l 1,7,-1
 135.645507812 372.400390625 l 1,8,-1
 353.328125 372.400390625 l 1,9,-1
 353.328125 291.650390625 l 1,10,-1
 135.645507812 291.650390625 l 1,11,-1
 135.645507812 80.75 l 1,12,-1
 427.244140625 80.75 l 1,13,-1
 427.244140625 0 l 1,14,-1
 52.796875 0 l 1,15,-1
 52.796875 664.049804688 l 1,4,-1
EndSplineSet
EndChar

StartChar: uni1EBA
Encoding: 7866 7866 57
Width: 462
VWidth: 949
GlyphClass: 2
Flags: W
LayerCount: 2
Fore
SplineSet
192.502929688 772.349609375 m 1,0,1
 230.678710938 772.349609375 230.678710938 772.349609375 248.954101562 784.224609375 c 128,-1,2
 267.23046875 796.099609375 267.23046875 796.099609375 267.23046875 822.700195312 c 0,3,4
 267.23046875 844.549804688 267.23046875 844.549804688 254.640625 854.525390625 c 128,-1,5
 242.05078125 864.5 242.05078125 864.5 213.622070312 864.5 c 0,6,7
 203.0625 864.5 203.0625 864.5 186.411132812 861.174804688 c 128,-1,8
 169.759765625 857.849609375 169.759765625 857.849609375 162.450195312 854.049804688 c 1,9,-1
 162.450195312 906.299804688 l 1,10,11
 175.446289062 911.049804688 175.446289062 911.049804688 194.940429688 914.849609375 c 128,-1,12
 214.43359375 918.650390625 214.43359375 918.650390625 233.115234375 918.650390625 c 0,13,14
 285.100585938 918.650390625 285.100585938 918.650390625 312.309570312 893.474609375 c 128,-1,15
 339.521484375 868.299804688 339.521484375 868.299804688 339.521484375 826.5 c 0,16,17
 339.521484375 791.349609375 339.521484375 791.349609375 320.025390625 767.125 c 128,-1,18
 300.532226562 742.900390625 300.532226562 742.900390625 264.793945312 737.200195312 c 1,19,-1
 264.793945312 704.900390625 l 1,20,-1
 192.502929688 704.900390625 l 1,21,-1
 192.502929688 772.349609375 l 1,0,1
52.796875 664.049804688 m 1,22,-1
 427.244140625 664.049804688 l 1,23,-1
 427.244140625 582.349609375 l 1,24,-1
 135.645507812 582.349609375 l 1,25,-1
 135.645507812 372.400390625 l 1,26,-1
 353.328125 372.400390625 l 1,27,-1
 353.328125 291.650390625 l 1,28,-1
 135.645507812 291.650390625 l 1,29,-1
 135.645507812 80.75 l 1,30,-1
 427.244140625 80.75 l 1,31,-1
 427.244140625 0 l 1,32,-1
 52.796875 0 l 1,33,-1
 52.796875 664.049804688 l 1,22,-1
EndSplineSet
EndChar

StartChar: Emacron
Encoding: 274 274 58
Width: 462
VWidth: 949
GlyphClass: 2
Flags: W
LayerCount: 2
Fore
SplineSet
116.15234375 789.450195312 m 1,0,-1
 369.57421875 789.450195312 l 1,1,-1
 369.57421875 723.900390625 l 1,2,-1
 116.15234375 723.900390625 l 1,3,-1
 116.15234375 789.450195312 l 1,0,-1
52.796875 664.049804688 m 1,4,-1
 427.244140625 664.049804688 l 1,5,-1
 427.244140625 582.349609375 l 1,6,-1
 135.645507812 582.349609375 l 1,7,-1
 135.645507812 372.400390625 l 1,8,-1
 353.328125 372.400390625 l 1,9,-1
 353.328125 291.650390625 l 1,10,-1
 135.645507812 291.650390625 l 1,11,-1
 135.645507812 80.75 l 1,12,-1
 427.244140625 80.75 l 1,13,-1
 427.244140625 0 l 1,14,-1
 52.796875 0 l 1,15,-1
 52.796875 664.049804688 l 1,4,-1
EndSplineSet
EndChar

StartChar: Eogonek
Encoding: 280 280 59
Width: 462
VWidth: 949
GlyphClass: 2
Flags: W
LayerCount: 2
Fore
SplineSet
135.645507812 582.349609375 m 1,0,-1
 135.645507812 372.400390625 l 1,1,-1
 353.328125 372.400390625 l 1,2,-1
 353.328125 291.650390625 l 1,3,-1
 135.645507812 291.650390625 l 1,4,-1
 135.645507812 80.75 l 1,5,-1
 427.244140625 80.75 l 1,6,-1
 427.244140625 0 l 1,7,-1
 411.810546875 0 l 1,8,9
 379.321289062 -24.7001953125 379.321289062 -24.7001953125 363.481445312 -48.4501953125 c 128,-1,10
 347.643554688 -72.2001953125 347.643554688 -72.2001953125 347.643554688 -100.700195312 c 0,11,12
 347.643554688 -141.549804688 347.643554688 -141.549804688 383.381835938 -141.549804688 c 0,13,14
 403.6875 -141.549804688 403.6875 -141.549804688 422.369140625 -132.049804688 c 1,15,-1
 422.369140625 -190 l 1,16,17
 395.565429688 -201.400390625 395.565429688 -201.400390625 359.827148438 -201.400390625 c 0,18,19
 322.462890625 -201.400390625 322.462890625 -201.400390625 298.908203125 -179.549804688 c 128,-1,20
 275.352539062 -157.700195312 275.352539062 -157.700195312 275.352539062 -115.900390625 c 0,21,22
 275.352539062 -80.75 275.352539062 -80.75 292.00390625 -50.349609375 c 128,-1,23
 308.655273438 -19.9501953125 308.655273438 -19.9501953125 335.458984375 0 c 1,24,-1
 52.796875 0 l 1,25,-1
 52.796875 664.049804688 l 1,26,-1
 427.244140625 664.049804688 l 1,27,-1
 427.244140625 582.349609375 l 1,28,-1
 135.645507812 582.349609375 l 1,0,-1
EndSplineSet
EndChar

StartChar: uni1EBC
Encoding: 7868 7868 60
Width: 462
VWidth: 949
GlyphClass: 2
Flags: W
LayerCount: 2
Fore
SplineSet
79.6005859375 799.900390625 m 1,0,1
 104.780273438 840.75 104.780273438 840.75 159.201171875 840.75 c 0,2,3
 177.071289062 840.75 177.071289062 840.75 193.721679688 835.049804688 c 128,-1,4
 210.372070312 829.349609375 210.372070312 829.349609375 236.365234375 817 c 0,5,6
 258.295898438 805.599609375 258.295898438 805.599609375 274.947265625 799.424804688 c 128,-1,7
 291.596679688 793.25 291.596679688 793.25 309.467773438 793.25 c 0,8,9
 333.834960938 793.25 333.834960938 793.25 353.328125 804.174804688 c 128,-1,10
 372.822265625 815.099609375 372.822265625 815.099609375 388.255859375 841.700195312 c 1,11,-1
 388.255859375 760 l 1,12,13
 363.887695312 720.099609375 363.887695312 720.099609375 309.467773438 720.099609375 c 0,14,15
 289.162109375 720.099609375 289.162109375 720.099609375 270.885742188 726.275390625 c 128,-1,16
 252.610351562 732.450195312 252.610351562 732.450195312 229.053710938 744.799804688 c 0,17,18
 205.5 756.200195312 205.5 756.200195312 190.87890625 761.900390625 c 128,-1,19
 176.258789062 767.599609375 176.258789062 767.599609375 159.201171875 767.599609375 c 0,20,21
 135.645507812 767.599609375 135.645507812 767.599609375 116.15234375 756.674804688 c 128,-1,22
 96.6572265625 745.75 96.6572265625 745.75 79.6005859375 718.200195312 c 1,23,-1
 79.6005859375 799.900390625 l 1,0,1
52.796875 664.049804688 m 1,24,-1
 427.244140625 664.049804688 l 1,25,-1
 427.244140625 582.349609375 l 1,26,-1
 135.645507812 582.349609375 l 1,27,-1
 135.645507812 372.400390625 l 1,28,-1
 353.328125 372.400390625 l 1,29,-1
 353.328125 291.650390625 l 1,30,-1
 135.645507812 291.650390625 l 1,31,-1
 135.645507812 80.75 l 1,32,-1
 427.244140625 80.75 l 1,33,-1
 427.244140625 0 l 1,34,-1
 52.796875 0 l 1,35,-1
 52.796875 664.049804688 l 1,24,-1
EndSplineSet
EndChar

StartChar: F
Encoding: 70 70 61
Width: 446
VWidth: 949
GlyphClass: 2
Flags: W
LayerCount: 2
Fore
SplineSet
52.796875 664.049804688 m 1,0,-1
 427.244140625 664.049804688 l 1,1,-1
 427.244140625 582.349609375 l 1,2,-1
 135.645507812 582.349609375 l 1,3,-1
 135.645507812 370.5 l 1,4,-1
 353.328125 370.5 l 1,5,-1
 353.328125 293.549804688 l 1,6,-1
 135.645507812 293.549804688 l 1,7,-1
 135.645507812 0 l 1,8,-1
 52.796875 0 l 1,9,-1
 52.796875 664.049804688 l 1,0,-1
EndSplineSet
EndChar

StartChar: G
Encoding: 71 71 62
Width: 580
VWidth: 949
GlyphClass: 2
Flags: W
LayerCount: 2
Fore
SplineSet
181.131835938 28.5 m 128,-1,1
 112.90234375 71.25 112.90234375 71.25 74.7275390625 149.625 c 128,-1,2
 36.55078125 228 36.55078125 228 36.55078125 331.549804688 c 256,3,4
 36.55078125 435.099609375 36.55078125 435.099609375 74.7275390625 513.950195312 c 128,-1,5
 112.90234375 592.799804688 112.90234375 592.799804688 181.131835938 635.549804688 c 128,-1,6
 249.360351562 678.299804688 249.360351562 678.299804688 337.083984375 678.299804688 c 0,7,8
 454.859375 678.299804688 454.859375 678.299804688 532.836914062 609.900390625 c 1,9,-1
 532.836914062 516.799804688 l 1,10,11
 462.169921875 589 462.169921875 589 344.393554688 589 c 0,12,13
 280.225585938 589 280.225585938 589 229.053710938 557.650390625 c 128,-1,14
 177.881835938 526.299804688 177.881835938 526.299804688 149.047851562 467.875 c 128,-1,15
 120.212890625 409.450195312 120.212890625 409.450195312 120.212890625 331.549804688 c 256,16,17
 120.212890625 253.650390625 120.212890625 253.650390625 148.641601562 194.75 c 128,-1,18
 177.071289062 135.849609375 177.071289062 135.849609375 227.430664062 104.5 c 128,-1,19
 277.790039062 73.150390625 277.790039062 73.150390625 341.14453125 73.150390625 c 0,20,21
 415.059570312 73.150390625 415.059570312 73.150390625 462.169921875 108.299804688 c 1,22,-1
 462.169921875 282.150390625 l 1,23,-1
 354.141601562 282.150390625 l 1,24,-1
 354.141601562 361 l 1,25,-1
 545.01953125 361 l 1,26,-1
 545.01953125 57 l 1,27,28
 506.84375 19.9501953125 506.84375 19.9501953125 455.266601562 2.849609375 c 128,-1,29
 403.6875 -14.25 403.6875 -14.25 337.083984375 -14.25 c 0,30,0
 249.360351562 -14.25 249.360351562 -14.25 181.131835938 28.5 c 128,-1,1
EndSplineSet
EndChar

StartChar: Gbreve
Encoding: 286 286 63
Width: 580
VWidth: 949
GlyphClass: 2
Flags: W
LayerCount: 2
Fore
SplineSet
250.579101562 741.950195312 m 128,-1,1
 217.68359375 779 217.68359375 779 217.68359375 837.900390625 c 1,2,-1
 281.0390625 837.900390625 l 1,3,4
 281.0390625 805.599609375 281.0390625 805.599609375 296.471679688 788.025390625 c 128,-1,5
 311.903320312 770.450195312 311.903320312 770.450195312 340.33203125 770.450195312 c 256,6,7
 368.76171875 770.450195312 368.76171875 770.450195312 384.194335938 788.025390625 c 128,-1,8
 399.626953125 805.599609375 399.626953125 805.599609375 399.626953125 837.900390625 c 1,9,-1
 462.169921875 837.900390625 l 1,10,11
 462.169921875 779 462.169921875 779 429.274414062 741.950195312 c 128,-1,12
 396.377929688 704.900390625 396.377929688 704.900390625 340.33203125 704.900390625 c 0,13,0
 283.474609375 704.900390625 283.474609375 704.900390625 250.579101562 741.950195312 c 128,-1,1
181.131835938 28.5 m 128,-1,15
 112.90234375 71.25 112.90234375 71.25 74.7275390625 149.625 c 128,-1,16
 36.55078125 228 36.55078125 228 36.55078125 331.549804688 c 256,17,18
 36.55078125 435.099609375 36.55078125 435.099609375 74.7275390625 513.950195312 c 128,-1,19
 112.90234375 592.799804688 112.90234375 592.799804688 181.131835938 635.549804688 c 128,-1,20
 249.360351562 678.299804688 249.360351562 678.299804688 337.083984375 678.299804688 c 0,21,22
 454.859375 678.299804688 454.859375 678.299804688 532.836914062 609.900390625 c 1,23,-1
 532.836914062 516.799804688 l 1,24,25
 462.169921875 589 462.169921875 589 344.393554688 589 c 0,26,27
 280.225585938 589 280.225585938 589 229.053710938 557.650390625 c 128,-1,28
 177.881835938 526.299804688 177.881835938 526.299804688 149.047851562 467.875 c 128,-1,29
 120.212890625 409.450195312 120.212890625 409.450195312 120.212890625 331.549804688 c 256,30,31
 120.212890625 253.650390625 120.212890625 253.650390625 148.641601562 194.75 c 128,-1,32
 177.071289062 135.849609375 177.071289062 135.849609375 227.430664062 104.5 c 128,-1,33
 277.790039062 73.150390625 277.790039062 73.150390625 341.14453125 73.150390625 c 0,34,35
 415.059570312 73.150390625 415.059570312 73.150390625 462.169921875 108.299804688 c 1,36,-1
 462.169921875 282.150390625 l 1,37,-1
 354.141601562 282.150390625 l 1,38,-1
 354.141601562 361 l 1,39,-1
 545.01953125 361 l 1,40,-1
 545.01953125 57 l 1,41,42
 506.84375 19.9501953125 506.84375 19.9501953125 455.266601562 2.849609375 c 128,-1,43
 403.6875 -14.25 403.6875 -14.25 337.083984375 -14.25 c 0,44,14
 249.360351562 -14.25 249.360351562 -14.25 181.131835938 28.5 c 128,-1,15
EndSplineSet
EndChar

StartChar: Gcaron
Encoding: 486 486 64
Width: 580
VWidth: 949
GlyphClass: 2
Flags: W
LayerCount: 2
Fore
SplineSet
154.328125 873.049804688 m 1,0,-1
 237.990234375 873.049804688 l 1,1,-1
 306.217773438 771.400390625 l 1,2,-1
 374.447265625 873.049804688 l 1,3,-1
 457.296875 873.049804688 l 1,4,-1
 341.95703125 715.349609375 l 1,5,-1
 269.666015625 715.349609375 l 1,6,-1
 154.328125 873.049804688 l 1,0,-1
181.131835938 28.5 m 128,-1,8
 112.90234375 71.25 112.90234375 71.25 74.7275390625 149.625 c 128,-1,9
 36.55078125 228 36.55078125 228 36.55078125 331.549804688 c 256,10,11
 36.55078125 435.099609375 36.55078125 435.099609375 74.7275390625 513.950195312 c 128,-1,12
 112.90234375 592.799804688 112.90234375 592.799804688 181.131835938 635.549804688 c 128,-1,13
 249.360351562 678.299804688 249.360351562 678.299804688 337.083984375 678.299804688 c 0,14,15
 454.859375 678.299804688 454.859375 678.299804688 532.836914062 609.900390625 c 1,16,-1
 532.836914062 516.799804688 l 1,17,18
 462.169921875 589 462.169921875 589 344.393554688 589 c 0,19,20
 280.225585938 589 280.225585938 589 229.053710938 557.650390625 c 128,-1,21
 177.881835938 526.299804688 177.881835938 526.299804688 149.047851562 467.875 c 128,-1,22
 120.212890625 409.450195312 120.212890625 409.450195312 120.212890625 331.549804688 c 256,23,24
 120.212890625 253.650390625 120.212890625 253.650390625 148.641601562 194.75 c 128,-1,25
 177.071289062 135.849609375 177.071289062 135.849609375 227.430664062 104.5 c 128,-1,26
 277.790039062 73.150390625 277.790039062 73.150390625 341.14453125 73.150390625 c 0,27,28
 415.059570312 73.150390625 415.059570312 73.150390625 462.169921875 108.299804688 c 1,29,-1
 462.169921875 282.150390625 l 1,30,-1
 354.141601562 282.150390625 l 1,31,-1
 354.141601562 361 l 1,32,-1
 545.01953125 361 l 1,33,-1
 545.01953125 57 l 1,34,35
 506.84375 19.9501953125 506.84375 19.9501953125 455.266601562 2.849609375 c 128,-1,36
 403.6875 -14.25 403.6875 -14.25 337.083984375 -14.25 c 0,37,7
 249.360351562 -14.25 249.360351562 -14.25 181.131835938 28.5 c 128,-1,8
EndSplineSet
EndChar

StartChar: Gcircumflex
Encoding: 284 284 65
Width: 580
VWidth: 949
GlyphClass: 2
Flags: W
LayerCount: 2
Fore
SplineSet
297.284179688 861.650390625 m 1,0,-1
 369.57421875 861.650390625 l 1,1,-1
 484.913085938 703.950195312 l 1,2,-1
 402.063476562 703.950195312 l 1,3,-1
 333.834960938 805.599609375 l 1,4,-1
 265.60546875 703.950195312 l 1,5,-1
 181.943359375 703.950195312 l 1,6,-1
 297.284179688 861.650390625 l 1,0,-1
181.131835938 28.5 m 128,-1,8
 112.90234375 71.25 112.90234375 71.25 74.7275390625 149.625 c 128,-1,9
 36.55078125 228 36.55078125 228 36.55078125 331.549804688 c 256,10,11
 36.55078125 435.099609375 36.55078125 435.099609375 74.7275390625 513.950195312 c 128,-1,12
 112.90234375 592.799804688 112.90234375 592.799804688 181.131835938 635.549804688 c 128,-1,13
 249.360351562 678.299804688 249.360351562 678.299804688 337.083984375 678.299804688 c 0,14,15
 454.859375 678.299804688 454.859375 678.299804688 532.836914062 609.900390625 c 1,16,-1
 532.836914062 516.799804688 l 1,17,18
 462.169921875 589 462.169921875 589 344.393554688 589 c 0,19,20
 280.225585938 589 280.225585938 589 229.053710938 557.650390625 c 128,-1,21
 177.881835938 526.299804688 177.881835938 526.299804688 149.047851562 467.875 c 128,-1,22
 120.212890625 409.450195312 120.212890625 409.450195312 120.212890625 331.549804688 c 256,23,24
 120.212890625 253.650390625 120.212890625 253.650390625 148.641601562 194.75 c 128,-1,25
 177.071289062 135.849609375 177.071289062 135.849609375 227.430664062 104.5 c 128,-1,26
 277.790039062 73.150390625 277.790039062 73.150390625 341.14453125 73.150390625 c 0,27,28
 415.059570312 73.150390625 415.059570312 73.150390625 462.169921875 108.299804688 c 1,29,-1
 462.169921875 282.150390625 l 1,30,-1
 354.141601562 282.150390625 l 1,31,-1
 354.141601562 361 l 1,32,-1
 545.01953125 361 l 1,33,-1
 545.01953125 57 l 1,34,35
 506.84375 19.9501953125 506.84375 19.9501953125 455.266601562 2.849609375 c 128,-1,36
 403.6875 -14.25 403.6875 -14.25 337.083984375 -14.25 c 0,37,7
 249.360351562 -14.25 249.360351562 -14.25 181.131835938 28.5 c 128,-1,8
EndSplineSet
EndChar

StartChar: Gcommaaccent
Encoding: 290 290 66
Width: 580
VWidth: 949
GlyphClass: 2
Flags: W
LayerCount: 2
Fore
SplineSet
181.131835938 28.5 m 128,-1,1
 112.90234375 71.25 112.90234375 71.25 74.7275390625 149.625 c 128,-1,2
 36.55078125 228 36.55078125 228 36.55078125 331.549804688 c 256,3,4
 36.55078125 435.099609375 36.55078125 435.099609375 74.7275390625 513.950195312 c 128,-1,5
 112.90234375 592.799804688 112.90234375 592.799804688 181.131835938 635.549804688 c 128,-1,6
 249.360351562 678.299804688 249.360351562 678.299804688 337.083984375 678.299804688 c 0,7,8
 454.859375 678.299804688 454.859375 678.299804688 532.836914062 609.900390625 c 1,9,-1
 532.836914062 516.799804688 l 1,10,11
 462.169921875 589 462.169921875 589 344.393554688 589 c 0,12,13
 280.225585938 589 280.225585938 589 229.053710938 557.650390625 c 128,-1,14
 177.881835938 526.299804688 177.881835938 526.299804688 149.047851562 467.875 c 128,-1,15
 120.212890625 409.450195312 120.212890625 409.450195312 120.212890625 331.549804688 c 256,16,17
 120.212890625 253.650390625 120.212890625 253.650390625 148.641601562 194.75 c 128,-1,18
 177.071289062 135.849609375 177.071289062 135.849609375 227.430664062 104.5 c 128,-1,19
 277.790039062 73.150390625 277.790039062 73.150390625 341.14453125 73.150390625 c 0,20,21
 415.059570312 73.150390625 415.059570312 73.150390625 462.169921875 108.299804688 c 1,22,-1
 462.169921875 282.150390625 l 1,23,-1
 354.141601562 282.150390625 l 1,24,-1
 354.141601562 361 l 1,25,-1
 545.01953125 361 l 1,26,-1
 545.01953125 57 l 1,27,28
 506.84375 19.9501953125 506.84375 19.9501953125 455.266601562 2.849609375 c 128,-1,29
 403.6875 -14.25 403.6875 -14.25 337.083984375 -14.25 c 0,30,0
 249.360351562 -14.25 249.360351562 -14.25 181.131835938 28.5 c 128,-1,1
301.344726562 -57 m 1,31,-1
 387.443359375 -57 l 1,32,-1
 310.279296875 -247 l 1,33,-1
 235.552734375 -247 l 1,34,-1
 301.344726562 -57 l 1,31,-1
EndSplineSet
EndChar

StartChar: Gdotaccent
Encoding: 288 288 67
Width: 580
VWidth: 949
GlyphClass: 2
Flags: W
LayerCount: 2
Fore
SplineSet
303.375976562 720.099609375 m 128,-1,1
 289.162109375 736.25 289.162109375 736.25 289.162109375 759.049804688 c 256,2,3
 289.162109375 781.849609375 289.162109375 781.849609375 303.375976562 798 c 128,-1,4
 317.590820312 814.150390625 317.590820312 814.150390625 337.083984375 814.150390625 c 0,5,6
 355.765625 814.150390625 355.765625 814.150390625 369.57421875 798 c 128,-1,7
 383.381835938 781.849609375 383.381835938 781.849609375 383.381835938 759.049804688 c 256,8,9
 383.381835938 736.25 383.381835938 736.25 369.57421875 720.099609375 c 128,-1,10
 355.765625 703.950195312 355.765625 703.950195312 337.083984375 703.950195312 c 0,11,0
 317.590820312 703.950195312 317.590820312 703.950195312 303.375976562 720.099609375 c 128,-1,1
181.131835938 28.5 m 128,-1,13
 112.90234375 71.25 112.90234375 71.25 74.7275390625 149.625 c 128,-1,14
 36.55078125 228 36.55078125 228 36.55078125 331.549804688 c 256,15,16
 36.55078125 435.099609375 36.55078125 435.099609375 74.7275390625 513.950195312 c 128,-1,17
 112.90234375 592.799804688 112.90234375 592.799804688 181.131835938 635.549804688 c 128,-1,18
 249.360351562 678.299804688 249.360351562 678.299804688 337.083984375 678.299804688 c 0,19,20
 454.859375 678.299804688 454.859375 678.299804688 532.836914062 609.900390625 c 1,21,-1
 532.836914062 516.799804688 l 1,22,23
 462.169921875 589 462.169921875 589 344.393554688 589 c 0,24,25
 280.225585938 589 280.225585938 589 229.053710938 557.650390625 c 128,-1,26
 177.881835938 526.299804688 177.881835938 526.299804688 149.047851562 467.875 c 128,-1,27
 120.212890625 409.450195312 120.212890625 409.450195312 120.212890625 331.549804688 c 256,28,29
 120.212890625 253.650390625 120.212890625 253.650390625 148.641601562 194.75 c 128,-1,30
 177.071289062 135.849609375 177.071289062 135.849609375 227.430664062 104.5 c 128,-1,31
 277.790039062 73.150390625 277.790039062 73.150390625 341.14453125 73.150390625 c 0,32,33
 415.059570312 73.150390625 415.059570312 73.150390625 462.169921875 108.299804688 c 1,34,-1
 462.169921875 282.150390625 l 1,35,-1
 354.141601562 282.150390625 l 1,36,-1
 354.141601562 361 l 1,37,-1
 545.01953125 361 l 1,38,-1
 545.01953125 57 l 1,39,40
 506.84375 19.9501953125 506.84375 19.9501953125 455.266601562 2.849609375 c 128,-1,41
 403.6875 -14.25 403.6875 -14.25 337.083984375 -14.25 c 0,42,12
 249.360351562 -14.25 249.360351562 -14.25 181.131835938 28.5 c 128,-1,13
EndSplineSet
EndChar

StartChar: uni1E20
Encoding: 7712 7712 68
Width: 580
VWidth: 949
GlyphClass: 2
Flags: W
LayerCount: 2
Fore
SplineSet
211.184570312 789.450195312 m 1,0,-1
 464.606445312 789.450195312 l 1,1,-1
 464.606445312 723.900390625 l 1,2,-1
 211.184570312 723.900390625 l 1,3,-1
 211.184570312 789.450195312 l 1,0,-1
181.131835938 28.5 m 128,-1,5
 112.90234375 71.25 112.90234375 71.25 74.7275390625 149.625 c 128,-1,6
 36.55078125 228 36.55078125 228 36.55078125 331.549804688 c 256,7,8
 36.55078125 435.099609375 36.55078125 435.099609375 74.7275390625 513.950195312 c 128,-1,9
 112.90234375 592.799804688 112.90234375 592.799804688 181.131835938 635.549804688 c 128,-1,10
 249.360351562 678.299804688 249.360351562 678.299804688 337.083984375 678.299804688 c 0,11,12
 454.859375 678.299804688 454.859375 678.299804688 532.836914062 609.900390625 c 1,13,-1
 532.836914062 516.799804688 l 1,14,15
 462.169921875 589 462.169921875 589 344.393554688 589 c 0,16,17
 280.225585938 589 280.225585938 589 229.053710938 557.650390625 c 128,-1,18
 177.881835938 526.299804688 177.881835938 526.299804688 149.047851562 467.875 c 128,-1,19
 120.212890625 409.450195312 120.212890625 409.450195312 120.212890625 331.549804688 c 256,20,21
 120.212890625 253.650390625 120.212890625 253.650390625 148.641601562 194.75 c 128,-1,22
 177.071289062 135.849609375 177.071289062 135.849609375 227.430664062 104.5 c 128,-1,23
 277.790039062 73.150390625 277.790039062 73.150390625 341.14453125 73.150390625 c 0,24,25
 415.059570312 73.150390625 415.059570312 73.150390625 462.169921875 108.299804688 c 1,26,-1
 462.169921875 282.150390625 l 1,27,-1
 354.141601562 282.150390625 l 1,28,-1
 354.141601562 361 l 1,29,-1
 545.01953125 361 l 1,30,-1
 545.01953125 57 l 1,31,32
 506.84375 19.9501953125 506.84375 19.9501953125 455.266601562 2.849609375 c 128,-1,33
 403.6875 -14.25 403.6875 -14.25 337.083984375 -14.25 c 0,34,4
 249.360351562 -14.25 249.360351562 -14.25 181.131835938 28.5 c 128,-1,5
EndSplineSet
EndChar

StartChar: H
Encoding: 72 72 69
Width: 567
VWidth: 949
GlyphClass: 2
Flags: W
LayerCount: 2
Fore
SplineSet
52.796875 664.049804688 m 1,0,-1
 135.645507812 664.049804688 l 1,1,-1
 135.645507812 379.049804688 l 1,2,-1
 432.116210938 379.049804688 l 1,3,-1
 432.116210938 664.049804688 l 1,4,-1
 514.965820312 664.049804688 l 1,5,-1
 514.965820312 0 l 1,6,-1
 432.116210938 0 l 1,7,-1
 432.116210938 297.349609375 l 1,8,-1
 135.645507812 297.349609375 l 1,9,-1
 135.645507812 0 l 1,10,-1
 52.796875 0 l 1,11,-1
 52.796875 664.049804688 l 1,0,-1
EndSplineSet
EndChar

StartChar: Hbar
Encoding: 294 294 70
Width: 584
VWidth: 949
GlyphClass: 2
Flags: W
LayerCount: 2
Fore
SplineSet
57.669921875 479.75 m 1,0,-1
 20.306640625 479.75 l 1,1,-1
 20.306640625 558.599609375 l 1,2,-1
 57.669921875 558.599609375 l 1,3,-1
 57.669921875 664.049804688 l 1,4,-1
 140.51953125 664.049804688 l 1,5,-1
 140.51953125 558.599609375 l 1,6,-1
 436.990234375 558.599609375 l 1,7,-1
 436.990234375 664.049804688 l 1,8,-1
 519.83984375 664.049804688 l 1,9,-1
 519.83984375 558.599609375 l 1,10,-1
 564.513671875 558.599609375 l 1,11,-1
 564.513671875 479.75 l 1,12,-1
 519.83984375 479.75 l 1,13,-1
 519.83984375 0 l 1,14,-1
 436.990234375 0 l 1,15,-1
 436.990234375 296.400390625 l 1,16,-1
 140.51953125 296.400390625 l 1,17,-1
 140.51953125 0 l 1,18,-1
 57.669921875 0 l 1,19,-1
 57.669921875 479.75 l 1,0,-1
436.990234375 380 m 1,20,-1
 436.990234375 479.75 l 1,21,-1
 140.51953125 479.75 l 1,22,-1
 140.51953125 380 l 1,23,-1
 436.990234375 380 l 1,20,-1
EndSplineSet
EndChar

StartChar: uni1E2A
Encoding: 7722 7722 71
Width: 567
VWidth: 949
GlyphClass: 2
Flags: W
LayerCount: 2
Fore
SplineSet
52.796875 664.049804688 m 1,0,-1
 135.645507812 664.049804688 l 1,1,-1
 135.645507812 379.049804688 l 1,2,-1
 432.116210938 379.049804688 l 1,3,-1
 432.116210938 664.049804688 l 1,4,-1
 514.965820312 664.049804688 l 1,5,-1
 514.965820312 0 l 1,6,-1
 432.116210938 0 l 1,7,-1
 432.116210938 297.349609375 l 1,8,-1
 135.645507812 297.349609375 l 1,9,-1
 135.645507812 0 l 1,10,-1
 52.796875 0 l 1,11,-1
 52.796875 664.049804688 l 1,0,-1
194.534179688 -154.849609375 m 128,-1,13
 161.637695312 -117.799804688 161.637695312 -117.799804688 161.637695312 -57.9501953125 c 1,14,-1
 224.993164062 -57.9501953125 l 1,15,16
 224.993164062 -90.25 224.993164062 -90.25 240.831054688 -108.299804688 c 128,-1,17
 256.671875 -126.349609375 256.671875 -126.349609375 284.287109375 -126.349609375 c 256,18,19
 311.903320312 -126.349609375 311.903320312 -126.349609375 327.743164062 -108.299804688 c 128,-1,20
 343.58203125 -90.25 343.58203125 -90.25 343.58203125 -57.9501953125 c 1,21,-1
 406.125 -57.9501953125 l 1,22,23
 406.125 -117.799804688 406.125 -117.799804688 373.228515625 -154.849609375 c 128,-1,24
 340.33203125 -191.900390625 340.33203125 -191.900390625 284.287109375 -191.900390625 c 0,25,12
 227.430664062 -191.900390625 227.430664062 -191.900390625 194.534179688 -154.849609375 c 128,-1,13
EndSplineSet
EndChar

StartChar: Hcircumflex
Encoding: 292 292 72
Width: 567
VWidth: 949
GlyphClass: 2
Flags: W
LayerCount: 2
Fore
SplineSet
247.736328125 861.650390625 m 1,0,-1
 320.025390625 861.650390625 l 1,1,-1
 435.366210938 703.950195312 l 1,2,-1
 352.515625 703.950195312 l 1,3,-1
 284.287109375 805.599609375 l 1,4,-1
 216.059570312 703.950195312 l 1,5,-1
 132.396484375 703.950195312 l 1,6,-1
 247.736328125 861.650390625 l 1,0,-1
52.796875 664.049804688 m 1,7,-1
 135.645507812 664.049804688 l 1,8,-1
 135.645507812 379.049804688 l 1,9,-1
 432.116210938 379.049804688 l 1,10,-1
 432.116210938 664.049804688 l 1,11,-1
 514.965820312 664.049804688 l 1,12,-1
 514.965820312 0 l 1,13,-1
 432.116210938 0 l 1,14,-1
 432.116210938 297.349609375 l 1,15,-1
 135.645507812 297.349609375 l 1,16,-1
 135.645507812 0 l 1,17,-1
 52.796875 0 l 1,18,-1
 52.796875 664.049804688 l 1,7,-1
EndSplineSet
EndChar

StartChar: uni1E24
Encoding: 7716 7716 73
Width: 567
VWidth: 949
GlyphClass: 2
Flags: W
LayerCount: 2
Fore
SplineSet
52.796875 664.049804688 m 1,0,-1
 135.645507812 664.049804688 l 1,1,-1
 135.645507812 379.049804688 l 1,2,-1
 432.116210938 379.049804688 l 1,3,-1
 432.116210938 664.049804688 l 1,4,-1
 514.965820312 664.049804688 l 1,5,-1
 514.965820312 0 l 1,6,-1
 432.116210938 0 l 1,7,-1
 432.116210938 297.349609375 l 1,8,-1
 135.645507812 297.349609375 l 1,9,-1
 135.645507812 0 l 1,10,-1
 52.796875 0 l 1,11,-1
 52.796875 664.049804688 l 1,0,-1
250.579101562 -141.549804688 m 128,-1,13
 236.365234375 -125.400390625 236.365234375 -125.400390625 236.365234375 -102.599609375 c 256,14,15
 236.365234375 -79.7998046875 236.365234375 -79.7998046875 250.579101562 -63.650390625 c 128,-1,16
 264.793945312 -47.5 264.793945312 -47.5 284.287109375 -47.5 c 0,17,18
 302.969726562 -47.5 302.969726562 -47.5 316.77734375 -63.650390625 c 128,-1,19
 330.584960938 -79.7998046875 330.584960938 -79.7998046875 330.584960938 -102.599609375 c 256,20,21
 330.584960938 -125.400390625 330.584960938 -125.400390625 316.77734375 -141.549804688 c 128,-1,22
 302.969726562 -157.700195312 302.969726562 -157.700195312 284.287109375 -157.700195312 c 0,23,12
 264.793945312 -157.700195312 264.793945312 -157.700195312 250.579101562 -141.549804688 c 128,-1,13
EndSplineSet
EndChar

StartChar: I
Encoding: 73 73 74
Width: 188
VWidth: 949
GlyphClass: 2
Flags: W
LayerCount: 2
Fore
SplineSet
52.796875 664.049804688 m 1,0,-1
 136.458984375 664.049804688 l 1,1,-1
 136.458984375 0 l 1,2,-1
 52.796875 0 l 1,3,-1
 52.796875 664.049804688 l 1,0,-1
EndSplineSet
EndChar

StartChar: IJ
Encoding: 306 306 75
Width: 496
VWidth: 949
GlyphClass: 2
Flags: W
LayerCount: 2
Fore
SplineSet
53.609375 664.049804688 m 1,0,-1
 137.26953125 664.049804688 l 1,1,-1
 137.26953125 0 l 1,2,-1
 53.609375 0 l 1,3,-1
 53.609375 664.049804688 l 1,0,-1
251.796875 -9.5 m 128,-1,5
 226.6171875 -4.75 226.6171875 -4.75 213.622070312 1.900390625 c 1,6,-1
 213.622070312 84.5498046875 l 1,7,8
 225.805664062 78.849609375 225.805664062 78.849609375 244.893554688 75.0498046875 c 128,-1,9
 263.981445312 71.25 263.981445312 71.25 281.0390625 71.25 c 0,10,11
 364.700195312 71.25 364.700195312 71.25 364.700195312 166.25 c 2,12,-1
 364.700195312 664.049804688 l 1,13,-1
 447.549804688 664.049804688 l 1,14,-1
 447.549804688 159.599609375 l 2,15,16
 447.549804688 77.900390625 447.549804688 77.900390625 407.749023438 31.8251953125 c 128,-1,17
 367.94921875 -14.25 367.94921875 -14.25 299.719726562 -14.25 c 0,18,4
 276.977539062 -14.25 276.977539062 -14.25 251.796875 -9.5 c 128,-1,5
EndSplineSet
EndChar

StartChar: Iacute
Encoding: 205 205 76
Width: 190
VWidth: 949
GlyphClass: 2
Flags: W
LayerCount: 2
Fore
SplineSet
113.71484375 867.349609375 m 1,0,-1
 200.625 867.349609375 l 1,1,-1
 133.208984375 703.950195312 l 1,2,-1
 58.4814453125 703.950195312 l 1,3,-1
 113.71484375 867.349609375 l 1,0,-1
53.609375 664.049804688 m 1,4,-1
 137.26953125 664.049804688 l 1,5,-1
 137.26953125 0 l 1,6,-1
 53.609375 0 l 1,7,-1
 53.609375 664.049804688 l 1,4,-1
EndSplineSet
EndChar

StartChar: Ibreve
Encoding: 300 300 77
Width: 190
VWidth: 949
GlyphClass: 2
Flags: W
LayerCount: 2
Fore
SplineSet
6.091796875 741.950195312 m 128,-1,1
 -26.8037109375 779 -26.8037109375 779 -26.8037109375 837.900390625 c 1,2,-1
 36.55078125 837.900390625 l 1,3,4
 36.55078125 805.599609375 36.55078125 805.599609375 51.9833984375 788.025390625 c 128,-1,5
 67.4169921875 770.450195312 67.4169921875 770.450195312 95.845703125 770.450195312 c 256,6,7
 124.274414062 770.450195312 124.274414062 770.450195312 139.70703125 788.025390625 c 128,-1,8
 155.140625 805.599609375 155.140625 805.599609375 155.140625 837.900390625 c 1,9,-1
 217.68359375 837.900390625 l 1,10,11
 217.68359375 779 217.68359375 779 184.787109375 741.950195312 c 128,-1,12
 151.890625 704.900390625 151.890625 704.900390625 95.845703125 704.900390625 c 0,13,0
 38.98828125 704.900390625 38.98828125 704.900390625 6.091796875 741.950195312 c 128,-1,1
53.609375 664.049804688 m 1,14,-1
 137.26953125 664.049804688 l 1,15,-1
 137.26953125 0 l 1,16,-1
 53.609375 0 l 1,17,-1
 53.609375 664.049804688 l 1,14,-1
EndSplineSet
EndChar

StartChar: uni01CF
Encoding: 463 463 78
Width: 199
VWidth: 949
GlyphClass: 2
Flags: W
LayerCount: 2
Fore
SplineSet
-51.171875 873.049804688 m 1,0,-1
 32.490234375 873.049804688 l 1,1,-1
 100.71875 771.400390625 l 1,2,-1
 168.948242188 873.049804688 l 1,3,-1
 251.796875 873.049804688 l 1,4,-1
 136.458984375 715.349609375 l 1,5,-1
 64.16796875 715.349609375 l 1,6,-1
 -51.171875 873.049804688 l 1,0,-1
68.228515625 664.049804688 m 1,7,-1
 151.890625 664.049804688 l 1,8,-1
 151.890625 0 l 1,9,-1
 68.228515625 0 l 1,10,-1
 68.228515625 664.049804688 l 1,7,-1
EndSplineSet
EndChar

StartChar: Icircumflex
Encoding: 206 206 79
Width: 190
VWidth: 949
GlyphClass: 2
Flags: W
LayerCount: 2
Fore
SplineSet
59.2939453125 861.650390625 m 1,0,-1
 131.583984375 861.650390625 l 1,1,-1
 246.923828125 703.950195312 l 1,2,-1
 164.07421875 703.950195312 l 1,3,-1
 95.845703125 805.599609375 l 1,4,-1
 27.6162109375 703.950195312 l 1,5,-1
 -56.044921875 703.950195312 l 1,6,-1
 59.2939453125 861.650390625 l 1,0,-1
53.609375 664.049804688 m 1,7,-1
 137.26953125 664.049804688 l 1,8,-1
 137.26953125 0 l 1,9,-1
 53.609375 0 l 1,10,-1
 53.609375 664.049804688 l 1,7,-1
EndSplineSet
EndChar

StartChar: Idieresis
Encoding: 207 207 80
Width: 190
VWidth: 949
GlyphClass: 2
Flags: W
LayerCount: 2
Fore
SplineSet
-30.458984375 720.099609375 m 128,-1,1
 -44.673828125 736.25 -44.673828125 736.25 -44.673828125 759.049804688 c 256,2,3
 -44.673828125 781.849609375 -44.673828125 781.849609375 -30.458984375 798 c 128,-1,4
 -16.244140625 814.150390625 -16.244140625 814.150390625 3.2490234375 814.150390625 c 0,5,6
 21.9306640625 814.150390625 21.9306640625 814.150390625 35.73828125 798 c 128,-1,7
 49.5478515625 781.849609375 49.5478515625 781.849609375 49.5478515625 759.049804688 c 256,8,9
 49.5478515625 736.25 49.5478515625 736.25 35.73828125 720.099609375 c 128,-1,10
 21.9306640625 703.950195312 21.9306640625 703.950195312 3.2490234375 703.950195312 c 0,11,0
 -16.244140625 703.950195312 -16.244140625 703.950195312 -30.458984375 720.099609375 c 128,-1,1
153.920898438 720.099609375 m 128,-1,13
 139.70703125 736.25 139.70703125 736.25 139.70703125 759.049804688 c 256,14,15
 139.70703125 781.849609375 139.70703125 781.849609375 153.920898438 798 c 128,-1,16
 168.134765625 814.150390625 168.134765625 814.150390625 187.630859375 814.150390625 c 0,17,18
 206.311523438 814.150390625 206.311523438 814.150390625 220.120117188 798 c 128,-1,19
 233.927734375 781.849609375 233.927734375 781.849609375 233.927734375 759.049804688 c 256,20,21
 233.927734375 736.25 233.927734375 736.25 220.120117188 720.099609375 c 128,-1,22
 206.311523438 703.950195312 206.311523438 703.950195312 187.630859375 703.950195312 c 0,23,12
 168.134765625 703.950195312 168.134765625 703.950195312 153.920898438 720.099609375 c 128,-1,13
53.609375 664.049804688 m 1,24,-1
 137.26953125 664.049804688 l 1,25,-1
 137.26953125 0 l 1,26,-1
 53.609375 0 l 1,27,-1
 53.609375 664.049804688 l 1,24,-1
EndSplineSet
EndChar

StartChar: Idotaccent
Encoding: 304 304 81
Width: 190
VWidth: 949
GlyphClass: 2
Flags: W
LayerCount: 2
Fore
SplineSet
62.94921875 720.099609375 m 128,-1,1
 48.734375 736.25 48.734375 736.25 48.734375 759.049804688 c 256,2,3
 48.734375 781.849609375 48.734375 781.849609375 62.94921875 798 c 128,-1,4
 77.1630859375 814.150390625 77.1630859375 814.150390625 96.6572265625 814.150390625 c 0,5,6
 115.33984375 814.150390625 115.33984375 814.150390625 129.147460938 798 c 128,-1,7
 142.956054688 781.849609375 142.956054688 781.849609375 142.956054688 759.049804688 c 256,8,9
 142.956054688 736.25 142.956054688 736.25 129.147460938 720.099609375 c 128,-1,10
 115.33984375 703.950195312 115.33984375 703.950195312 96.6572265625 703.950195312 c 0,11,0
 77.1630859375 703.950195312 77.1630859375 703.950195312 62.94921875 720.099609375 c 128,-1,1
53.609375 664.049804688 m 1,12,-1
 137.26953125 664.049804688 l 1,13,-1
 137.26953125 0 l 1,14,-1
 53.609375 0 l 1,15,-1
 53.609375 664.049804688 l 1,12,-1
EndSplineSet
EndChar

StartChar: uni1ECA
Encoding: 7882 7882 82
Width: 190
VWidth: 949
GlyphClass: 2
Flags: W
LayerCount: 2
Fore
SplineSet
53.609375 664.049804688 m 1,0,-1
 137.26953125 664.049804688 l 1,1,-1
 137.26953125 0 l 1,2,-1
 53.609375 0 l 1,3,-1
 53.609375 664.049804688 l 1,0,-1
62.94921875 -141.549804688 m 128,-1,5
 48.734375 -125.400390625 48.734375 -125.400390625 48.734375 -102.599609375 c 256,6,7
 48.734375 -79.7998046875 48.734375 -79.7998046875 62.94921875 -63.650390625 c 128,-1,8
 77.1630859375 -47.5 77.1630859375 -47.5 96.6572265625 -47.5 c 0,9,10
 115.33984375 -47.5 115.33984375 -47.5 129.147460938 -63.650390625 c 128,-1,11
 142.956054688 -79.7998046875 142.956054688 -79.7998046875 142.956054688 -102.599609375 c 256,12,13
 142.956054688 -125.400390625 142.956054688 -125.400390625 129.147460938 -141.549804688 c 128,-1,14
 115.33984375 -157.700195312 115.33984375 -157.700195312 96.6572265625 -157.700195312 c 0,15,4
 77.1630859375 -157.700195312 77.1630859375 -157.700195312 62.94921875 -141.549804688 c 128,-1,5
EndSplineSet
EndChar

StartChar: Igrave
Encoding: 204 204 83
Width: 190
VWidth: 949
GlyphClass: 2
Flags: W
LayerCount: 2
Fore
SplineSet
-9.7470703125 867.349609375 m 1,0,-1
 77.1630859375 867.349609375 l 1,1,-1
 133.208984375 703.950195312 l 1,2,-1
 57.669921875 703.950195312 l 1,3,-1
 -9.7470703125 867.349609375 l 1,0,-1
53.609375 664.049804688 m 1,4,-1
 137.26953125 664.049804688 l 1,5,-1
 137.26953125 0 l 1,6,-1
 53.609375 0 l 1,7,-1
 53.609375 664.049804688 l 1,4,-1
EndSplineSet
EndChar

StartChar: uni1EC8
Encoding: 7880 7880 84
Width: 190
VWidth: 949
GlyphClass: 2
Flags: W
LayerCount: 2
Fore
SplineSet
58.4814453125 772.349609375 m 1,0,1
 96.6572265625 772.349609375 96.6572265625 772.349609375 114.93359375 784.224609375 c 128,-1,2
 133.208984375 796.099609375 133.208984375 796.099609375 133.208984375 822.700195312 c 0,3,4
 133.208984375 844.549804688 133.208984375 844.549804688 120.619140625 854.525390625 c 128,-1,5
 108.029296875 864.5 108.029296875 864.5 79.6005859375 864.5 c 0,6,7
 69.041015625 864.5 69.041015625 864.5 52.3896484375 861.174804688 c 128,-1,8
 35.73828125 857.849609375 35.73828125 857.849609375 28.4287109375 854.049804688 c 1,9,-1
 28.4287109375 906.299804688 l 1,10,11
 41.4248046875 911.049804688 41.4248046875 911.049804688 60.9189453125 914.849609375 c 128,-1,12
 80.412109375 918.650390625 80.412109375 918.650390625 99.09375 918.650390625 c 0,13,14
 151.079101562 918.650390625 151.079101562 918.650390625 178.288085938 893.474609375 c 128,-1,15
 205.5 868.299804688 205.5 868.299804688 205.5 826.5 c 0,16,17
 205.5 791.349609375 205.5 791.349609375 186.004882812 767.125 c 128,-1,18
 166.51171875 742.900390625 166.51171875 742.900390625 130.772460938 737.200195312 c 1,19,-1
 130.772460938 704.900390625 l 1,20,-1
 58.4814453125 704.900390625 l 1,21,-1
 58.4814453125 772.349609375 l 1,0,1
53.609375 664.049804688 m 1,22,-1
 137.26953125 664.049804688 l 1,23,-1
 137.26953125 0 l 1,24,-1
 53.609375 0 l 1,25,-1
 53.609375 664.049804688 l 1,22,-1
EndSplineSet
EndChar

StartChar: Imacron
Encoding: 298 298 85
Width: 190
VWidth: 949
GlyphClass: 2
Flags: W
LayerCount: 2
Fore
SplineSet
-34.1142578125 790.400390625 m 1,0,-1
 224.993164062 790.400390625 l 1,1,-1
 224.993164062 723.900390625 l 1,2,-1
 -34.1142578125 723.900390625 l 1,3,-1
 -34.1142578125 790.400390625 l 1,0,-1
53.609375 664.049804688 m 1,4,-1
 137.26953125 664.049804688 l 1,5,-1
 137.26953125 0 l 1,6,-1
 53.609375 0 l 1,7,-1
 53.609375 664.049804688 l 1,4,-1
EndSplineSet
EndChar

StartChar: Iogonek
Encoding: 302 302 86
Width: 190
VWidth: 949
GlyphClass: 2
Flags: W
LayerCount: 2
Fore
SplineSet
145.392578125 -132.049804688 m 1,1,-1
 145.392578125 -190 l 1,2,3
 118.588867188 -201.400390625 118.588867188 -201.400390625 82.849609375 -201.400390625 c 0,4,5
 45.486328125 -201.400390625 45.486328125 -201.400390625 21.9306640625 -179.549804688 c 128,-1,6
 -1.6240234375 -157.700195312 -1.6240234375 -157.700195312 -1.6240234375 -115.900390625 c 0,7,8
 -1.6240234375 -80.75 -1.6240234375 -80.75 15.02734375 -50.349609375 c 128,-1,9
 31.677734375 -19.9501953125 31.677734375 -19.9501953125 58.4814453125 0 c 1,10,-1
 53.609375 0 l 1,11,-1
 53.609375 664.049804688 l 1,12,-1
 137.26953125 664.049804688 l 1,13,-1
 137.26953125 0 l 1,14,-1
 134.833984375 0 l 1,15,16
 102.34375 -24.7001953125 102.34375 -24.7001953125 86.50390625 -48.4501953125 c 128,-1,17
 70.666015625 -72.2001953125 70.666015625 -72.2001953125 70.666015625 -100.700195312 c 0,18,19
 70.666015625 -141.549804688 70.666015625 -141.549804688 106.405273438 -141.549804688 c 0,20,0
 126.711914062 -141.549804688 126.711914062 -141.549804688 145.392578125 -132.049804688 c 1,1,-1
EndSplineSet
EndChar

StartChar: Itilde
Encoding: 296 296 87
Width: 190
VWidth: 949
GlyphClass: 2
Flags: W
LayerCount: 2
Fore
SplineSet
-59.2939453125 786.599609375 m 1,0,1
 -34.1142578125 827.450195312 -34.1142578125 827.450195312 20.306640625 827.450195312 c 0,2,3
 38.17578125 827.450195312 38.17578125 827.450195312 54.8271484375 821.75 c 128,-1,4
 71.478515625 816.049804688 71.478515625 816.049804688 97.4697265625 803.700195312 c 0,5,6
 119.400390625 792.299804688 119.400390625 792.299804688 136.052734375 786.125 c 128,-1,7
 152.703125 779.950195312 152.703125 779.950195312 170.572265625 779.950195312 c 0,8,9
 194.940429688 779.950195312 194.940429688 779.950195312 214.43359375 790.875 c 128,-1,10
 233.927734375 801.799804688 233.927734375 801.799804688 249.360351562 828.400390625 c 1,11,-1
 249.360351562 746.700195312 l 1,12,13
 224.993164062 706.799804688 224.993164062 706.799804688 170.572265625 706.799804688 c 0,14,15
 150.265625 706.799804688 150.265625 706.799804688 131.990234375 712.974609375 c 128,-1,16
 113.71484375 719.150390625 113.71484375 719.150390625 90.16015625 731.5 c 0,17,18
 66.603515625 742.900390625 66.603515625 742.900390625 51.9833984375 748.599609375 c 128,-1,19
 37.36328125 754.299804688 37.36328125 754.299804688 20.306640625 754.299804688 c 0,20,21
 -3.2490234375 754.299804688 -3.2490234375 754.299804688 -22.7431640625 743.375 c 128,-1,22
 -42.2373046875 732.450195312 -42.2373046875 732.450195312 -59.2939453125 704.900390625 c 1,23,-1
 -59.2939453125 786.599609375 l 1,0,1
53.609375 664.049804688 m 1,24,-1
 137.26953125 664.049804688 l 1,25,-1
 137.26953125 0 l 1,26,-1
 53.609375 0 l 1,27,-1
 53.609375 664.049804688 l 1,24,-1
EndSplineSet
EndChar

StartChar: J
Encoding: 74 74 88
Width: 302
VWidth: 949
GlyphClass: 2
Flags: W
LayerCount: 2
Fore
SplineSet
58.4814453125 -9.5 m 128,-1,1
 33.302734375 -4.75 33.302734375 -4.75 20.306640625 1.900390625 c 1,2,-1
 20.306640625 84.5498046875 l 1,3,4
 32.490234375 78.849609375 32.490234375 78.849609375 51.578125 75.0498046875 c 128,-1,5
 70.666015625 71.25 70.666015625 71.25 87.72265625 71.25 c 0,6,7
 171.384765625 71.25 171.384765625 71.25 171.384765625 166.25 c 2,8,-1
 171.384765625 664.049804688 l 1,9,-1
 254.234375 664.049804688 l 1,10,-1
 254.234375 159.599609375 l 2,11,12
 254.234375 77.900390625 254.234375 77.900390625 214.43359375 31.8251953125 c 128,-1,13
 174.633789062 -14.25 174.633789062 -14.25 106.405273438 -14.25 c 0,14,0
 83.662109375 -14.25 83.662109375 -14.25 58.4814453125 -9.5 c 128,-1,1
EndSplineSet
EndChar

StartChar: Jcircumflex
Encoding: 308 308 89
Width: 304
VWidth: 949
GlyphClass: 2
Flags: W
LayerCount: 2
Fore
SplineSet
176.258789062 861.650390625 m 1,0,-1
 248.548828125 861.650390625 l 1,1,-1
 363.887695312 703.950195312 l 1,2,-1
 281.0390625 703.950195312 l 1,3,-1
 212.809570312 805.599609375 l 1,4,-1
 144.581054688 703.950195312 l 1,5,-1
 60.9189453125 703.950195312 l 1,6,-1
 176.258789062 861.650390625 l 1,0,-1
58.4814453125 -9.5 m 128,-1,8
 33.302734375 -4.75 33.302734375 -4.75 20.306640625 1.900390625 c 1,9,-1
 20.306640625 84.5498046875 l 1,10,11
 32.490234375 78.849609375 32.490234375 78.849609375 51.578125 75.0498046875 c 128,-1,12
 70.666015625 71.25 70.666015625 71.25 87.72265625 71.25 c 0,13,14
 171.384765625 71.25 171.384765625 71.25 171.384765625 166.25 c 2,15,-1
 171.384765625 664.049804688 l 1,16,-1
 254.234375 664.049804688 l 1,17,-1
 254.234375 159.599609375 l 2,18,19
 254.234375 77.900390625 254.234375 77.900390625 214.43359375 31.8251953125 c 128,-1,20
 174.633789062 -14.25 174.633789062 -14.25 106.405273438 -14.25 c 0,21,7
 83.662109375 -14.25 83.662109375 -14.25 58.4814453125 -9.5 c 128,-1,8
EndSplineSet
EndChar

StartChar: K
Encoding: 75 75 90
Width: 543
VWidth: 949
GlyphClass: 2
Flags: W
LayerCount: 2
Fore
SplineSet
52.796875 664.049804688 m 1,0,-1
 135.645507812 664.049804688 l 1,1,-1
 135.645507812 0 l 1,2,-1
 52.796875 0 l 1,3,-1
 52.796875 664.049804688 l 1,0,-1
139.70703125 338.200195312 m 1,4,-1
 398.815429688 664.049804688 l 1,5,-1
 499.534179688 664.049804688 l 1,6,-1
 240.42578125 338.200195312 l 1,7,-1
 515.778320312 0 l 1,8,-1
 415.059570312 0 l 1,9,-1
 139.70703125 338.200195312 l 1,4,-1
EndSplineSet
EndChar

StartChar: Kcommaaccent
Encoding: 310 310 91
Width: 543
VWidth: 949
GlyphClass: 2
Flags: W
LayerCount: 2
Fore
SplineSet
52.796875 664.049804688 m 1,0,-1
 135.645507812 664.049804688 l 1,1,-1
 135.645507812 0 l 1,2,-1
 52.796875 0 l 1,3,-1
 52.796875 664.049804688 l 1,0,-1
139.70703125 338.200195312 m 1,4,-1
 398.815429688 664.049804688 l 1,5,-1
 499.534179688 664.049804688 l 1,6,-1
 240.42578125 338.200195312 l 1,7,-1
 515.778320312 0 l 1,8,-1
 415.059570312 0 l 1,9,-1
 139.70703125 338.200195312 l 1,4,-1
213.622070312 -57 m 1,10,-1
 299.719726562 -57 l 1,11,-1
 222.555664062 -247 l 1,12,-1
 147.829101562 -247 l 1,13,-1
 213.622070312 -57 l 1,10,-1
EndSplineSet
EndChar

StartChar: L
Encoding: 76 76 92
Width: 442
VWidth: 949
GlyphClass: 2
Flags: W
LayerCount: 2
Fore
SplineSet
52.796875 664.049804688 m 1,0,-1
 135.645507812 664.049804688 l 1,1,-1
 135.645507812 80.75 l 1,2,-1
 423.182617188 80.75 l 1,3,-1
 423.182617188 0 l 1,4,-1
 52.796875 0 l 1,5,-1
 52.796875 664.049804688 l 1,0,-1
EndSplineSet
EndChar

StartChar: Lacute
Encoding: 313 313 93
Width: 442
VWidth: 949
GlyphClass: 2
Flags: W
LayerCount: 2
Fore
SplineSet
112.090820312 882.549804688 m 1,0,-1
 199.000976562 882.549804688 l 1,1,-1
 131.583984375 719.150390625 l 1,2,-1
 56.857421875 719.150390625 l 1,3,-1
 112.090820312 882.549804688 l 1,0,-1
52.796875 664.049804688 m 1,4,-1
 135.645507812 664.049804688 l 1,5,-1
 135.645507812 80.75 l 1,6,-1
 423.182617188 80.75 l 1,7,-1
 423.182617188 0 l 1,8,-1
 52.796875 0 l 1,9,-1
 52.796875 664.049804688 l 1,4,-1
EndSplineSet
EndChar

StartChar: Lcaron
Encoding: 317 317 94
Width: 442
VWidth: 949
GlyphClass: 2
Flags: W
LayerCount: 2
Fore
SplineSet
287.536132812 666.900390625 m 1,0,-1
 373.634765625 666.900390625 l 1,1,-1
 296.471679688 476.900390625 l 1,2,-1
 221.744140625 476.900390625 l 1,3,-1
 287.536132812 666.900390625 l 1,0,-1
52.796875 664.049804688 m 1,4,-1
 135.645507812 664.049804688 l 1,5,-1
 135.645507812 80.75 l 1,6,-1
 423.182617188 80.75 l 1,7,-1
 423.182617188 0 l 1,8,-1
 52.796875 0 l 1,9,-1
 52.796875 664.049804688 l 1,4,-1
EndSplineSet
EndChar

StartChar: Lcommaaccent
Encoding: 315 315 95
Width: 442
VWidth: 949
GlyphClass: 2
Flags: W
LayerCount: 2
Fore
SplineSet
52.796875 664.049804688 m 1,0,-1
 135.645507812 664.049804688 l 1,1,-1
 135.645507812 80.75 l 1,2,-1
 423.182617188 80.75 l 1,3,-1
 423.182617188 0 l 1,4,-1
 52.796875 0 l 1,5,-1
 52.796875 664.049804688 l 1,0,-1
199.813476562 -57 m 1,6,-1
 285.912109375 -57 l 1,7,-1
 208.748046875 -247 l 1,8,-1
 134.021484375 -247 l 1,9,-1
 199.813476562 -57 l 1,6,-1
EndSplineSet
EndChar

StartChar: Ldot
Encoding: 319 319 96
Width: 442
VWidth: 949
GlyphClass: 2
Flags: W
LayerCount: 2
Fore
SplineSet
52.796875 664.049804688 m 1,0,-1
 135.645507812 664.049804688 l 1,1,-1
 135.645507812 80.75 l 1,2,-1
 423.182617188 80.75 l 1,3,-1
 423.182617188 0 l 1,4,-1
 52.796875 0 l 1,5,-1
 52.796875 664.049804688 l 1,0,-1
261.950195312 324.900390625 m 128,-1,7
 247.736328125 341.049804688 247.736328125 341.049804688 247.736328125 363.849609375 c 256,8,9
 247.736328125 386.650390625 247.736328125 386.650390625 261.950195312 402.799804688 c 128,-1,10
 276.165039062 418.950195312 276.165039062 418.950195312 294.846679688 418.950195312 c 256,11,12
 313.528320312 418.950195312 313.528320312 418.950195312 327.743164062 402.799804688 c 128,-1,13
 341.95703125 386.650390625 341.95703125 386.650390625 341.95703125 363.849609375 c 256,14,15
 341.95703125 341.049804688 341.95703125 341.049804688 327.743164062 324.900390625 c 128,-1,16
 313.528320312 308.75 313.528320312 308.75 294.846679688 308.75 c 256,17,6
 276.165039062 308.75 276.165039062 308.75 261.950195312 324.900390625 c 128,-1,7
EndSplineSet
Ligature2: "Ligature Substitution lookup 18 subtable" L periodcentered
EndChar

StartChar: uni1E36
Encoding: 7734 7734 97
Width: 442
VWidth: 949
GlyphClass: 2
Flags: W
LayerCount: 2
Fore
SplineSet
52.796875 664.049804688 m 1,0,-1
 135.645507812 664.049804688 l 1,1,-1
 135.645507812 80.75 l 1,2,-1
 423.182617188 80.75 l 1,3,-1
 423.182617188 0 l 1,4,-1
 52.796875 0 l 1,5,-1
 52.796875 664.049804688 l 1,0,-1
188.03515625 -141.549804688 m 128,-1,7
 173.821289062 -125.400390625 173.821289062 -125.400390625 173.821289062 -102.599609375 c 256,8,9
 173.821289062 -79.7998046875 173.821289062 -79.7998046875 188.03515625 -63.650390625 c 128,-1,10
 202.25 -47.5 202.25 -47.5 221.744140625 -47.5 c 0,11,12
 240.42578125 -47.5 240.42578125 -47.5 254.234375 -63.650390625 c 128,-1,13
 268.04296875 -79.7998046875 268.04296875 -79.7998046875 268.04296875 -102.599609375 c 256,14,15
 268.04296875 -125.400390625 268.04296875 -125.400390625 254.234375 -141.549804688 c 128,-1,16
 240.42578125 -157.700195312 240.42578125 -157.700195312 221.744140625 -157.700195312 c 0,17,6
 202.25 -157.700195312 202.25 -157.700195312 188.03515625 -141.549804688 c 128,-1,7
EndSplineSet
EndChar

StartChar: uni1E38
Encoding: 7736 7736 98
Width: 449
VWidth: 949
GlyphClass: 2
Flags: W
LayerCount: 2
Fore
SplineSet
56.857421875 799.900390625 m 1,0,-1
 310.279296875 799.900390625 l 1,1,-1
 310.279296875 734.349609375 l 1,2,-1
 56.857421875 734.349609375 l 1,3,-1
 56.857421875 799.900390625 l 1,0,-1
59.2939453125 664.049804688 m 1,4,-1
 142.143554688 664.049804688 l 1,5,-1
 142.143554688 80.75 l 1,6,-1
 429.6796875 80.75 l 1,7,-1
 429.6796875 0 l 1,8,-1
 59.2939453125 0 l 1,9,-1
 59.2939453125 664.049804688 l 1,4,-1
206.717773438 -141.549804688 m 128,-1,11
 192.502929688 -125.400390625 192.502929688 -125.400390625 192.502929688 -102.599609375 c 256,12,13
 192.502929688 -79.7998046875 192.502929688 -79.7998046875 206.717773438 -63.650390625 c 128,-1,14
 220.931640625 -47.5 220.931640625 -47.5 240.42578125 -47.5 c 0,15,16
 259.107421875 -47.5 259.107421875 -47.5 272.916015625 -63.650390625 c 128,-1,17
 286.724609375 -79.7998046875 286.724609375 -79.7998046875 286.724609375 -102.599609375 c 256,18,19
 286.724609375 -125.400390625 286.724609375 -125.400390625 272.916015625 -141.549804688 c 128,-1,20
 259.107421875 -157.700195312 259.107421875 -157.700195312 240.42578125 -157.700195312 c 0,21,10
 220.931640625 -157.700195312 220.931640625 -157.700195312 206.717773438 -141.549804688 c 128,-1,11
EndSplineSet
EndChar

StartChar: uni1E3A
Encoding: 7738 7738 99
Width: 442
VWidth: 949
GlyphClass: 2
Flags: W
LayerCount: 2
Fore
SplineSet
52.796875 664.049804688 m 1,0,-1
 135.645507812 664.049804688 l 1,1,-1
 135.645507812 80.75 l 1,2,-1
 423.182617188 80.75 l 1,3,-1
 423.182617188 0 l 1,4,-1
 52.796875 0 l 1,5,-1
 52.796875 664.049804688 l 1,0,-1
107.216796875 -67.4501953125 m 1,6,-1
 362.263671875 -67.4501953125 l 1,7,-1
 362.263671875 -133.950195312 l 1,8,-1
 107.216796875 -133.950195312 l 1,9,-1
 107.216796875 -67.4501953125 l 1,6,-1
EndSplineSet
EndChar

StartChar: Lslash
Encoding: 321 321 100
Width: 485
VWidth: 949
GlyphClass: 2
Flags: W
LayerCount: 2
Fore
SplineSet
95.033203125 281.200195312 m 1,0,-1
 12.18359375 238.450195312 l 1,1,-1
 12.18359375 329.650390625 l 1,2,-1
 95.033203125 372.400390625 l 1,3,-1
 95.033203125 664.049804688 l 1,4,-1
 177.881835938 664.049804688 l 1,5,-1
 177.881835938 416.099609375 l 1,6,-1
 309.467773438 485.450195312 l 1,7,-1
 309.467773438 394.25 l 1,8,-1
 177.881835938 324.900390625 l 1,9,-1
 177.881835938 80.75 l 1,10,-1
 465.418945312 80.75 l 1,11,-1
 465.418945312 0 l 1,12,-1
 95.033203125 0 l 1,13,-1
 95.033203125 281.200195312 l 1,0,-1
EndSplineSet
EndChar

StartChar: M
Encoding: 77 77 101
Width: 674
VWidth: 949
GlyphClass: 2
Flags: W
LayerCount: 2
Fore
SplineSet
52.796875 664.049804688 m 1,0,-1
 135.645507812 664.049804688 l 1,1,-1
 337.896484375 146.299804688 l 1,2,-1
 540.146484375 664.049804688 l 1,3,-1
 622.99609375 664.049804688 l 1,4,-1
 622.99609375 0 l 1,5,-1
 542.583984375 0 l 1,6,-1
 542.583984375 472.150390625 l 1,7,-1
 358.203125 0 l 1,8,-1
 317.590820312 0 l 1,9,-1
 132.396484375 472.150390625 l 1,10,-1
 132.396484375 0 l 1,11,-1
 52.796875 0 l 1,12,-1
 52.796875 664.049804688 l 1,0,-1
EndSplineSet
EndChar

StartChar: uni1E42
Encoding: 7746 7746 102
Width: 674
VWidth: 949
GlyphClass: 2
Flags: W
LayerCount: 2
Fore
SplineSet
52.796875 664.049804688 m 1,0,-1
 135.645507812 664.049804688 l 1,1,-1
 337.896484375 146.299804688 l 1,2,-1
 540.146484375 664.049804688 l 1,3,-1
 622.99609375 664.049804688 l 1,4,-1
 622.99609375 0 l 1,5,-1
 542.583984375 0 l 1,6,-1
 542.583984375 472.150390625 l 1,7,-1
 358.203125 0 l 1,8,-1
 317.590820312 0 l 1,9,-1
 132.396484375 472.150390625 l 1,10,-1
 132.396484375 0 l 1,11,-1
 52.796875 0 l 1,12,-1
 52.796875 664.049804688 l 1,0,-1
305 -141.549804688 m 128,-1,14
 290.78515625 -125.400390625 290.78515625 -125.400390625 290.78515625 -102.599609375 c 256,15,16
 290.78515625 -79.7998046875 290.78515625 -79.7998046875 305 -63.650390625 c 128,-1,17
 319.21484375 -47.5 319.21484375 -47.5 338.708007812 -47.5 c 0,18,19
 357.390625 -47.5 357.390625 -47.5 371.197265625 -63.650390625 c 128,-1,20
 385.005859375 -79.7998046875 385.005859375 -79.7998046875 385.005859375 -102.599609375 c 256,21,22
 385.005859375 -125.400390625 385.005859375 -125.400390625 371.197265625 -141.549804688 c 128,-1,23
 357.390625 -157.700195312 357.390625 -157.700195312 338.708007812 -157.700195312 c 0,24,13
 319.21484375 -157.700195312 319.21484375 -157.700195312 305 -141.549804688 c 128,-1,14
EndSplineSet
EndChar

StartChar: N
Encoding: 78 78 103
Width: 556
VWidth: 949
GlyphClass: 2
Flags: W
LayerCount: 2
Fore
SplineSet
52.796875 664.049804688 m 1,0,-1
 131.583984375 664.049804688 l 1,1,-1
 420.74609375 163.400390625 l 1,2,-1
 420.74609375 664.049804688 l 1,3,-1
 504.407226562 664.049804688 l 1,4,-1
 504.407226562 0 l 1,5,-1
 424.806640625 0 l 1,6,-1
 135.645507812 500.650390625 l 1,7,-1
 135.645507812 0 l 1,8,-1
 52.796875 0 l 1,9,-1
 52.796875 664.049804688 l 1,0,-1
EndSplineSet
EndChar

StartChar: Nacute
Encoding: 323 323 104
Width: 556
VWidth: 949
GlyphClass: 2
Flags: W
LayerCount: 2
Fore
SplineSet
290.78515625 867.349609375 m 1,0,-1
 377.696289062 867.349609375 l 1,1,-1
 310.279296875 703.950195312 l 1,2,-1
 235.552734375 703.950195312 l 1,3,-1
 290.78515625 867.349609375 l 1,0,-1
52.796875 664.049804688 m 1,4,-1
 131.583984375 664.049804688 l 1,5,-1
 420.74609375 163.400390625 l 1,6,-1
 420.74609375 664.049804688 l 1,7,-1
 504.407226562 664.049804688 l 1,8,-1
 504.407226562 0 l 1,9,-1
 424.806640625 0 l 1,10,-1
 135.645507812 500.650390625 l 1,11,-1
 135.645507812 0 l 1,12,-1
 52.796875 0 l 1,13,-1
 52.796875 664.049804688 l 1,4,-1
EndSplineSet
EndChar

StartChar: Ncaron
Encoding: 327 327 105
Width: 556
VWidth: 949
GlyphClass: 2
Flags: W
LayerCount: 2
Fore
SplineSet
128.334960938 862.599609375 m 1,0,-1
 211.997070312 862.599609375 l 1,1,-1
 280.225585938 760.950195312 l 1,2,-1
 348.455078125 862.599609375 l 1,3,-1
 431.305664062 862.599609375 l 1,4,-1
 315.96484375 704.900390625 l 1,5,-1
 243.674804688 704.900390625 l 1,6,-1
 128.334960938 862.599609375 l 1,0,-1
52.796875 664.049804688 m 1,7,-1
 131.583984375 664.049804688 l 1,8,-1
 420.74609375 163.400390625 l 1,9,-1
 420.74609375 664.049804688 l 1,10,-1
 504.407226562 664.049804688 l 1,11,-1
 504.407226562 0 l 1,12,-1
 424.806640625 0 l 1,13,-1
 135.645507812 500.650390625 l 1,14,-1
 135.645507812 0 l 1,15,-1
 52.796875 0 l 1,16,-1
 52.796875 664.049804688 l 1,7,-1
EndSplineSet
EndChar

StartChar: Ncommaaccent
Encoding: 325 325 106
Width: 556
VWidth: 949
GlyphClass: 2
Flags: W
LayerCount: 2
Fore
SplineSet
52.796875 664.049804688 m 1,0,-1
 131.583984375 664.049804688 l 1,1,-1
 420.74609375 163.400390625 l 1,2,-1
 420.74609375 664.049804688 l 1,3,-1
 504.407226562 664.049804688 l 1,4,-1
 504.407226562 0 l 1,5,-1
 424.806640625 0 l 1,6,-1
 135.645507812 500.650390625 l 1,7,-1
 135.645507812 0 l 1,8,-1
 52.796875 0 l 1,9,-1
 52.796875 664.049804688 l 1,0,-1
246.112304688 -57 m 1,10,-1
 332.209960938 -57 l 1,11,-1
 255.045898438 -247 l 1,12,-1
 180.319335938 -247 l 1,13,-1
 246.112304688 -57 l 1,10,-1
EndSplineSet
EndChar

StartChar: uni1E44
Encoding: 7748 7748 107
Width: 556
VWidth: 949
GlyphClass: 2
Flags: W
LayerCount: 2
Fore
SplineSet
250.579101562 720.099609375 m 128,-1,1
 236.365234375 736.25 236.365234375 736.25 236.365234375 759.049804688 c 256,2,3
 236.365234375 781.849609375 236.365234375 781.849609375 250.579101562 798 c 128,-1,4
 264.793945312 814.150390625 264.793945312 814.150390625 284.287109375 814.150390625 c 0,5,6
 302.969726562 814.150390625 302.969726562 814.150390625 316.77734375 798 c 128,-1,7
 330.584960938 781.849609375 330.584960938 781.849609375 330.584960938 759.049804688 c 256,8,9
 330.584960938 736.25 330.584960938 736.25 316.77734375 720.099609375 c 128,-1,10
 302.969726562 703.950195312 302.969726562 703.950195312 284.287109375 703.950195312 c 0,11,0
 264.793945312 703.950195312 264.793945312 703.950195312 250.579101562 720.099609375 c 128,-1,1
52.796875 664.049804688 m 1,12,-1
 131.583984375 664.049804688 l 1,13,-1
 420.74609375 163.400390625 l 1,14,-1
 420.74609375 664.049804688 l 1,15,-1
 504.407226562 664.049804688 l 1,16,-1
 504.407226562 0 l 1,17,-1
 424.806640625 0 l 1,18,-1
 135.645507812 500.650390625 l 1,19,-1
 135.645507812 0 l 1,20,-1
 52.796875 0 l 1,21,-1
 52.796875 664.049804688 l 1,12,-1
EndSplineSet
EndChar

StartChar: uni1E46
Encoding: 7750 7750 108
Width: 556
VWidth: 949
GlyphClass: 2
Flags: W
LayerCount: 2
Fore
SplineSet
52.796875 664.049804688 m 1,0,-1
 131.583984375 664.049804688 l 1,1,-1
 420.74609375 163.400390625 l 1,2,-1
 420.74609375 664.049804688 l 1,3,-1
 504.407226562 664.049804688 l 1,4,-1
 504.407226562 0 l 1,5,-1
 424.806640625 0 l 1,6,-1
 135.645507812 500.650390625 l 1,7,-1
 135.645507812 0 l 1,8,-1
 52.796875 0 l 1,9,-1
 52.796875 664.049804688 l 1,0,-1
248.142578125 -141.549804688 m 128,-1,11
 233.927734375 -125.400390625 233.927734375 -125.400390625 233.927734375 -102.599609375 c 256,12,13
 233.927734375 -79.7998046875 233.927734375 -79.7998046875 248.142578125 -63.650390625 c 128,-1,14
 262.356445312 -47.5 262.356445312 -47.5 281.850585938 -47.5 c 0,15,16
 300.532226562 -47.5 300.532226562 -47.5 314.340820312 -63.650390625 c 128,-1,17
 328.1484375 -79.7998046875 328.1484375 -79.7998046875 328.1484375 -102.599609375 c 256,18,19
 328.1484375 -125.400390625 328.1484375 -125.400390625 314.340820312 -141.549804688 c 128,-1,20
 300.532226562 -157.700195312 300.532226562 -157.700195312 281.850585938 -157.700195312 c 0,21,10
 262.356445312 -157.700195312 262.356445312 -157.700195312 248.142578125 -141.549804688 c 128,-1,11
EndSplineSet
EndChar

StartChar: Eng
Encoding: 330 330 109
Width: 556
VWidth: 949
GlyphClass: 2
Flags: W
LayerCount: 2
Fore
SplineSet
304.59375 -209 m 1,1,-1
 304.59375 -129.200195312 l 1,2,3
 327.336914062 -141.549804688 327.336914062 -141.549804688 353.328125 -141.549804688 c 0,4,5
 389.880859375 -141.549804688 389.880859375 -141.549804688 405.71875 -121.125 c 128,-1,6
 421.556640625 -100.700195312 421.556640625 -100.700195312 421.556640625 -55.099609375 c 2,7,-1
 421.556640625 5.7001953125 l 1,8,-1
 135.645507812 500.650390625 l 1,9,-1
 135.645507812 0 l 1,10,-1
 52.796875 0 l 1,11,-1
 52.796875 664.049804688 l 1,12,-1
 131.583984375 664.049804688 l 1,13,-1
 420.74609375 163.400390625 l 1,14,-1
 420.74609375 664.049804688 l 1,15,-1
 504.407226562 664.049804688 l 1,16,-1
 504.407226562 -60.7998046875 l 2,17,18
 504.407226562 -139.650390625 504.407226562 -139.650390625 467.043945312 -179.549804688 c 128,-1,19
 429.6796875 -219.450195312 429.6796875 -219.450195312 366.325195312 -219.450195312 c 0,20,0
 329.774414062 -219.450195312 329.774414062 -219.450195312 304.59375 -209 c 1,1,-1
EndSplineSet
EndChar

StartChar: uni1E48
Encoding: 7752 7752 110
Width: 556
VWidth: 949
GlyphClass: 2
Flags: W
LayerCount: 2
Fore
SplineSet
52.796875 664.049804688 m 1,0,-1
 131.583984375 664.049804688 l 1,1,-1
 420.74609375 163.400390625 l 1,2,-1
 420.74609375 664.049804688 l 1,3,-1
 504.407226562 664.049804688 l 1,4,-1
 504.407226562 0 l 1,5,-1
 424.806640625 0 l 1,6,-1
 135.645507812 500.650390625 l 1,7,-1
 135.645507812 0 l 1,8,-1
 52.796875 0 l 1,9,-1
 52.796875 664.049804688 l 1,0,-1
158.388671875 -67.4501953125 m 1,10,-1
 413.434570312 -67.4501953125 l 1,11,-1
 413.434570312 -133.950195312 l 1,12,-1
 158.388671875 -133.950195312 l 1,13,-1
 158.388671875 -67.4501953125 l 1,10,-1
EndSplineSet
EndChar

StartChar: Ntilde
Encoding: 209 209 111
Width: 556
VWidth: 949
GlyphClass: 2
Flags: W
LayerCount: 2
Fore
SplineSet
133.208984375 786.599609375 m 1,0,1
 158.388671875 827.450195312 158.388671875 827.450195312 212.809570312 827.450195312 c 0,2,3
 230.678710938 827.450195312 230.678710938 827.450195312 247.330078125 821.75 c 128,-1,4
 263.981445312 816.049804688 263.981445312 816.049804688 289.97265625 803.700195312 c 0,5,6
 311.903320312 792.299804688 311.903320312 792.299804688 328.555664062 786.125 c 128,-1,7
 345.206054688 779.950195312 345.206054688 779.950195312 363.075195312 779.950195312 c 0,8,9
 387.443359375 779.950195312 387.443359375 779.950195312 406.9375 790.875 c 128,-1,10
 426.431640625 801.799804688 426.431640625 801.799804688 441.86328125 828.400390625 c 1,11,-1
 441.86328125 746.700195312 l 1,12,13
 417.49609375 706.799804688 417.49609375 706.799804688 363.075195312 706.799804688 c 0,14,15
 342.76953125 706.799804688 342.76953125 706.799804688 324.494140625 712.974609375 c 128,-1,16
 306.217773438 719.150390625 306.217773438 719.150390625 282.663085938 731.5 c 0,17,18
 259.107421875 742.900390625 259.107421875 742.900390625 244.487304688 748.599609375 c 128,-1,19
 229.866210938 754.299804688 229.866210938 754.299804688 212.809570312 754.299804688 c 0,20,21
 189.25390625 754.299804688 189.25390625 754.299804688 169.759765625 743.375 c 128,-1,22
 150.265625 732.450195312 150.265625 732.450195312 133.208984375 704.900390625 c 1,23,-1
 133.208984375 786.599609375 l 1,0,1
52.796875 664.049804688 m 1,24,-1
 131.583984375 664.049804688 l 1,25,-1
 420.74609375 163.400390625 l 1,26,-1
 420.74609375 664.049804688 l 1,27,-1
 504.407226562 664.049804688 l 1,28,-1
 504.407226562 0 l 1,29,-1
 424.806640625 0 l 1,30,-1
 135.645507812 500.650390625 l 1,31,-1
 135.645507812 0 l 1,32,-1
 52.796875 0 l 1,33,-1
 52.796875 664.049804688 l 1,24,-1
EndSplineSet
EndChar

StartChar: O
Encoding: 79 79 112
Width: 669
VWidth: 949
GlyphClass: 2
Flags: W
LayerCount: 2
Fore
SplineSet
182.755859375 28.974609375 m 128,-1,1
 114.528320312 72.2001953125 114.528320312 72.2001953125 75.5400390625 151.049804688 c 128,-1,2
 36.55078125 229.900390625 36.55078125 229.900390625 36.55078125 331.549804688 c 256,3,4
 36.55078125 433.200195312 36.55078125 433.200195312 75.5400390625 512.049804688 c 128,-1,5
 114.528320312 590.900390625 114.528320312 590.900390625 182.755859375 634.599609375 c 128,-1,6
 250.984375 678.299804688 250.984375 678.299804688 335.458984375 678.299804688 c 256,7,8
 419.93359375 678.299804688 419.93359375 678.299804688 488.163085938 634.599609375 c 128,-1,9
 556.390625 590.900390625 556.390625 590.900390625 595.37890625 512.049804688 c 128,-1,10
 634.368164062 433.200195312 634.368164062 433.200195312 634.368164062 331.549804688 c 256,11,12
 634.368164062 229.900390625 634.368164062 229.900390625 595.37890625 151.049804688 c 128,-1,13
 556.390625 72.2001953125 556.390625 72.2001953125 488.163085938 28.974609375 c 128,-1,14
 419.93359375 -14.25 419.93359375 -14.25 335.458984375 -14.25 c 256,15,0
 250.984375 -14.25 250.984375 -14.25 182.755859375 28.974609375 c 128,-1,1
444.70703125 104.974609375 m 128,-1,17
 493.84765625 136.799804688 493.84765625 136.799804688 522.27734375 195.224609375 c 128,-1,18
 550.706054688 253.650390625 550.706054688 253.650390625 550.706054688 331.549804688 c 0,19,20
 550.706054688 408.5 550.706054688 408.5 522.68359375 466.924804688 c 128,-1,21
 494.659179688 525.349609375 494.659179688 525.349609375 445.924804688 557.174804688 c 128,-1,22
 397.190429688 589 397.190429688 589 337.083984375 589 c 0,23,24
 276.165039062 589 276.165039062 589 227.024414062 557.650390625 c 128,-1,25
 177.881835938 526.299804688 177.881835938 526.299804688 149.047851562 467.400390625 c 128,-1,26
 120.212890625 408.5 120.212890625 408.5 120.212890625 331.549804688 c 0,27,28
 120.212890625 253.650390625 120.212890625 253.650390625 148.641601562 195.224609375 c 128,-1,29
 177.071289062 136.799804688 177.071289062 136.799804688 226.211914062 104.974609375 c 128,-1,30
 275.352539062 73.150390625 275.352539062 73.150390625 335.458984375 73.150390625 c 256,31,16
 395.565429688 73.150390625 395.565429688 73.150390625 444.70703125 104.974609375 c 128,-1,17
EndSplineSet
Substitution2: "Single Substitution lookup 19 subtable" ordmasculine
Substitution2: "'aalt' Access All Alternates lookup 0 subtable" ordmasculine
EndChar

StartChar: Oacute
Encoding: 211 211 113
Width: 669
VWidth: 949
GlyphClass: 2
Flags: W
LayerCount: 2
Fore
SplineSet
352.515625 867.349609375 m 1,0,-1
 439.427734375 867.349609375 l 1,1,-1
 372.010742188 703.950195312 l 1,2,-1
 297.284179688 703.950195312 l 1,3,-1
 352.515625 867.349609375 l 1,0,-1
182.755859375 28.974609375 m 128,-1,5
 114.528320312 72.2001953125 114.528320312 72.2001953125 75.5400390625 151.049804688 c 128,-1,6
 36.55078125 229.900390625 36.55078125 229.900390625 36.55078125 331.549804688 c 256,7,8
 36.55078125 433.200195312 36.55078125 433.200195312 75.5400390625 512.049804688 c 128,-1,9
 114.528320312 590.900390625 114.528320312 590.900390625 182.755859375 634.599609375 c 128,-1,10
 250.984375 678.299804688 250.984375 678.299804688 335.458984375 678.299804688 c 256,11,12
 419.93359375 678.299804688 419.93359375 678.299804688 488.163085938 634.599609375 c 128,-1,13
 556.390625 590.900390625 556.390625 590.900390625 595.37890625 512.049804688 c 128,-1,14
 634.368164062 433.200195312 634.368164062 433.200195312 634.368164062 331.549804688 c 256,15,16
 634.368164062 229.900390625 634.368164062 229.900390625 595.37890625 151.049804688 c 128,-1,17
 556.390625 72.2001953125 556.390625 72.2001953125 488.163085938 28.974609375 c 128,-1,18
 419.93359375 -14.25 419.93359375 -14.25 335.458984375 -14.25 c 256,19,4
 250.984375 -14.25 250.984375 -14.25 182.755859375 28.974609375 c 128,-1,5
444.70703125 104.974609375 m 128,-1,21
 493.84765625 136.799804688 493.84765625 136.799804688 522.27734375 195.224609375 c 128,-1,22
 550.706054688 253.650390625 550.706054688 253.650390625 550.706054688 331.549804688 c 0,23,24
 550.706054688 408.5 550.706054688 408.5 522.68359375 466.924804688 c 128,-1,25
 494.659179688 525.349609375 494.659179688 525.349609375 445.924804688 557.174804688 c 128,-1,26
 397.190429688 589 397.190429688 589 337.083984375 589 c 0,27,28
 276.165039062 589 276.165039062 589 227.024414062 557.650390625 c 128,-1,29
 177.881835938 526.299804688 177.881835938 526.299804688 149.047851562 467.400390625 c 128,-1,30
 120.212890625 408.5 120.212890625 408.5 120.212890625 331.549804688 c 0,31,32
 120.212890625 253.650390625 120.212890625 253.650390625 148.641601562 195.224609375 c 128,-1,33
 177.071289062 136.799804688 177.071289062 136.799804688 226.211914062 104.974609375 c 128,-1,34
 275.352539062 73.150390625 275.352539062 73.150390625 335.458984375 73.150390625 c 256,35,20
 395.565429688 73.150390625 395.565429688 73.150390625 444.70703125 104.974609375 c 128,-1,21
EndSplineSet
EndChar

StartChar: Obreve
Encoding: 334 334 114
Width: 669
VWidth: 949
GlyphClass: 2
Flags: W
LayerCount: 2
Fore
SplineSet
245.706054688 741.950195312 m 128,-1,1
 212.809570312 779 212.809570312 779 212.809570312 837.900390625 c 1,2,-1
 276.165039062 837.900390625 l 1,3,4
 276.165039062 805.599609375 276.165039062 805.599609375 291.596679688 788.025390625 c 128,-1,5
 307.03125 770.450195312 307.03125 770.450195312 335.458984375 770.450195312 c 256,6,7
 363.887695312 770.450195312 363.887695312 770.450195312 379.321289062 788.025390625 c 128,-1,8
 394.75390625 805.599609375 394.75390625 805.599609375 394.75390625 837.900390625 c 1,9,-1
 457.296875 837.900390625 l 1,10,11
 457.296875 779 457.296875 779 424.400390625 741.950195312 c 128,-1,12
 391.50390625 704.900390625 391.50390625 704.900390625 335.458984375 704.900390625 c 0,13,0
 278.602539062 704.900390625 278.602539062 704.900390625 245.706054688 741.950195312 c 128,-1,1
182.755859375 28.974609375 m 128,-1,15
 114.528320312 72.2001953125 114.528320312 72.2001953125 75.5400390625 151.049804688 c 128,-1,16
 36.55078125 229.900390625 36.55078125 229.900390625 36.55078125 331.549804688 c 256,17,18
 36.55078125 433.200195312 36.55078125 433.200195312 75.5400390625 512.049804688 c 128,-1,19
 114.528320312 590.900390625 114.528320312 590.900390625 182.755859375 634.599609375 c 128,-1,20
 250.984375 678.299804688 250.984375 678.299804688 335.458984375 678.299804688 c 256,21,22
 419.93359375 678.299804688 419.93359375 678.299804688 488.163085938 634.599609375 c 128,-1,23
 556.390625 590.900390625 556.390625 590.900390625 595.37890625 512.049804688 c 128,-1,24
 634.368164062 433.200195312 634.368164062 433.200195312 634.368164062 331.549804688 c 256,25,26
 634.368164062 229.900390625 634.368164062 229.900390625 595.37890625 151.049804688 c 128,-1,27
 556.390625 72.2001953125 556.390625 72.2001953125 488.163085938 28.974609375 c 128,-1,28
 419.93359375 -14.25 419.93359375 -14.25 335.458984375 -14.25 c 256,29,14
 250.984375 -14.25 250.984375 -14.25 182.755859375 28.974609375 c 128,-1,15
444.70703125 104.974609375 m 128,-1,31
 493.84765625 136.799804688 493.84765625 136.799804688 522.27734375 195.224609375 c 128,-1,32
 550.706054688 253.650390625 550.706054688 253.650390625 550.706054688 331.549804688 c 0,33,34
 550.706054688 408.5 550.706054688 408.5 522.68359375 466.924804688 c 128,-1,35
 494.659179688 525.349609375 494.659179688 525.349609375 445.924804688 557.174804688 c 128,-1,36
 397.190429688 589 397.190429688 589 337.083984375 589 c 0,37,38
 276.165039062 589 276.165039062 589 227.024414062 557.650390625 c 128,-1,39
 177.881835938 526.299804688 177.881835938 526.299804688 149.047851562 467.400390625 c 128,-1,40
 120.212890625 408.5 120.212890625 408.5 120.212890625 331.549804688 c 0,41,42
 120.212890625 253.650390625 120.212890625 253.650390625 148.641601562 195.224609375 c 128,-1,43
 177.071289062 136.799804688 177.071289062 136.799804688 226.211914062 104.974609375 c 128,-1,44
 275.352539062 73.150390625 275.352539062 73.150390625 335.458984375 73.150390625 c 256,45,30
 395.565429688 73.150390625 395.565429688 73.150390625 444.70703125 104.974609375 c 128,-1,31
EndSplineSet
EndChar

StartChar: uni01D1
Encoding: 465 465 115
Width: 669
VWidth: 949
GlyphClass: 2
Flags: W
LayerCount: 2
Fore
SplineSet
184.380859375 862.599609375 m 1,0,-1
 268.04296875 862.599609375 l 1,1,-1
 336.271484375 760.950195312 l 1,2,-1
 404.500976562 862.599609375 l 1,3,-1
 487.349609375 862.599609375 l 1,4,-1
 372.010742188 704.900390625 l 1,5,-1
 299.719726562 704.900390625 l 1,6,-1
 184.380859375 862.599609375 l 1,0,-1
182.755859375 28.974609375 m 128,-1,8
 114.528320312 72.2001953125 114.528320312 72.2001953125 75.5400390625 151.049804688 c 128,-1,9
 36.55078125 229.900390625 36.55078125 229.900390625 36.55078125 331.549804688 c 256,10,11
 36.55078125 433.200195312 36.55078125 433.200195312 75.5400390625 512.049804688 c 128,-1,12
 114.528320312 590.900390625 114.528320312 590.900390625 182.755859375 634.599609375 c 128,-1,13
 250.984375 678.299804688 250.984375 678.299804688 335.458984375 678.299804688 c 256,14,15
 419.93359375 678.299804688 419.93359375 678.299804688 488.163085938 634.599609375 c 128,-1,16
 556.390625 590.900390625 556.390625 590.900390625 595.37890625 512.049804688 c 128,-1,17
 634.368164062 433.200195312 634.368164062 433.200195312 634.368164062 331.549804688 c 256,18,19
 634.368164062 229.900390625 634.368164062 229.900390625 595.37890625 151.049804688 c 128,-1,20
 556.390625 72.2001953125 556.390625 72.2001953125 488.163085938 28.974609375 c 128,-1,21
 419.93359375 -14.25 419.93359375 -14.25 335.458984375 -14.25 c 256,22,7
 250.984375 -14.25 250.984375 -14.25 182.755859375 28.974609375 c 128,-1,8
444.70703125 104.974609375 m 128,-1,24
 493.84765625 136.799804688 493.84765625 136.799804688 522.27734375 195.224609375 c 128,-1,25
 550.706054688 253.650390625 550.706054688 253.650390625 550.706054688 331.549804688 c 0,26,27
 550.706054688 408.5 550.706054688 408.5 522.68359375 466.924804688 c 128,-1,28
 494.659179688 525.349609375 494.659179688 525.349609375 445.924804688 557.174804688 c 128,-1,29
 397.190429688 589 397.190429688 589 337.083984375 589 c 0,30,31
 276.165039062 589 276.165039062 589 227.024414062 557.650390625 c 128,-1,32
 177.881835938 526.299804688 177.881835938 526.299804688 149.047851562 467.400390625 c 128,-1,33
 120.212890625 408.5 120.212890625 408.5 120.212890625 331.549804688 c 0,34,35
 120.212890625 253.650390625 120.212890625 253.650390625 148.641601562 195.224609375 c 128,-1,36
 177.071289062 136.799804688 177.071289062 136.799804688 226.211914062 104.974609375 c 128,-1,37
 275.352539062 73.150390625 275.352539062 73.150390625 335.458984375 73.150390625 c 256,38,23
 395.565429688 73.150390625 395.565429688 73.150390625 444.70703125 104.974609375 c 128,-1,24
EndSplineSet
EndChar

StartChar: Ocircumflex
Encoding: 212 212 116
Width: 669
VWidth: 949
GlyphClass: 2
Flags: W
LayerCount: 2
Fore
SplineSet
299.719726562 861.650390625 m 1,0,-1
 372.010742188 861.650390625 l 1,1,-1
 487.349609375 703.950195312 l 1,2,-1
 404.500976562 703.950195312 l 1,3,-1
 336.271484375 805.599609375 l 1,4,-1
 268.04296875 703.950195312 l 1,5,-1
 184.380859375 703.950195312 l 1,6,-1
 299.719726562 861.650390625 l 1,0,-1
182.755859375 28.974609375 m 128,-1,8
 114.528320312 72.2001953125 114.528320312 72.2001953125 75.5400390625 151.049804688 c 128,-1,9
 36.55078125 229.900390625 36.55078125 229.900390625 36.55078125 331.549804688 c 256,10,11
 36.55078125 433.200195312 36.55078125 433.200195312 75.5400390625 512.049804688 c 128,-1,12
 114.528320312 590.900390625 114.528320312 590.900390625 182.755859375 634.599609375 c 128,-1,13
 250.984375 678.299804688 250.984375 678.299804688 335.458984375 678.299804688 c 256,14,15
 419.93359375 678.299804688 419.93359375 678.299804688 488.163085938 634.599609375 c 128,-1,16
 556.390625 590.900390625 556.390625 590.900390625 595.37890625 512.049804688 c 128,-1,17
 634.368164062 433.200195312 634.368164062 433.200195312 634.368164062 331.549804688 c 256,18,19
 634.368164062 229.900390625 634.368164062 229.900390625 595.37890625 151.049804688 c 128,-1,20
 556.390625 72.2001953125 556.390625 72.2001953125 488.163085938 28.974609375 c 128,-1,21
 419.93359375 -14.25 419.93359375 -14.25 335.458984375 -14.25 c 256,22,7
 250.984375 -14.25 250.984375 -14.25 182.755859375 28.974609375 c 128,-1,8
444.70703125 104.974609375 m 128,-1,24
 493.84765625 136.799804688 493.84765625 136.799804688 522.27734375 195.224609375 c 128,-1,25
 550.706054688 253.650390625 550.706054688 253.650390625 550.706054688 331.549804688 c 0,26,27
 550.706054688 408.5 550.706054688 408.5 522.68359375 466.924804688 c 128,-1,28
 494.659179688 525.349609375 494.659179688 525.349609375 445.924804688 557.174804688 c 128,-1,29
 397.190429688 589 397.190429688 589 337.083984375 589 c 0,30,31
 276.165039062 589 276.165039062 589 227.024414062 557.650390625 c 128,-1,32
 177.881835938 526.299804688 177.881835938 526.299804688 149.047851562 467.400390625 c 128,-1,33
 120.212890625 408.5 120.212890625 408.5 120.212890625 331.549804688 c 0,34,35
 120.212890625 253.650390625 120.212890625 253.650390625 148.641601562 195.224609375 c 128,-1,36
 177.071289062 136.799804688 177.071289062 136.799804688 226.211914062 104.974609375 c 128,-1,37
 275.352539062 73.150390625 275.352539062 73.150390625 335.458984375 73.150390625 c 256,38,23
 395.565429688 73.150390625 395.565429688 73.150390625 444.70703125 104.974609375 c 128,-1,24
EndSplineSet
EndChar

StartChar: uni1ED0
Encoding: 7888 7888 117
Width: 669
VWidth: 949
GlyphClass: 2
Flags: W
LayerCount: 2
Fore
SplineSet
488.163085938 917.700195312 m 1,0,-1
 562.077148438 917.700195312 l 1,1,-1
 497.909179688 799.900390625 l 1,2,-1
 434.553710938 799.900390625 l 1,3,-1
 488.163085938 917.700195312 l 1,0,-1
309.467773438 841.700195312 m 1,4,-1
 379.321289062 841.700195312 l 1,5,-1
 491.412109375 703.950195312 l 1,6,-1
 410.999023438 703.950195312 l 1,7,-1
 344.393554688 789.450195312 l 1,8,-1
 277.790039062 703.950195312 l 1,9,-1
 197.376953125 703.950195312 l 1,10,-1
 309.467773438 841.700195312 l 1,4,-1
182.755859375 28.974609375 m 128,-1,12
 114.528320312 72.2001953125 114.528320312 72.2001953125 75.5400390625 151.049804688 c 128,-1,13
 36.55078125 229.900390625 36.55078125 229.900390625 36.55078125 331.549804688 c 256,14,15
 36.55078125 433.200195312 36.55078125 433.200195312 75.5400390625 512.049804688 c 128,-1,16
 114.528320312 590.900390625 114.528320312 590.900390625 182.755859375 634.599609375 c 128,-1,17
 250.984375 678.299804688 250.984375 678.299804688 335.458984375 678.299804688 c 256,18,19
 419.93359375 678.299804688 419.93359375 678.299804688 488.163085938 634.599609375 c 128,-1,20
 556.390625 590.900390625 556.390625 590.900390625 595.37890625 512.049804688 c 128,-1,21
 634.368164062 433.200195312 634.368164062 433.200195312 634.368164062 331.549804688 c 256,22,23
 634.368164062 229.900390625 634.368164062 229.900390625 595.37890625 151.049804688 c 128,-1,24
 556.390625 72.2001953125 556.390625 72.2001953125 488.163085938 28.974609375 c 128,-1,25
 419.93359375 -14.25 419.93359375 -14.25 335.458984375 -14.25 c 256,26,11
 250.984375 -14.25 250.984375 -14.25 182.755859375 28.974609375 c 128,-1,12
444.70703125 104.974609375 m 128,-1,28
 493.84765625 136.799804688 493.84765625 136.799804688 522.27734375 195.224609375 c 128,-1,29
 550.706054688 253.650390625 550.706054688 253.650390625 550.706054688 331.549804688 c 0,30,31
 550.706054688 408.5 550.706054688 408.5 522.68359375 466.924804688 c 128,-1,32
 494.659179688 525.349609375 494.659179688 525.349609375 445.924804688 557.174804688 c 128,-1,33
 397.190429688 589 397.190429688 589 337.083984375 589 c 0,34,35
 276.165039062 589 276.165039062 589 227.024414062 557.650390625 c 128,-1,36
 177.881835938 526.299804688 177.881835938 526.299804688 149.047851562 467.400390625 c 128,-1,37
 120.212890625 408.5 120.212890625 408.5 120.212890625 331.549804688 c 0,38,39
 120.212890625 253.650390625 120.212890625 253.650390625 148.641601562 195.224609375 c 128,-1,40
 177.071289062 136.799804688 177.071289062 136.799804688 226.211914062 104.974609375 c 128,-1,41
 275.352539062 73.150390625 275.352539062 73.150390625 335.458984375 73.150390625 c 256,42,27
 395.565429688 73.150390625 395.565429688 73.150390625 444.70703125 104.974609375 c 128,-1,28
EndSplineSet
EndChar

StartChar: uni1ED8
Encoding: 7896 7896 118
Width: 669
VWidth: 949
GlyphClass: 2
Flags: W
LayerCount: 2
Fore
SplineSet
298.908203125 861.650390625 m 1,0,-1
 371.197265625 861.650390625 l 1,1,-1
 486.537109375 703.950195312 l 1,2,-1
 403.6875 703.950195312 l 1,3,-1
 335.458984375 805.599609375 l 1,4,-1
 267.23046875 703.950195312 l 1,5,-1
 183.569335938 703.950195312 l 1,6,-1
 298.908203125 861.650390625 l 1,0,-1
182.755859375 28.974609375 m 128,-1,8
 114.528320312 72.2001953125 114.528320312 72.2001953125 75.5400390625 151.049804688 c 128,-1,9
 36.55078125 229.900390625 36.55078125 229.900390625 36.55078125 331.549804688 c 256,10,11
 36.55078125 433.200195312 36.55078125 433.200195312 75.5400390625 512.049804688 c 128,-1,12
 114.528320312 590.900390625 114.528320312 590.900390625 182.755859375 634.599609375 c 128,-1,13
 250.984375 678.299804688 250.984375 678.299804688 335.458984375 678.299804688 c 256,14,15
 419.93359375 678.299804688 419.93359375 678.299804688 488.163085938 634.599609375 c 128,-1,16
 556.390625 590.900390625 556.390625 590.900390625 595.37890625 512.049804688 c 128,-1,17
 634.368164062 433.200195312 634.368164062 433.200195312 634.368164062 331.549804688 c 256,18,19
 634.368164062 229.900390625 634.368164062 229.900390625 595.37890625 151.049804688 c 128,-1,20
 556.390625 72.2001953125 556.390625 72.2001953125 488.163085938 28.974609375 c 128,-1,21
 419.93359375 -14.25 419.93359375 -14.25 335.458984375 -14.25 c 256,22,7
 250.984375 -14.25 250.984375 -14.25 182.755859375 28.974609375 c 128,-1,8
444.70703125 104.974609375 m 128,-1,24
 493.84765625 136.799804688 493.84765625 136.799804688 522.27734375 195.224609375 c 128,-1,25
 550.706054688 253.650390625 550.706054688 253.650390625 550.706054688 331.549804688 c 0,26,27
 550.706054688 408.5 550.706054688 408.5 522.68359375 466.924804688 c 128,-1,28
 494.659179688 525.349609375 494.659179688 525.349609375 445.924804688 557.174804688 c 128,-1,29
 397.190429688 589 397.190429688 589 337.083984375 589 c 0,30,31
 276.165039062 589 276.165039062 589 227.024414062 557.650390625 c 128,-1,32
 177.881835938 526.299804688 177.881835938 526.299804688 149.047851562 467.400390625 c 128,-1,33
 120.212890625 408.5 120.212890625 408.5 120.212890625 331.549804688 c 0,34,35
 120.212890625 253.650390625 120.212890625 253.650390625 148.641601562 195.224609375 c 128,-1,36
 177.071289062 136.799804688 177.071289062 136.799804688 226.211914062 104.974609375 c 128,-1,37
 275.352539062 73.150390625 275.352539062 73.150390625 335.458984375 73.150390625 c 256,38,23
 395.565429688 73.150390625 395.565429688 73.150390625 444.70703125 104.974609375 c 128,-1,24
302.5625 -141.549804688 m 128,-1,40
 288.349609375 -125.400390625 288.349609375 -125.400390625 288.349609375 -102.599609375 c 256,41,42
 288.349609375 -79.7998046875 288.349609375 -79.7998046875 302.5625 -63.650390625 c 128,-1,43
 316.77734375 -47.5 316.77734375 -47.5 336.271484375 -47.5 c 0,44,45
 354.953125 -47.5 354.953125 -47.5 368.76171875 -63.650390625 c 128,-1,46
 382.5703125 -79.7998046875 382.5703125 -79.7998046875 382.5703125 -102.599609375 c 256,47,48
 382.5703125 -125.400390625 382.5703125 -125.400390625 368.76171875 -141.549804688 c 128,-1,49
 354.953125 -157.700195312 354.953125 -157.700195312 336.271484375 -157.700195312 c 0,50,39
 316.77734375 -157.700195312 316.77734375 -157.700195312 302.5625 -141.549804688 c 128,-1,40
EndSplineSet
EndChar

StartChar: uni1ED2
Encoding: 7890 7890 119
Width: 669
VWidth: 949
GlyphClass: 2
Flags: W
LayerCount: 2
Fore
SplineSet
119.400390625 917.700195312 m 1,0,-1
 193.315429688 917.700195312 l 1,1,-1
 246.923828125 799.900390625 l 1,2,-1
 183.569335938 799.900390625 l 1,3,-1
 119.400390625 917.700195312 l 1,0,-1
302.15625 841.700195312 m 1,4,-1
 372.010742188 841.700195312 l 1,5,-1
 484.1015625 703.950195312 l 1,6,-1
 403.6875 703.950195312 l 1,7,-1
 337.083984375 789.450195312 l 1,8,-1
 270.479492188 703.950195312 l 1,9,-1
 190.065429688 703.950195312 l 1,10,-1
 302.15625 841.700195312 l 1,4,-1
182.755859375 28.974609375 m 128,-1,12
 114.528320312 72.2001953125 114.528320312 72.2001953125 75.5400390625 151.049804688 c 128,-1,13
 36.55078125 229.900390625 36.55078125 229.900390625 36.55078125 331.549804688 c 256,14,15
 36.55078125 433.200195312 36.55078125 433.200195312 75.5400390625 512.049804688 c 128,-1,16
 114.528320312 590.900390625 114.528320312 590.900390625 182.755859375 634.599609375 c 128,-1,17
 250.984375 678.299804688 250.984375 678.299804688 335.458984375 678.299804688 c 256,18,19
 419.93359375 678.299804688 419.93359375 678.299804688 488.163085938 634.599609375 c 128,-1,20
 556.390625 590.900390625 556.390625 590.900390625 595.37890625 512.049804688 c 128,-1,21
 634.368164062 433.200195312 634.368164062 433.200195312 634.368164062 331.549804688 c 256,22,23
 634.368164062 229.900390625 634.368164062 229.900390625 595.37890625 151.049804688 c 128,-1,24
 556.390625 72.2001953125 556.390625 72.2001953125 488.163085938 28.974609375 c 128,-1,25
 419.93359375 -14.25 419.93359375 -14.25 335.458984375 -14.25 c 256,26,11
 250.984375 -14.25 250.984375 -14.25 182.755859375 28.974609375 c 128,-1,12
444.70703125 104.974609375 m 128,-1,28
 493.84765625 136.799804688 493.84765625 136.799804688 522.27734375 195.224609375 c 128,-1,29
 550.706054688 253.650390625 550.706054688 253.650390625 550.706054688 331.549804688 c 0,30,31
 550.706054688 408.5 550.706054688 408.5 522.68359375 466.924804688 c 128,-1,32
 494.659179688 525.349609375 494.659179688 525.349609375 445.924804688 557.174804688 c 128,-1,33
 397.190429688 589 397.190429688 589 337.083984375 589 c 0,34,35
 276.165039062 589 276.165039062 589 227.024414062 557.650390625 c 128,-1,36
 177.881835938 526.299804688 177.881835938 526.299804688 149.047851562 467.400390625 c 128,-1,37
 120.212890625 408.5 120.212890625 408.5 120.212890625 331.549804688 c 0,38,39
 120.212890625 253.650390625 120.212890625 253.650390625 148.641601562 195.224609375 c 128,-1,40
 177.071289062 136.799804688 177.071289062 136.799804688 226.211914062 104.974609375 c 128,-1,41
 275.352539062 73.150390625 275.352539062 73.150390625 335.458984375 73.150390625 c 256,42,27
 395.565429688 73.150390625 395.565429688 73.150390625 444.70703125 104.974609375 c 128,-1,28
EndSplineSet
EndChar

StartChar: uni1ED4
Encoding: 7892 7892 120
Width: 669
VWidth: 949
GlyphClass: 2
Flags: W
LayerCount: 2
Fore
SplineSet
432.116210938 838.849609375 m 1,0,1
 456.484375 838.849609375 456.484375 838.849609375 468.26171875 846.450195312 c 128,-1,2
 480.040039062 854.049804688 480.040039062 854.049804688 480.040039062 871.150390625 c 0,3,4
 480.040039062 885.400390625 480.040039062 885.400390625 471.51171875 892.049804688 c 128,-1,5
 462.982421875 898.700195312 462.982421875 898.700195312 445.11328125 898.700195312 c 0,6,7
 423.182617188 898.700195312 423.182617188 898.700195312 410.186523438 891.099609375 c 1,8,-1
 410.186523438 931.950195312 l 1,9,10
 436.177734375 941.450195312 436.177734375 941.450195312 463.794921875 941.450195312 c 0,11,12
 498.721679688 941.450195312 498.721679688 941.450195312 518.215820312 923.875 c 128,-1,13
 537.708984375 906.299804688 537.708984375 906.299804688 537.708984375 876.849609375 c 0,14,15
 537.708984375 853.099609375 537.708984375 853.099609375 523.494140625 836 c 128,-1,16
 509.280273438 818.900390625 509.280273438 818.900390625 484.1015625 815.099609375 c 1,17,-1
 484.1015625 791.349609375 l 1,18,-1
 432.116210938 791.349609375 l 1,19,-1
 432.116210938 838.849609375 l 1,0,1
304.59375 841.700195312 m 1,20,-1
 374.447265625 841.700195312 l 1,21,-1
 486.537109375 703.950195312 l 1,22,-1
 406.125 703.950195312 l 1,23,-1
 339.521484375 789.450195312 l 1,24,-1
 272.916015625 703.950195312 l 1,25,-1
 192.502929688 703.950195312 l 1,26,-1
 304.59375 841.700195312 l 1,20,-1
182.755859375 28.974609375 m 128,-1,28
 114.528320312 72.2001953125 114.528320312 72.2001953125 75.5400390625 151.049804688 c 128,-1,29
 36.55078125 229.900390625 36.55078125 229.900390625 36.55078125 331.549804688 c 256,30,31
 36.55078125 433.200195312 36.55078125 433.200195312 75.5400390625 512.049804688 c 128,-1,32
 114.528320312 590.900390625 114.528320312 590.900390625 182.755859375 634.599609375 c 128,-1,33
 250.984375 678.299804688 250.984375 678.299804688 335.458984375 678.299804688 c 256,34,35
 419.93359375 678.299804688 419.93359375 678.299804688 488.163085938 634.599609375 c 128,-1,36
 556.390625 590.900390625 556.390625 590.900390625 595.37890625 512.049804688 c 128,-1,37
 634.368164062 433.200195312 634.368164062 433.200195312 634.368164062 331.549804688 c 256,38,39
 634.368164062 229.900390625 634.368164062 229.900390625 595.37890625 151.049804688 c 128,-1,40
 556.390625 72.2001953125 556.390625 72.2001953125 488.163085938 28.974609375 c 128,-1,41
 419.93359375 -14.25 419.93359375 -14.25 335.458984375 -14.25 c 256,42,27
 250.984375 -14.25 250.984375 -14.25 182.755859375 28.974609375 c 128,-1,28
444.70703125 104.974609375 m 128,-1,44
 493.84765625 136.799804688 493.84765625 136.799804688 522.27734375 195.224609375 c 128,-1,45
 550.706054688 253.650390625 550.706054688 253.650390625 550.706054688 331.549804688 c 0,46,47
 550.706054688 408.5 550.706054688 408.5 522.68359375 466.924804688 c 128,-1,48
 494.659179688 525.349609375 494.659179688 525.349609375 445.924804688 557.174804688 c 128,-1,49
 397.190429688 589 397.190429688 589 337.083984375 589 c 0,50,51
 276.165039062 589 276.165039062 589 227.024414062 557.650390625 c 128,-1,52
 177.881835938 526.299804688 177.881835938 526.299804688 149.047851562 467.400390625 c 128,-1,53
 120.212890625 408.5 120.212890625 408.5 120.212890625 331.549804688 c 0,54,55
 120.212890625 253.650390625 120.212890625 253.650390625 148.641601562 195.224609375 c 128,-1,56
 177.071289062 136.799804688 177.071289062 136.799804688 226.211914062 104.974609375 c 128,-1,57
 275.352539062 73.150390625 275.352539062 73.150390625 335.458984375 73.150390625 c 256,58,43
 395.565429688 73.150390625 395.565429688 73.150390625 444.70703125 104.974609375 c 128,-1,44
EndSplineSet
EndChar

StartChar: uni1ED6
Encoding: 7894 7894 121
Width: 669
VWidth: 949
GlyphClass: 2
Flags: W
LayerCount: 2
Fore
SplineSet
206.311523438 931.950195312 m 1,0,1
 226.6171875 966.150390625 226.6171875 966.150390625 272.103515625 966.150390625 c 0,2,3
 287.536132812 966.150390625 287.536132812 966.150390625 301.75 960.924804688 c 128,-1,4
 315.96484375 955.700195312 315.96484375 955.700195312 337.083984375 945.25 c 0,5,6
 357.390625 934.799804688 357.390625 934.799804688 371.197265625 929.575195312 c 128,-1,7
 385.005859375 924.349609375 385.005859375 924.349609375 398.815429688 924.349609375 c 0,8,9
 439.427734375 924.349609375 439.427734375 924.349609375 464.606445312 966.150390625 c 1,10,-1
 464.606445312 894.900390625 l 1,11,12
 445.11328125 861.650390625 445.11328125 861.650390625 398.815429688 861.650390625 c 0,13,14
 382.5703125 861.650390625 382.5703125 861.650390625 367.94921875 866.875 c 128,-1,15
 353.328125 872.099609375 353.328125 872.099609375 330.584960938 883.5 c 0,16,17
 310.279296875 893 310.279296875 893 298.095703125 897.75 c 128,-1,18
 285.912109375 902.5 285.912109375 902.5 272.103515625 902.5 c 0,19,20
 252.610351562 902.5 252.610351562 902.5 236.770507812 893 c 128,-1,21
 220.931640625 883.5 220.931640625 883.5 206.311523438 860.700195312 c 1,22,-1
 206.311523438 931.950195312 l 1,0,1
250.579101562 740.525390625 m 128,-1,24
 218.494140625 776.150390625 218.494140625 776.150390625 218.494140625 835.049804688 c 1,25,-1
 278.602539062 835.049804688 l 1,26,27
 278.602539062 803.700195312 278.602539062 803.700195312 294.034179688 786.125 c 128,-1,28
 309.467773438 768.549804688 309.467773438 768.549804688 337.083984375 768.549804688 c 256,29,30
 364.700195312 768.549804688 364.700195312 768.549804688 380.133789062 786.125 c 128,-1,31
 395.565429688 803.700195312 395.565429688 803.700195312 395.565429688 835.049804688 c 1,32,-1
 456.484375 835.049804688 l 1,33,34
 456.484375 777.099609375 456.484375 777.099609375 424.400390625 741 c 128,-1,35
 392.31640625 704.900390625 392.31640625 704.900390625 337.083984375 704.900390625 c 0,36,23
 282.663085938 704.900390625 282.663085938 704.900390625 250.579101562 740.525390625 c 128,-1,24
182.755859375 28.974609375 m 128,-1,38
 114.528320312 72.2001953125 114.528320312 72.2001953125 75.5400390625 151.049804688 c 128,-1,39
 36.55078125 229.900390625 36.55078125 229.900390625 36.55078125 331.549804688 c 256,40,41
 36.55078125 433.200195312 36.55078125 433.200195312 75.5400390625 512.049804688 c 128,-1,42
 114.528320312 590.900390625 114.528320312 590.900390625 182.755859375 634.599609375 c 128,-1,43
 250.984375 678.299804688 250.984375 678.299804688 335.458984375 678.299804688 c 256,44,45
 419.93359375 678.299804688 419.93359375 678.299804688 488.163085938 634.599609375 c 128,-1,46
 556.390625 590.900390625 556.390625 590.900390625 595.37890625 512.049804688 c 128,-1,47
 634.368164062 433.200195312 634.368164062 433.200195312 634.368164062 331.549804688 c 256,48,49
 634.368164062 229.900390625 634.368164062 229.900390625 595.37890625 151.049804688 c 128,-1,50
 556.390625 72.2001953125 556.390625 72.2001953125 488.163085938 28.974609375 c 128,-1,51
 419.93359375 -14.25 419.93359375 -14.25 335.458984375 -14.25 c 256,52,37
 250.984375 -14.25 250.984375 -14.25 182.755859375 28.974609375 c 128,-1,38
444.70703125 104.974609375 m 128,-1,54
 493.84765625 136.799804688 493.84765625 136.799804688 522.27734375 195.224609375 c 128,-1,55
 550.706054688 253.650390625 550.706054688 253.650390625 550.706054688 331.549804688 c 0,56,57
 550.706054688 408.5 550.706054688 408.5 522.68359375 466.924804688 c 128,-1,58
 494.659179688 525.349609375 494.659179688 525.349609375 445.924804688 557.174804688 c 128,-1,59
 397.190429688 589 397.190429688 589 337.083984375 589 c 0,60,61
 276.165039062 589 276.165039062 589 227.024414062 557.650390625 c 128,-1,62
 177.881835938 526.299804688 177.881835938 526.299804688 149.047851562 467.400390625 c 128,-1,63
 120.212890625 408.5 120.212890625 408.5 120.212890625 331.549804688 c 0,64,65
 120.212890625 253.650390625 120.212890625 253.650390625 148.641601562 195.224609375 c 128,-1,66
 177.071289062 136.799804688 177.071289062 136.799804688 226.211914062 104.974609375 c 128,-1,67
 275.352539062 73.150390625 275.352539062 73.150390625 335.458984375 73.150390625 c 256,68,53
 395.565429688 73.150390625 395.565429688 73.150390625 444.70703125 104.974609375 c 128,-1,54
EndSplineSet
EndChar

StartChar: Odieresis
Encoding: 214 214 122
Width: 669
VWidth: 949
GlyphClass: 2
Flags: W
LayerCount: 2
Fore
SplineSet
209.966796875 720.099609375 m 128,-1,1
 195.752929688 736.25 195.752929688 736.25 195.752929688 759.049804688 c 256,2,3
 195.752929688 781.849609375 195.752929688 781.849609375 209.966796875 798 c 128,-1,4
 224.181640625 814.150390625 224.181640625 814.150390625 243.674804688 814.150390625 c 0,5,6
 262.356445312 814.150390625 262.356445312 814.150390625 276.165039062 798 c 128,-1,7
 289.97265625 781.849609375 289.97265625 781.849609375 289.97265625 759.049804688 c 256,8,9
 289.97265625 736.25 289.97265625 736.25 276.165039062 720.099609375 c 128,-1,10
 262.356445312 703.950195312 262.356445312 703.950195312 243.674804688 703.950195312 c 0,11,0
 224.181640625 703.950195312 224.181640625 703.950195312 209.966796875 720.099609375 c 128,-1,1
394.34765625 720.099609375 m 128,-1,13
 380.133789062 736.25 380.133789062 736.25 380.133789062 759.049804688 c 256,14,15
 380.133789062 781.849609375 380.133789062 781.849609375 394.34765625 798 c 128,-1,16
 408.5625 814.150390625 408.5625 814.150390625 428.055664062 814.150390625 c 0,17,18
 446.737304688 814.150390625 446.737304688 814.150390625 460.545898438 798 c 128,-1,19
 474.353515625 781.849609375 474.353515625 781.849609375 474.353515625 759.049804688 c 256,20,21
 474.353515625 736.25 474.353515625 736.25 460.545898438 720.099609375 c 128,-1,22
 446.737304688 703.950195312 446.737304688 703.950195312 428.055664062 703.950195312 c 0,23,12
 408.5625 703.950195312 408.5625 703.950195312 394.34765625 720.099609375 c 128,-1,13
182.755859375 28.974609375 m 128,-1,25
 114.528320312 72.2001953125 114.528320312 72.2001953125 75.5400390625 151.049804688 c 128,-1,26
 36.55078125 229.900390625 36.55078125 229.900390625 36.55078125 331.549804688 c 256,27,28
 36.55078125 433.200195312 36.55078125 433.200195312 75.5400390625 512.049804688 c 128,-1,29
 114.528320312 590.900390625 114.528320312 590.900390625 182.755859375 634.599609375 c 128,-1,30
 250.984375 678.299804688 250.984375 678.299804688 335.458984375 678.299804688 c 256,31,32
 419.93359375 678.299804688 419.93359375 678.299804688 488.163085938 634.599609375 c 128,-1,33
 556.390625 590.900390625 556.390625 590.900390625 595.37890625 512.049804688 c 128,-1,34
 634.368164062 433.200195312 634.368164062 433.200195312 634.368164062 331.549804688 c 256,35,36
 634.368164062 229.900390625 634.368164062 229.900390625 595.37890625 151.049804688 c 128,-1,37
 556.390625 72.2001953125 556.390625 72.2001953125 488.163085938 28.974609375 c 128,-1,38
 419.93359375 -14.25 419.93359375 -14.25 335.458984375 -14.25 c 256,39,24
 250.984375 -14.25 250.984375 -14.25 182.755859375 28.974609375 c 128,-1,25
444.70703125 104.974609375 m 128,-1,41
 493.84765625 136.799804688 493.84765625 136.799804688 522.27734375 195.224609375 c 128,-1,42
 550.706054688 253.650390625 550.706054688 253.650390625 550.706054688 331.549804688 c 0,43,44
 550.706054688 408.5 550.706054688 408.5 522.68359375 466.924804688 c 128,-1,45
 494.659179688 525.349609375 494.659179688 525.349609375 445.924804688 557.174804688 c 128,-1,46
 397.190429688 589 397.190429688 589 337.083984375 589 c 0,47,48
 276.165039062 589 276.165039062 589 227.024414062 557.650390625 c 128,-1,49
 177.881835938 526.299804688 177.881835938 526.299804688 149.047851562 467.400390625 c 128,-1,50
 120.212890625 408.5 120.212890625 408.5 120.212890625 331.549804688 c 0,51,52
 120.212890625 253.650390625 120.212890625 253.650390625 148.641601562 195.224609375 c 128,-1,53
 177.071289062 136.799804688 177.071289062 136.799804688 226.211914062 104.974609375 c 128,-1,54
 275.352539062 73.150390625 275.352539062 73.150390625 335.458984375 73.150390625 c 256,55,40
 395.565429688 73.150390625 395.565429688 73.150390625 444.70703125 104.974609375 c 128,-1,41
EndSplineSet
EndChar

StartChar: uni1ECC
Encoding: 7884 7884 123
Width: 669
VWidth: 949
GlyphClass: 2
Flags: W
LayerCount: 2
Fore
SplineSet
182.755859375 28.974609375 m 128,-1,1
 114.528320312 72.2001953125 114.528320312 72.2001953125 75.5400390625 151.049804688 c 128,-1,2
 36.55078125 229.900390625 36.55078125 229.900390625 36.55078125 331.549804688 c 256,3,4
 36.55078125 433.200195312 36.55078125 433.200195312 75.5400390625 512.049804688 c 128,-1,5
 114.528320312 590.900390625 114.528320312 590.900390625 182.755859375 634.599609375 c 128,-1,6
 250.984375 678.299804688 250.984375 678.299804688 335.458984375 678.299804688 c 256,7,8
 419.93359375 678.299804688 419.93359375 678.299804688 488.163085938 634.599609375 c 128,-1,9
 556.390625 590.900390625 556.390625 590.900390625 595.37890625 512.049804688 c 128,-1,10
 634.368164062 433.200195312 634.368164062 433.200195312 634.368164062 331.549804688 c 256,11,12
 634.368164062 229.900390625 634.368164062 229.900390625 595.37890625 151.049804688 c 128,-1,13
 556.390625 72.2001953125 556.390625 72.2001953125 488.163085938 28.974609375 c 128,-1,14
 419.93359375 -14.25 419.93359375 -14.25 335.458984375 -14.25 c 256,15,0
 250.984375 -14.25 250.984375 -14.25 182.755859375 28.974609375 c 128,-1,1
444.70703125 104.974609375 m 128,-1,17
 493.84765625 136.799804688 493.84765625 136.799804688 522.27734375 195.224609375 c 128,-1,18
 550.706054688 253.650390625 550.706054688 253.650390625 550.706054688 331.549804688 c 0,19,20
 550.706054688 408.5 550.706054688 408.5 522.68359375 466.924804688 c 128,-1,21
 494.659179688 525.349609375 494.659179688 525.349609375 445.924804688 557.174804688 c 128,-1,22
 397.190429688 589 397.190429688 589 337.083984375 589 c 0,23,24
 276.165039062 589 276.165039062 589 227.024414062 557.650390625 c 128,-1,25
 177.881835938 526.299804688 177.881835938 526.299804688 149.047851562 467.400390625 c 128,-1,26
 120.212890625 408.5 120.212890625 408.5 120.212890625 331.549804688 c 0,27,28
 120.212890625 253.650390625 120.212890625 253.650390625 148.641601562 195.224609375 c 128,-1,29
 177.071289062 136.799804688 177.071289062 136.799804688 226.211914062 104.974609375 c 128,-1,30
 275.352539062 73.150390625 275.352539062 73.150390625 335.458984375 73.150390625 c 256,31,16
 395.565429688 73.150390625 395.565429688 73.150390625 444.70703125 104.974609375 c 128,-1,17
302.5625 -141.549804688 m 128,-1,33
 288.349609375 -125.400390625 288.349609375 -125.400390625 288.349609375 -102.599609375 c 256,34,35
 288.349609375 -79.7998046875 288.349609375 -79.7998046875 302.5625 -63.650390625 c 128,-1,36
 316.77734375 -47.5 316.77734375 -47.5 336.271484375 -47.5 c 0,37,38
 354.953125 -47.5 354.953125 -47.5 368.76171875 -63.650390625 c 128,-1,39
 382.5703125 -79.7998046875 382.5703125 -79.7998046875 382.5703125 -102.599609375 c 256,40,41
 382.5703125 -125.400390625 382.5703125 -125.400390625 368.76171875 -141.549804688 c 128,-1,42
 354.953125 -157.700195312 354.953125 -157.700195312 336.271484375 -157.700195312 c 0,43,32
 316.77734375 -157.700195312 316.77734375 -157.700195312 302.5625 -141.549804688 c 128,-1,33
EndSplineSet
EndChar

StartChar: Ograve
Encoding: 210 210 124
Width: 669
VWidth: 949
GlyphClass: 2
Flags: W
LayerCount: 2
Fore
SplineSet
238.80078125 867.349609375 m 1,0,-1
 325.712890625 867.349609375 l 1,1,-1
 381.756835938 703.950195312 l 1,2,-1
 306.217773438 703.950195312 l 1,3,-1
 238.80078125 867.349609375 l 1,0,-1
182.755859375 28.974609375 m 128,-1,5
 114.528320312 72.2001953125 114.528320312 72.2001953125 75.5400390625 151.049804688 c 128,-1,6
 36.55078125 229.900390625 36.55078125 229.900390625 36.55078125 331.549804688 c 256,7,8
 36.55078125 433.200195312 36.55078125 433.200195312 75.5400390625 512.049804688 c 128,-1,9
 114.528320312 590.900390625 114.528320312 590.900390625 182.755859375 634.599609375 c 128,-1,10
 250.984375 678.299804688 250.984375 678.299804688 335.458984375 678.299804688 c 256,11,12
 419.93359375 678.299804688 419.93359375 678.299804688 488.163085938 634.599609375 c 128,-1,13
 556.390625 590.900390625 556.390625 590.900390625 595.37890625 512.049804688 c 128,-1,14
 634.368164062 433.200195312 634.368164062 433.200195312 634.368164062 331.549804688 c 256,15,16
 634.368164062 229.900390625 634.368164062 229.900390625 595.37890625 151.049804688 c 128,-1,17
 556.390625 72.2001953125 556.390625 72.2001953125 488.163085938 28.974609375 c 128,-1,18
 419.93359375 -14.25 419.93359375 -14.25 335.458984375 -14.25 c 256,19,4
 250.984375 -14.25 250.984375 -14.25 182.755859375 28.974609375 c 128,-1,5
444.70703125 104.974609375 m 128,-1,21
 493.84765625 136.799804688 493.84765625 136.799804688 522.27734375 195.224609375 c 128,-1,22
 550.706054688 253.650390625 550.706054688 253.650390625 550.706054688 331.549804688 c 0,23,24
 550.706054688 408.5 550.706054688 408.5 522.68359375 466.924804688 c 128,-1,25
 494.659179688 525.349609375 494.659179688 525.349609375 445.924804688 557.174804688 c 128,-1,26
 397.190429688 589 397.190429688 589 337.083984375 589 c 0,27,28
 276.165039062 589 276.165039062 589 227.024414062 557.650390625 c 128,-1,29
 177.881835938 526.299804688 177.881835938 526.299804688 149.047851562 467.400390625 c 128,-1,30
 120.212890625 408.5 120.212890625 408.5 120.212890625 331.549804688 c 0,31,32
 120.212890625 253.650390625 120.212890625 253.650390625 148.641601562 195.224609375 c 128,-1,33
 177.071289062 136.799804688 177.071289062 136.799804688 226.211914062 104.974609375 c 128,-1,34
 275.352539062 73.150390625 275.352539062 73.150390625 335.458984375 73.150390625 c 256,35,20
 395.565429688 73.150390625 395.565429688 73.150390625 444.70703125 104.974609375 c 128,-1,21
EndSplineSet
EndChar

StartChar: uni1ECE
Encoding: 7886 7886 125
Width: 669
VWidth: 949
GlyphClass: 2
Flags: W
LayerCount: 2
Fore
SplineSet
298.095703125 772.349609375 m 1,0,1
 336.271484375 772.349609375 336.271484375 772.349609375 354.546875 784.224609375 c 128,-1,2
 372.822265625 796.099609375 372.822265625 796.099609375 372.822265625 822.700195312 c 0,3,4
 372.822265625 844.549804688 372.822265625 844.549804688 360.233398438 854.525390625 c 128,-1,5
 347.643554688 864.5 347.643554688 864.5 319.21484375 864.5 c 0,6,7
 308.655273438 864.5 308.655273438 864.5 292.00390625 861.174804688 c 128,-1,8
 275.352539062 857.849609375 275.352539062 857.849609375 268.04296875 854.049804688 c 1,9,-1
 268.04296875 906.299804688 l 1,10,11
 281.0390625 911.049804688 281.0390625 911.049804688 300.532226562 914.849609375 c 128,-1,12
 320.025390625 918.650390625 320.025390625 918.650390625 338.708007812 918.650390625 c 0,13,14
 390.693359375 918.650390625 390.693359375 918.650390625 417.90234375 893.474609375 c 128,-1,15
 445.11328125 868.299804688 445.11328125 868.299804688 445.11328125 826.5 c 0,16,17
 445.11328125 791.349609375 445.11328125 791.349609375 425.618164062 767.125 c 128,-1,18
 406.125 742.900390625 406.125 742.900390625 370.38671875 737.200195312 c 1,19,-1
 370.38671875 704.900390625 l 1,20,-1
 298.095703125 704.900390625 l 1,21,-1
 298.095703125 772.349609375 l 1,0,1
182.755859375 28.974609375 m 128,-1,23
 114.528320312 72.2001953125 114.528320312 72.2001953125 75.5400390625 151.049804688 c 128,-1,24
 36.55078125 229.900390625 36.55078125 229.900390625 36.55078125 331.549804688 c 256,25,26
 36.55078125 433.200195312 36.55078125 433.200195312 75.5400390625 512.049804688 c 128,-1,27
 114.528320312 590.900390625 114.528320312 590.900390625 182.755859375 634.599609375 c 128,-1,28
 250.984375 678.299804688 250.984375 678.299804688 335.458984375 678.299804688 c 256,29,30
 419.93359375 678.299804688 419.93359375 678.299804688 488.163085938 634.599609375 c 128,-1,31
 556.390625 590.900390625 556.390625 590.900390625 595.37890625 512.049804688 c 128,-1,32
 634.368164062 433.200195312 634.368164062 433.200195312 634.368164062 331.549804688 c 256,33,34
 634.368164062 229.900390625 634.368164062 229.900390625 595.37890625 151.049804688 c 128,-1,35
 556.390625 72.2001953125 556.390625 72.2001953125 488.163085938 28.974609375 c 128,-1,36
 419.93359375 -14.25 419.93359375 -14.25 335.458984375 -14.25 c 256,37,22
 250.984375 -14.25 250.984375 -14.25 182.755859375 28.974609375 c 128,-1,23
444.70703125 104.974609375 m 128,-1,39
 493.84765625 136.799804688 493.84765625 136.799804688 522.27734375 195.224609375 c 128,-1,40
 550.706054688 253.650390625 550.706054688 253.650390625 550.706054688 331.549804688 c 0,41,42
 550.706054688 408.5 550.706054688 408.5 522.68359375 466.924804688 c 128,-1,43
 494.659179688 525.349609375 494.659179688 525.349609375 445.924804688 557.174804688 c 128,-1,44
 397.190429688 589 397.190429688 589 337.083984375 589 c 0,45,46
 276.165039062 589 276.165039062 589 227.024414062 557.650390625 c 128,-1,47
 177.881835938 526.299804688 177.881835938 526.299804688 149.047851562 467.400390625 c 128,-1,48
 120.212890625 408.5 120.212890625 408.5 120.212890625 331.549804688 c 0,49,50
 120.212890625 253.650390625 120.212890625 253.650390625 148.641601562 195.224609375 c 128,-1,51
 177.071289062 136.799804688 177.071289062 136.799804688 226.211914062 104.974609375 c 128,-1,52
 275.352539062 73.150390625 275.352539062 73.150390625 335.458984375 73.150390625 c 256,53,38
 395.565429688 73.150390625 395.565429688 73.150390625 444.70703125 104.974609375 c 128,-1,39
EndSplineSet
EndChar

StartChar: Ohorn
Encoding: 416 416 126
Width: 699
VWidth: 949
GlyphClass: 2
Flags: W
LayerCount: 2
Fore
SplineSet
182.755859375 28.974609375 m 128,-1,1
 114.528320312 72.2001953125 114.528320312 72.2001953125 75.5400390625 151.049804688 c 128,-1,2
 36.55078125 229.900390625 36.55078125 229.900390625 36.55078125 331.549804688 c 256,3,4
 36.55078125 433.200195312 36.55078125 433.200195312 75.5400390625 512.049804688 c 128,-1,5
 114.528320312 590.900390625 114.528320312 590.900390625 182.755859375 634.599609375 c 128,-1,6
 250.984375 678.299804688 250.984375 678.299804688 335.458984375 678.299804688 c 0,7,8
 394.75390625 678.299804688 394.75390625 678.299804688 447.143554688 655.974609375 c 128,-1,9
 499.534179688 633.650390625 499.534179688 633.650390625 539.333984375 592.799804688 c 1,10,11
 576.697265625 593.75 576.697265625 593.75 593.349609375 613.224609375 c 128,-1,12
 610 632.700195312 610 632.700195312 610 675.450195312 c 2,13,-1
 610 709.650390625 l 1,14,-1
 686.350585938 709.650390625 l 1,15,-1
 686.350585938 670.700195312 l 2,16,17
 686.350585938 617.5 686.350585938 617.5 660.359375 576.174804688 c 128,-1,18
 634.368164062 534.849609375 634.368164062 534.849609375 590.505859375 521.549804688 c 1,19,20
 634.368164062 437 634.368164062 437 634.368164062 331.549804688 c 0,21,22
 634.368164062 229.900390625 634.368164062 229.900390625 595.37890625 151.049804688 c 128,-1,23
 556.390625 72.2001953125 556.390625 72.2001953125 488.163085938 28.974609375 c 128,-1,24
 419.93359375 -14.25 419.93359375 -14.25 335.458984375 -14.25 c 256,25,0
 250.984375 -14.25 250.984375 -14.25 182.755859375 28.974609375 c 128,-1,1
443.08203125 107.349609375 m 128,-1,27
 491.412109375 138.700195312 491.412109375 138.700195312 519.83984375 196.650390625 c 128,-1,28
 548.268554688 254.599609375 548.268554688 254.599609375 548.268554688 331.549804688 c 0,29,30
 548.268554688 407.549804688 548.268554688 407.549804688 520.653320312 465.5 c 128,-1,31
 493.03515625 523.450195312 493.03515625 523.450195312 444.70703125 554.799804688 c 128,-1,32
 396.377929688 586.150390625 396.377929688 586.150390625 337.083984375 586.150390625 c 0,33,34
 276.977539062 586.150390625 276.977539062 586.150390625 228.243164062 554.799804688 c 128,-1,35
 179.5078125 523.450195312 179.5078125 523.450195312 151.079101562 465.5 c 128,-1,36
 122.650390625 407.549804688 122.650390625 407.549804688 122.650390625 331.549804688 c 0,37,38
 122.650390625 254.599609375 122.650390625 254.599609375 151.079101562 196.650390625 c 128,-1,39
 179.5078125 138.700195312 179.5078125 138.700195312 227.836914062 107.349609375 c 128,-1,40
 276.165039062 76 276.165039062 76 335.458984375 76 c 256,41,26
 394.75390625 76 394.75390625 76 443.08203125 107.349609375 c 128,-1,27
EndSplineSet
EndChar

StartChar: uni1EDA
Encoding: 7898 7898 127
Width: 702
VWidth: 949
GlyphClass: 2
Flags: W
LayerCount: 2
Fore
SplineSet
356.577148438 867.349609375 m 1,0,-1
 443.48828125 867.349609375 l 1,1,-1
 376.072265625 703.950195312 l 1,2,-1
 301.344726562 703.950195312 l 1,3,-1
 356.577148438 867.349609375 l 1,0,-1
182.755859375 28.974609375 m 128,-1,5
 114.528320312 72.2001953125 114.528320312 72.2001953125 75.5400390625 151.049804688 c 128,-1,6
 36.55078125 229.900390625 36.55078125 229.900390625 36.55078125 331.549804688 c 256,7,8
 36.55078125 433.200195312 36.55078125 433.200195312 75.5400390625 512.049804688 c 128,-1,9
 114.528320312 590.900390625 114.528320312 590.900390625 182.755859375 634.599609375 c 128,-1,10
 250.984375 678.299804688 250.984375 678.299804688 335.458984375 678.299804688 c 0,11,12
 394.75390625 678.299804688 394.75390625 678.299804688 447.143554688 655.974609375 c 128,-1,13
 499.534179688 633.650390625 499.534179688 633.650390625 539.333984375 592.799804688 c 1,14,15
 576.697265625 593.75 576.697265625 593.75 593.349609375 613.224609375 c 128,-1,16
 610 632.700195312 610 632.700195312 610 675.450195312 c 2,17,-1
 610 709.650390625 l 1,18,-1
 686.350585938 709.650390625 l 1,19,-1
 686.350585938 670.700195312 l 2,20,21
 686.350585938 617.5 686.350585938 617.5 660.359375 576.174804688 c 128,-1,22
 634.368164062 534.849609375 634.368164062 534.849609375 590.505859375 521.549804688 c 1,23,24
 634.368164062 437 634.368164062 437 634.368164062 331.549804688 c 0,25,26
 634.368164062 229.900390625 634.368164062 229.900390625 595.37890625 151.049804688 c 128,-1,27
 556.390625 72.2001953125 556.390625 72.2001953125 488.163085938 28.974609375 c 128,-1,28
 419.93359375 -14.25 419.93359375 -14.25 335.458984375 -14.25 c 256,29,4
 250.984375 -14.25 250.984375 -14.25 182.755859375 28.974609375 c 128,-1,5
443.08203125 107.349609375 m 128,-1,31
 491.412109375 138.700195312 491.412109375 138.700195312 519.83984375 196.650390625 c 128,-1,32
 548.268554688 254.599609375 548.268554688 254.599609375 548.268554688 331.549804688 c 0,33,34
 548.268554688 407.549804688 548.268554688 407.549804688 520.653320312 465.5 c 128,-1,35
 493.03515625 523.450195312 493.03515625 523.450195312 444.70703125 554.799804688 c 128,-1,36
 396.377929688 586.150390625 396.377929688 586.150390625 337.083984375 586.150390625 c 0,37,38
 276.977539062 586.150390625 276.977539062 586.150390625 228.243164062 554.799804688 c 128,-1,39
 179.5078125 523.450195312 179.5078125 523.450195312 151.079101562 465.5 c 128,-1,40
 122.650390625 407.549804688 122.650390625 407.549804688 122.650390625 331.549804688 c 0,41,42
 122.650390625 254.599609375 122.650390625 254.599609375 151.079101562 196.650390625 c 128,-1,43
 179.5078125 138.700195312 179.5078125 138.700195312 227.836914062 107.349609375 c 128,-1,44
 276.165039062 76 276.165039062 76 335.458984375 76 c 256,45,30
 394.75390625 76 394.75390625 76 443.08203125 107.349609375 c 128,-1,31
EndSplineSet
EndChar

StartChar: uni1EE2
Encoding: 7906 7906 128
Width: 702
VWidth: 949
GlyphClass: 2
Flags: W
LayerCount: 2
Fore
SplineSet
182.755859375 28.974609375 m 128,-1,1
 114.528320312 72.2001953125 114.528320312 72.2001953125 75.5400390625 151.049804688 c 128,-1,2
 36.55078125 229.900390625 36.55078125 229.900390625 36.55078125 331.549804688 c 256,3,4
 36.55078125 433.200195312 36.55078125 433.200195312 75.5400390625 512.049804688 c 128,-1,5
 114.528320312 590.900390625 114.528320312 590.900390625 182.755859375 634.599609375 c 128,-1,6
 250.984375 678.299804688 250.984375 678.299804688 335.458984375 678.299804688 c 0,7,8
 394.75390625 678.299804688 394.75390625 678.299804688 447.143554688 655.974609375 c 128,-1,9
 499.534179688 633.650390625 499.534179688 633.650390625 539.333984375 592.799804688 c 1,10,11
 576.697265625 593.75 576.697265625 593.75 593.349609375 613.224609375 c 128,-1,12
 610 632.700195312 610 632.700195312 610 675.450195312 c 2,13,-1
 610 709.650390625 l 1,14,-1
 686.350585938 709.650390625 l 1,15,-1
 686.350585938 670.700195312 l 2,16,17
 686.350585938 617.5 686.350585938 617.5 660.359375 576.174804688 c 128,-1,18
 634.368164062 534.849609375 634.368164062 534.849609375 590.505859375 521.549804688 c 1,19,20
 634.368164062 437 634.368164062 437 634.368164062 331.549804688 c 0,21,22
 634.368164062 229.900390625 634.368164062 229.900390625 595.37890625 151.049804688 c 128,-1,23
 556.390625 72.2001953125 556.390625 72.2001953125 488.163085938 28.974609375 c 128,-1,24
 419.93359375 -14.25 419.93359375 -14.25 335.458984375 -14.25 c 256,25,0
 250.984375 -14.25 250.984375 -14.25 182.755859375 28.974609375 c 128,-1,1
443.08203125 107.349609375 m 128,-1,27
 491.412109375 138.700195312 491.412109375 138.700195312 519.83984375 196.650390625 c 128,-1,28
 548.268554688 254.599609375 548.268554688 254.599609375 548.268554688 331.549804688 c 0,29,30
 548.268554688 407.549804688 548.268554688 407.549804688 520.653320312 465.5 c 128,-1,31
 493.03515625 523.450195312 493.03515625 523.450195312 444.70703125 554.799804688 c 128,-1,32
 396.377929688 586.150390625 396.377929688 586.150390625 337.083984375 586.150390625 c 0,33,34
 276.977539062 586.150390625 276.977539062 586.150390625 228.243164062 554.799804688 c 128,-1,35
 179.5078125 523.450195312 179.5078125 523.450195312 151.079101562 465.5 c 128,-1,36
 122.650390625 407.549804688 122.650390625 407.549804688 122.650390625 331.549804688 c 0,37,38
 122.650390625 254.599609375 122.650390625 254.599609375 151.079101562 196.650390625 c 128,-1,39
 179.5078125 138.700195312 179.5078125 138.700195312 227.836914062 107.349609375 c 128,-1,40
 276.165039062 76 276.165039062 76 335.458984375 76 c 256,41,26
 394.75390625 76 394.75390625 76 443.08203125 107.349609375 c 128,-1,27
300.125976562 -141.549804688 m 128,-1,43
 285.912109375 -125.400390625 285.912109375 -125.400390625 285.912109375 -102.599609375 c 256,44,45
 285.912109375 -79.7998046875 285.912109375 -79.7998046875 300.125976562 -63.650390625 c 128,-1,46
 314.340820312 -47.5 314.340820312 -47.5 333.834960938 -47.5 c 0,47,48
 352.515625 -47.5 352.515625 -47.5 366.325195312 -63.650390625 c 128,-1,49
 380.133789062 -79.7998046875 380.133789062 -79.7998046875 380.133789062 -102.599609375 c 256,50,51
 380.133789062 -125.400390625 380.133789062 -125.400390625 366.325195312 -141.549804688 c 128,-1,52
 352.515625 -157.700195312 352.515625 -157.700195312 333.834960938 -157.700195312 c 0,53,42
 314.340820312 -157.700195312 314.340820312 -157.700195312 300.125976562 -141.549804688 c 128,-1,43
EndSplineSet
EndChar

